<?xml version="1.0" encoding="UTF-8" standalone="no"?>
<svg
   xmlns:dc="http://purl.org/dc/elements/1.1/"
   xmlns:cc="http://creativecommons.org/ns#"
   xmlns:rdf="http://www.w3.org/1999/02/22-rdf-syntax-ns#"
   xmlns:svg="http://www.w3.org/2000/svg"
   xmlns="http://www.w3.org/2000/svg"
   xmlns:sodipodi="http://sodipodi.sourceforge.net/DTD/sodipodi-0.dtd"
   xmlns:inkscape="http://www.inkscape.org/namespaces/inkscape"
   height="512"
   viewBox="0 0 512 512"
   width="512"
   version="1.1"
   id="svg2"
   inkscape:version="0.91 r13725"
   sodipodi:docname="amazon.svg">
  <defs
     id="defs43" />
  <sodipodi:namedview
     pagecolor="#ffffff"
     bordercolor="#666666"
     borderopacity="1"
     objecttolerance="10"
     gridtolerance="10"
     guidetolerance="10"
     inkscape:pageopacity="0"
     inkscape:pageshadow="2"
     inkscape:window-width="1920"
     inkscape:window-height="1021"
     id="namedview41"
     showgrid="false"
     inkscape:zoom="1.8310337"
     inkscape:cx="-24.408546"
     inkscape:cy="256"
     inkscape:window-x="0"
     inkscape:window-y="0"
     inkscape:window-maximized="1"
     inkscape:current-layer="svg2" />
  <metadata
     id="metadata80">
    <rdf:RDF>
      <cc:Work
         rdf:about="">
        <dc:format>image/svg+xml</dc:format>
        <dc:type
           rdf:resource="http://purl.org/dc/dcmitype/StillImage" />
      </cc:Work>
    </rdf:RDF>
  </metadata>
  <path
     style="fill:#ff9900;fill-rule:evenodd;fill-opacity:1"
     inkscape:connector-curvature="0"
     d="m 471.95,253.05 c 0,120.9 -98.01,218.9 -218.9,218.9 -120.9,0 -218.9,-98.01 -218.9,-218.9 0,-120.9 98.01,-218.9 218.9,-218.9 120.9,0 218.9,98.01 218.9,218.9"
     id="path6" />
  <path
     style="fill-opacity:0.23500001;fill-rule:evenodd"
     inkscape:connector-curvature="0"
     d="m 253.59,139.41 c -29.606,-0.18 -62.985,14.964 -69.37,46.44 -2.194,12.316 13.241,18.322 19.625,27.406 21.443,14 -23.621,19.407 -21.938,39.625 -9.555,24.11 -1.981,52.712 18.469,68.56 9.805,9.789 19.579,19.609 29.406,29.375 -39.24,-3.738 -77.15,-17.08 -111.53,-35.781 -5.197,4.361 5.01,9.129 7.625,13.13 47.596,47.704 95.52,95.6 143.16,143.22 92.81,-6.704 169.59,-71.28 194.44,-157.81 -18.256,-18.15 -36.509,-36.29 -54.59,-54.59 -36.23,-35.666 -71.39,-72.54 -108.34,-107.41 -12.822,-8.788 -28.775,-11.931 -44.09,-12.09 -0.946,-0.038 -1.889,-0.057 -2.844,-0.063"
     id="path8" />
  <path
     style="fill-opacity:0.06700003;fill-rule:evenodd"
     inkscape:connector-curvature="0"
     d="M 256,1 C 115.17,1 1,115.17 1,256 1,396.83 115.17,511 256,511 396.83,511 511,396.83 511,256 511,115.17 396.83,1 256,1 m 8.827,44.931 c 120.9,0 218.9,98 218.9,218.9 0,120.9 -98,218.9 -218.9,218.9 -120.9,0 -218.93,-98 -218.93,-218.9 0,-120.9 98.03,-218.9 218.93,-218.9"
     id="path10" />
  <g
     style="fill-opacity:0.12900002;fill-rule:evenodd"
     id="g12">
    <path
       inkscape:connector-curvature="0"
       d="m 256,4.433 c -138.94,0 -251.57,112.63 -251.57,251.57 0,138.94 112.63,251.57 251.57,251.57 138.94,0 251.57,-112.63 251.57,-251.57 C 507.57,117.063 394.94,4.433 256,4.433 m 5.885,38.556 c 120.9,0 218.9,98 218.9,218.9 0,120.9 -98,218.9 -218.9,218.9 -120.9,0 -218.93,-98 -218.93,-218.9 0,-120.9 98.03,-218.9 218.93,-218.9"
       id="path14" />
    <path
       inkscape:connector-curvature="0"
       d="m 256,8.356 c -136.77,0 -247.64,110.87 -247.64,247.64 0,136.77 110.87,247.64 247.64,247.64 136.77,0 247.64,-110.87 247.64,-247.64 C 503.64,119.226 392.77,8.356 256,8.356 m 2.942,31.691 c 120.9,0 218.9,98 218.9,218.9 0,120.9 -98,218.9 -218.9,218.9 -120.9,0 -218.93,-98 -218.93,-218.9 0,-120.9 98.03,-218.9 218.93,-218.9"
       id="path16" />
  </g>
  <path
     style="fill:#ffffff;fill-rule:evenodd;stroke:#000000;stroke-width:4.90399981;stroke-opacity:0.31000001"
     inkscape:connector-curvature="0"
     d="m 253.04,7.859 c -135.42,0 -245.19,109.78 -245.19,245.19 0,135.42 109.78,245.19 245.19,245.19 135.42,0 245.19,-109.78 245.19,-245.19 0,-135.42 -109.78,-245.19 -245.19,-245.19 z m 0,26.297 c 120.9,0 218.9,98 218.9,218.9 0,120.9 -98,218.9 -218.9,218.9 -120.9,0 -218.93,-98 -218.93,-218.9 0,-120.9 98.03,-218.9 218.93,-218.9 z"
     id="path18" />
  <path
     style="fill:#ffffff;fill-rule:evenodd"
     inkscape:connector-curvature="0"
     d="m 256.44,139.47 c -31.02,0 -65.67,11.543 -72.969,49.906 -0.734,4.084 2.213,6.247 4.875,6.844 l 31.656,3.406 c 2.937,-0.138 5.106,-3.03 5.656,-5.969 2.707,-13.216 13.814,-19.594 26.25,-19.594 6.7,0 14.32,2.457 18.313,8.469 4.543,6.7 3.906,15.901 3.906,23.656 l 0,4.188 c -18.907,2.157 -43.63,3.542 -61.34,11.344 -20.421,8.811 -34.781,26.865 -34.781,53.34 0,33.912 21.402,50.844 48.844,50.844 23.22,0 35.884,-5.455 53.781,-23.719 5.966,8.581 7.889,12.756 18.719,21.75 2.432,1.285 5.531,1.146 7.688,-0.781 l 0.125,0.063 c 6.516,-5.782 18.315,-16.07 24.969,-21.625 2.662,-2.203 2.236,-5.751 0.125,-8.688 -5.966,-8.26 -12.313,-14.969 -12.313,-30.25 l 0,-50.813 c 0,-21.522 1.534,-41.3 -14.344,-56.12 -12.528,-12.02 -33.28,-16.25 -49.16,-16.25 m 17.688,97.09 0,7.03 c 0,12.711 0.331,23.336 -6.094,34.625 -5.186,9.178 -13.385,14.844 -22.563,14.844 -12.528,0 -19.813,-9.568 -19.813,-23.656 0,-27.809 24.881,-32.844 48.47,-32.844"
     id="path68" />
  <g
     style="fill:#ffffff;fill-rule:evenodd"
     id="g70">
    <path
       inkscape:connector-curvature="0"
       d="m 375.31,309.53 c -9.789,0.135 -21.353,2.324 -30.11,8.484 -2.707,1.881 -2.234,4.506 0.771,4.139 9.866,-1.17 31.836,-3.819 35.737,1.183 3.924,5.02 -4.353,25.716 -8.05,34.94 -1.124,2.799 1.281,3.911 3.805,1.8 16.451,-13.744 20.678,-42.537 17.329,-46.69 -1.675,-2.065 -9.699,-3.991 -19.488,-3.857"
       id="path72"
       style="fill:#ffffff" />
    <path
       inkscape:connector-curvature="0"
       d="m 118.69,315.03 c -2.4,-0.134 -3.642,2.598 -1.311,4.705 36.505,32.971 84.75,52.809 138.35,52.809 38.23,0 82.62,-12.05 113.25,-34.631 5.071,-3.763 0.738,-9.35 -4.448,-7.147 -34.33,14.57 -71.66,21.571 -105.59,21.571 -50.32,0 -99.03,-13.767 -138.42,-36.688 -0.645,-0.379 -1.272,-0.586 -1.825,-0.617"
       id="path74"
       style="fill:#ffffff" />
  </g>
</svg>
