<?xml version="1.0" encoding="UTF-8" standalone="no"?>
<svg
   xmlns:dc="http://purl.org/dc/elements/1.1/"
   xmlns:cc="http://creativecommons.org/ns#"
   xmlns:rdf="http://www.w3.org/1999/02/22-rdf-syntax-ns#"
   xmlns:svg="http://www.w3.org/2000/svg"
   xmlns="http://www.w3.org/2000/svg"
   xmlns:sodipodi="http://sodipodi.sourceforge.net/DTD/sodipodi-0.dtd"
   xmlns:inkscape="http://www.inkscape.org/namespaces/inkscape"
   height="512"
   viewBox="0 0 512 512"
   width="512"
   version="1.1"
   id="svg2"
   inkscape:version="0.91 r13725"
   sodipodi:docname="bluej.svg">
  <defs
     id="defs17" />
  <sodipodi:namedview
     pagecolor="#ffffff"
     bordercolor="#666666"
     borderopacity="1"
     objecttolerance="10"
     gridtolerance="10"
     guidetolerance="10"
     inkscape:pageopacity="0"
     inkscape:pageshadow="2"
     inkscape:window-width="1680"
     inkscape:window-height="1023"
     id="namedview15"
     showgrid="false"
     inkscape:zoom="1.0936547"
     inkscape:cx="189.32952"
     inkscape:cy="383.8244"
     inkscape:window-x="1920"
     inkscape:window-y="0"
     inkscape:window-maximized="1"
     inkscape:current-layer="svg2" />
  <metadata
     id="metadata28">
    <rdf:RDF>
      <cc:Work
         rdf:about="">
        <dc:format>image/svg+xml</dc:format>
        <dc:type
           rdf:resource="http://purl.org/dc/dcmitype/StillImage" />
        <dc:title></dc:title>
      </cc:Work>
    </rdf:RDF>
  </metadata>
  <path
     style="fill:#0063bc;fill-rule:evenodd;fill-opacity:0.67065871"
     inkscape:connector-curvature="0"
     d="m 471.95,253.05 c 0,120.9 -98.01,218.9 -218.9,218.9 -120.9,0 -218.9,-98.01 -218.9,-218.9 0,-120.9 98.01,-218.9 218.9,-218.9 120.9,0 218.9,98.01 218.9,218.9"
     id="path6" />
  <path
     style="fill-opacity:0.06700003;fill-rule:evenodd"
     inkscape:connector-curvature="0"
     d="M 256,1 C 115.17,1 1,115.17 1,256 1,396.83 115.17,511 256,511 396.83,511 511,396.83 511,256 511,115.17 396.83,1 256,1 m 8.827,44.931 c 120.9,0 218.9,98 218.9,218.9 0,120.9 -98,218.9 -218.9,218.9 -120.9,0 -218.93,-98 -218.93,-218.9 0,-120.9 98.03,-218.9 218.93,-218.9"
     id="path8" />
  <g
     style="fill-opacity:0.12900002;fill-rule:evenodd"
     id="g10">
    <path
       inkscape:connector-curvature="0"
       d="m 256,4.433 c -138.94,0 -251.57,112.63 -251.57,251.57 0,138.94 112.63,251.57 251.57,251.57 138.94,0 251.57,-112.63 251.57,-251.57 C 507.57,117.063 394.94,4.433 256,4.433 m 5.885,38.556 c 120.9,0 218.9,98 218.9,218.9 0,120.9 -98,218.9 -218.9,218.9 -120.9,0 -218.93,-98 -218.93,-218.9 0,-120.9 98.03,-218.9 218.93,-218.9"
       id="path12" />
    <path
       inkscape:connector-curvature="0"
       d="m 256,8.356 c -136.77,0 -247.64,110.87 -247.64,247.64 0,136.77 110.87,247.64 247.64,247.64 136.77,0 247.64,-110.87 247.64,-247.64 C 503.64,119.226 392.77,8.356 256,8.356 m 2.942,31.691 c 120.9,0 218.9,98 218.9,218.9 0,120.9 -98,218.9 -218.9,218.9 -120.9,0 -218.93,-98 -218.93,-218.9 0,-120.9 98.03,-218.9 218.93,-218.9"
       id="path14" />
  </g>
  <path
     style="fill:#ffffff;fill-rule:evenodd;stroke:#000000;stroke-width:4.90399981;stroke-opacity:0.31000001"
     inkscape:connector-curvature="0"
     d="m 253.04,7.859 c -135.42,0 -245.19,109.78 -245.19,245.19 0,135.42 109.78,245.19 245.19,245.19 135.42,0 245.19,-109.78 245.19,-245.19 0,-135.42 -109.78,-245.19 -245.19,-245.19 z m 0,26.297 c 120.9,0 218.9,98 218.9,218.9 0,120.9 -98,218.9 -218.9,218.9 -120.9,0 -218.93,-98 -218.93,-218.9 0,-120.9 98.03,-218.9 218.93,-218.9 z"
     id="path16" />
  <g
     transform="matrix(12.152702,0,0,12.152702,-45.710008,-60.383173)"
     id="g35">
    <g
       id="g37">
      <!-- color: #acd5ff -->
      <g
         id="g39">
        <path
           inkscape:connector-curvature="0"
           d="m 17.508,29.16 c 0.355,-0.59 0.68,-2.715 0.559,-3.934 -0.09,-0.926 -0.367,-1.609 -0.813,-2.027 -0.211,-0.195 -0.367,-0.281 -0.879,-0.48 -0.543,-0.211 -1.031,-0.527 -1.516,-0.98 l -0.402,-0.375 0.105,-0.25 c 0.059,-0.141 0.156,-0.504 0.219,-0.813 0.598,-3.074 1.73,-5 5.203,-6.551 0.742,0.145 2.332,-0.336 3.055,-0.488 1.563,-0.336 1.348,0.91 2.848,1.199 0.988,0.191 1.371,0.305 1.848,0.547 0.418,0.207 1.01,0.758 1.227,1.137 0.309,0.539 0.281,1.293 -0.121,3.273 -0.391,1.93 -0.383,2.063 0.262,4.172 0.484,1.59 1.461,2.637 1.496,3.434 -0.848,3.516 -2.707,5.664 -4.719,8.891 -3.18,0.262 -4.77,-0.164 -7.953,-0.141 1.891,-3.066 0.215,-3.969 -0.418,-6.613 m 0,0"
           style="fill:#ffffff;fill-opacity:1;fill-rule:nonzero;stroke:none"
           id="path41" />
        <path
           inkscape:connector-curvature="0"
           d="m 14.504,21.281 c 1.379,1.602 2.082,1.395 2.566,1.73 0.457,0.316 1.098,1.012 1.082,2.848 -0.016,1.863 -0.59,3.379 -0.645,3.379 -5.148,-4.16 -13.789,0.207 -8.184,-4.125 1.566,-1.016 3.01,-2.113 4.594,-3.293 m 0.586,-0.539"
           style="fill:#2d2d2d;fill-opacity:1;fill-rule:nonzero;stroke:none"
           id="path43" />
        <path
           inkscape:connector-curvature="0"
           d="m 19.984,13.75 c 0,0 0.855,0.734 2.371,1.477 2.152,1.059 3.371,4.508 3.25,7.379 -0.109,1.746 2.313,5.5 2.01,7.906 -0.492,3.887 -1.75,5.406 -1.75,5.406 0,0 5.625,-1.746 9.988,-2.273 2.777,-0.336 4.383,0.203 4.648,-0.723 -3.125,-7.01 -11.188,-14.32 -7.03,-16.84 0.379,-0.23 1.012,-0.133 1.453,-0.566 C 35.717,9.2 22.639,13.215 19.986,13.75 m 0,0"
           style="fill:#2e69b0;fill-opacity:1;fill-rule:nonzero;stroke:none"
           id="path45" />
        <path
           inkscape:connector-curvature="0"
           d="m 33.844,12.844 c -1.867,-0.113 -4.02,1.418 -5.75,2.938 -1.727,1.52 -3,3.063 -3,3.063 l -0.063,0.063 0,0.094 c 0,0 0.086,1.121 0.063,2.469 -0.023,1.348 -0.156,2.93 -0.563,3.75 -0.535,1.078 -1.098,1.961 -1.688,2.5 -0.203,0.184 -0.469,0.422 -0.656,0.625 -0.094,0.102 -0.168,0.199 -0.219,0.313 -0.012,0.027 -0.027,0.043 -0.031,0.094 -0.004,0.051 0.012,0.125 0.063,0.188 0.051,0.063 0.109,0.086 0.156,0.094 0.047,0.008 0.09,0.004 0.125,0 1.027,-0.18 2.094,-0.879 2.938,-1.531 0.844,-0.652 1.438,-1.281 1.438,-1.281 l 0.031,0 5.625,-7.313 0.031,-0.063 0,-0.063 c 0,0 0.035,-0.52 0.156,-1.094 0.059,-0.285 0.145,-0.602 0.25,-0.844 0.105,-0.242 0.25,-0.398 0.375,-0.469 0.41,-0.242 0.918,-0.387 1.281,-0.531 0.109,-0.043 0.195,-0.078 0.281,-0.125 0.086,-0.047 0.164,-0.125 0.219,-0.219 0.184,-0.313 0.086,-0.648 0.063,-0.875 -0.016,-0.156 -0.074,-0.324 -0.125,-0.469 -0.051,-0.145 -0.094,-0.25 -0.094,-0.25 0,0 -0.164,-0.395 -0.344,-0.625 -0.035,-0.047 -0.105,-0.129 -0.188,-0.219 -0.082,-0.09 -0.199,-0.207 -0.375,-0.219 m -12.719,5.563 c -0.234,0.023 -0.488,0.086 -0.719,0.188 -0.457,0.199 -0.82,0.531 -1.031,0.906 -0.211,0.375 -0.262,0.797 -0.094,1.188 0.168,0.391 0.523,0.68 0.938,0.781 0.414,0.102 0.918,0.043 1.375,-0.156 0.457,-0.199 0.82,-0.531 1.031,-0.906 0.211,-0.375 0.262,-0.828 0.094,-1.219 -0.168,-0.391 -0.523,-0.648 -0.938,-0.75 -0.207,-0.051 -0.422,-0.055 -0.656,-0.031 m 0,0"
           style="fill:#2d2d2d;fill-opacity:1;fill-rule:nonzero;stroke:none"
           id="path47" />
      </g>
    </g>
  </g>
</svg>
