<?xml version="1.0" encoding="UTF-8" standalone="no"?>
<svg
   xmlns:dc="http://purl.org/dc/elements/1.1/"
   xmlns:cc="http://creativecommons.org/ns#"
   xmlns:rdf="http://www.w3.org/1999/02/22-rdf-syntax-ns#"
   xmlns:svg="http://www.w3.org/2000/svg"
   xmlns="http://www.w3.org/2000/svg"
   xmlns:sodipodi="http://sodipodi.sourceforge.net/DTD/sodipodi-0.dtd"
   xmlns:inkscape="http://www.inkscape.org/namespaces/inkscape"
   height="512"
   viewBox="0 0 512 512"
   width="512"
   version="1.1"
   id="svg2"
   inkscape:version="0.91 r13725"
   sodipodi:docname="evolution-tasks.svg">
  <defs
     id="defs17" />
  <sodipodi:namedview
     pagecolor="#ffffff"
     bordercolor="#666666"
     borderopacity="1"
     objecttolerance="10"
     gridtolerance="10"
     guidetolerance="10"
     inkscape:pageopacity="0"
     inkscape:pageshadow="2"
     inkscape:window-width="1920"
     inkscape:window-height="1020"
     id="namedview15"
     showgrid="false"
     inkscape:zoom="6.3092818"
     inkscape:cx="118.86144"
     inkscape:cy="256"
     inkscape:window-x="0"
     inkscape:window-y="0"
     inkscape:window-maximized="1"
     inkscape:current-layer="svg2" />
  <metadata
     id="metadata98">
    <rdf:RDF>
      <cc:Work
         rdf:about="">
        <dc:format>image/svg+xml</dc:format>
        <dc:type
           rdf:resource="http://purl.org/dc/dcmitype/StillImage" />
        <dc:title></dc:title>
      </cc:Work>
    </rdf:RDF>
  </metadata>
  <path
     style="fill:#c83737;fill-rule:evenodd;fill-opacity:1"
     inkscape:connector-curvature="0"
     d="m 471.95,253.05 c 0,120.9 -98.01,218.91 -218.91,218.91 -120.9,0 -218.91,-98.01 -218.91,-218.91 0,-120.9 98.01,-218.91 218.91,-218.91 120.9,0 218.91,98.01 218.91,218.91"
     id="path32" />
  <path
     style="fill-opacity:0.06700003;fill-rule:evenodd"
     inkscape:connector-curvature="0"
     d="M 256,1 C 115.17,1 1,115.17 1,256 1,396.83 115.17,511 256,511 396.83,511 511,396.83 511,256 511,115.17 396.83,1 256,1 m 8.827,44.931 c 120.9,0 218.9,98 218.9,218.9 0,120.9 -98,218.9 -218.9,218.9 -120.9,0 -218.93,-98 -218.93,-218.9 0,-120.9 98.03,-218.9 218.93,-218.9"
     id="path34" />
  <g
     style="fill-opacity:0.12900002;fill-rule:evenodd"
     id="g36">
    <path
       inkscape:connector-curvature="0"
       d="M 256,4.43 C 117.06,4.43 4.43,117.06 4.43,256 4.43,394.94 117.06,507.57 256,507.57 394.94,507.57 507.57,394.94 507.57,256 507.57,117.06 394.94,4.43 256,4.43 m 5.885,38.556 c 120.9,0 218.9,98 218.9,218.9 0,120.9 -98,218.9 -218.9,218.9 -120.9,0 -218.93,-98 -218.93,-218.9 0,-120.9 98.03,-218.9 218.93,-218.9"
       id="path38" />
    <path
       inkscape:connector-curvature="0"
       d="M 256,8.36 C 119.23,8.36 8.36,119.23 8.36,256 8.36,392.77 119.23,503.64 256,503.64 392.77,503.64 503.64,392.77 503.64,256 503.64,119.23 392.77,8.36 256,8.36 m 2.942,31.691 c 120.9,0 218.9,98 218.9,218.9 0,120.9 -98,218.9 -218.9,218.9 -120.9,0 -218.93,-98 -218.93,-218.9 0,-120.9 98.03,-218.9 218.93,-218.9"
       id="path40" />
  </g>
  <path
     style="fill:#ffffff;fill-rule:evenodd;stroke:#000000;stroke-width:4.90399981;stroke-opacity:0.31000001"
     inkscape:connector-curvature="0"
     d="M 253.04,7.86 C 117.62,7.86 7.85,117.64 7.85,253.05 c 0,135.42 109.78,245.19 245.19,245.19 135.42,0 245.19,-109.78 245.19,-245.19 C 498.23,117.63 388.45,7.86 253.04,7.86 Z m 0,26.297 c 120.9,0 218.9,98 218.9,218.9 0,120.9 -98,218.9 -218.9,218.9 -120.9,0 -218.93,-98 -218.93,-218.9 0,-120.9 98.03,-218.9 218.93,-218.9 z"
     id="path42" />
  <path
     inkscape:connector-curvature="0"
     style="color:#000000;opacity:0.25"
     id="path11902"
     d="m 386.8783,120.62871 c -0.3,-0.01 -0.6,0.01 -0.91,0.03 -10.95,2.46 -18.69,11.58 -28.5,16.56 -20.86,14.46 -40.11,30.84 -58.12,48.54 l -8.47,-8.47 c -19.33,-13.43 -42.68,-20.7 -66.28,-20.57 -0.86,0.01 -1.72,0.01 -2.57,0.03 -44.93,0.55 -87.69,30.15 -104.22,71.94 -16.49,39.3 -8.73,87.53 19.66,119.5 1.92,2.28 3.94,4.47 6.04,6.57 l 115.46,115.46 c 117.1,-4.3 210.72,-100.57 210.72,-218.73 0,-21.08 -2.99,-41.47 -8.55,-60.77 l -66.83,-66.82 c -1.93,-1.93 -4.48,-3.2 -7.43,-3.27 z" />
  <path
     inkscape:connector-curvature="0"
     style="color:#000000;fill:#ffffff"
     id="path158"
     d="m 386.8783,120.62871 c -0.29811,-0.007 -0.60021,0.0134 -0.90625,0.0312 -10.949,2.4544 -18.694,11.574 -28.5,16.562 -50.386,34.924 -91.449,81.043 -128.06,130 -19.224,-8.8037 -35.876,-23.416 -56.219,-29.438 -9.3961,0.63625 -15.534,14.036 -7.9688,20.625 20.14,23.832 40.746,47.449 60.969,71.156 5.3549,4.4582 9.7234,13.592 17.938,11.344 8.0488,-1.4227 10.83,-9.732 13.656,-16.219 34.192,-69.245 80.692,-132.88 138.31,-184.5 5.3445,-7.3884 0.0226,-19.342 -9.2188,-19.562 z m -162.28,36.094 c -0.85094,0.005 -1.7111,0.007 -2.5625,0.0312 -44.931,0.54853 -87.695,30.143 -104.22,71.938 -16.494,39.3 -8.7294,87.529 19.656,119.5 27.343,32.38 73.415,47.116 114.62,36.812 42.648,-9.761 77.978,-46.141 86.281,-89.25 4.8944,-22.691 2.2051,-46.55 -6.6562,-67.844 -4.6919,6.1245 -9.2601,12.329 -13.719,18.625 9.6833,34.191 -1.2645,73.513 -27.938,97.125 -29.102,27.46 -75.826,33.218 -110.81,13.781 -34.218,-17.875 -55.084,-57.644 -50.156,-96.062 4.0232,-39.678 35.239,-74.5 74.094,-82.969 7.1717,-1.599 14.428,-2.4825 21.781,-2.4688 18.538,-0.2385 36.7,5.4713 52.125,15.406 4.5136,-4.7668 9.1108,-9.4583 13.781,-14.062 -19.325,-13.428 -42.681,-20.693 -66.281,-20.562 z" />
</svg>
