<?xml version="1.0" encoding="UTF-8" standalone="no"?>
<svg
   xmlns:dc="http://purl.org/dc/elements/1.1/"
   xmlns:cc="http://creativecommons.org/ns#"
   xmlns:rdf="http://www.w3.org/1999/02/22-rdf-syntax-ns#"
   xmlns:svg="http://www.w3.org/2000/svg"
   xmlns="http://www.w3.org/2000/svg"
   xmlns:sodipodi="http://sodipodi.sourceforge.net/DTD/sodipodi-0.dtd"
   xmlns:inkscape="http://www.inkscape.org/namespaces/inkscape"
   height="512"
   viewBox="0 0 512 512"
   width="512"
   version="1.1"
   id="svg2"
   inkscape:version="0.91 r13725"
   sodipodi:docname="focuswriter.svg">
  <defs
     id="defs45" />
  <sodipodi:namedview
     pagecolor="#ffffff"
     bordercolor="#666666"
     borderopacity="1"
     objecttolerance="10"
     gridtolerance="10"
     guidetolerance="10"
     inkscape:pageopacity="0"
     inkscape:pageshadow="2"
     inkscape:window-width="1920"
     inkscape:window-height="1025"
     id="namedview43"
     showgrid="false"
     inkscape:zoom="1.8396707"
     inkscape:cx="59.714018"
     inkscape:cy="256"
     inkscape:window-x="0"
     inkscape:window-y="0"
     inkscape:window-maximized="1"
     inkscape:current-layer="svg2" />
  <metadata
     id="metadata84">
    <rdf:RDF>
      <cc:Work
         rdf:about="">
        <dc:format>image/svg+xml</dc:format>
        <dc:type
           rdf:resource="http://purl.org/dc/dcmitype/StillImage" />
      </cc:Work>
    </rdf:RDF>
  </metadata>
  <path
     style="fill:#6d5fdf;fill-rule:evenodd;fill-opacity:1"
     inkscape:connector-curvature="0"
     d="m 471.95,253.05 c 0,120.9 -98.01,218.9 -218.9,218.9 -120.9,0 -218.9,-98.01 -218.9,-218.9 0,-120.9 98.01,-218.9 218.9,-218.9 120.9,0 218.9,98.01 218.9,218.9"
     id="path6" />
  <path
     style="fill-opacity:0.23500001"
     inkscape:connector-curvature="0"
     d="m 104.84,175.44 0,161.13 1,0 0,1 1,0 0,1 1,0 0,1 0.969,0 0,0.969 1,0 0,1 1,0 0,1 1,0 0,1 1,0 0,1 1,0 0,1 0.969,0 0,0.969 1,0 0,1 1,0 0,1 1,0 0,1 1,0 0,1 1,0 0,1 0.969,0 0,0.969 1,0 0,1 1,0 0,1 1,0 0,1 1,0 0,1 1,0 0,1 0.969,0 0,0.969 1,0 0,1 1,0 0,1 1,0 0,1 1,0 0,1 1,0 0,1 1,0 0,1 0.969,0 0,0.969 1,0 0,1 1,0 0,1 1,0 0,1 1,0 0,1 1,0 0,1 0.969,0 0,0.969 1,0 0,1 1,0 0,1 1,0 0,1 1,0 0,1 1,0 0,1 0.969,0 0,0.969 1,0 0,1 1,0 0,1 1,0 0,1 1,0 0,1 1,0 0,1 1,0 0,1 0.969,0 0,0.969 1,0 0,1 1,0 0,1 1,0 0,1 1,0 0,1 1,0 0,1 0.969,0 0,0.969 1,0 0,1 1,0 0,1 1,0 0,1 1,0 0,1 1,0 0,1 0.969,0 0,0.969 1,0 0,1 1,0 0,1 1,0 0,1 1,0 0,1 1,0 0,1 0.969,0 0,0.969 1,0 0,1 1,0 0,1 1,0 0,1 1,0 0,1 1,0 0,1 1,0 0,1 0.969,0 0,0.969 1,0 0,1 1,0 0,1 1,0 0,1 1,0 0,1 1,0 0,1 0.969,0 0,0.969 1,0 0,1 1,0 0,1 1,0 0,1 1,0 0,1 1,0 0,1 0.969,0 0,0.969 1,0 0,1 1,0 0,1 1,0 0,1 1,0 0,1 1,0 0,1 1,0 0,1 0.969,0 0,0.969 1,0 0,1 1,0 0,1 1,0 0,1 1,0 0,1 1,0 0,1 0.969,0 0,0.969 1,0 0,1 1,0 0,1 1,0 0,1 1,0 0,1 1,0 0,1 0.969,0 0,0.969 1,0 0,1 1,0 0,1 1,0 0,1 1,0 0,1 1,0 0,1 0.969,0 0,0.969 1,0 0,1 1,0 0,1 1,0 0,1 1,0 0,1 1,0 0,1 1,0 0,1 0.969,0 0,0.969 1,0 0,1 1,0 0,1 1,0 0,1 1,0 0,1 1,0 0,1 0.969,0 0,0.969 1,0 0,1 1,0 0,1 1,0 0,1 1,0 0,1 1,0 0,1 0.969,0 0,0.969 1,0 0,1 1,0 0,1 1,0 0,1 1,0 0,1 1,0 0,1 1,0 0,1 0.969,0 0,0.656 c 4.265,0.248 8.548,0.406 12.875,0.406 120.9,0 218.91,-98.01 218.91,-218.91 0,-4.01 -0.099,-8.01 -0.313,-11.969 l -0.031,0 c 0,-0.001 0.029,-0.053 0.031,-0.063 -0.016,-0.304 -0.045,-0.603 -0.063,-0.906 l -1,0 c 0.005,-0.018 0.281,-1 0.281,-1 l -1.281,0 c 0.005,-0.018 0.281,-1 0.281,-1 l -1.281,0 0.281,-1 -1.281,0 c 0.005,-0.018 0.281,-1 0.281,-1 l -1.281,0 c 0.005,-0.018 0.281,-1 0.281,-1 l -1.219,0 c 0.004,-0.016 0.25,-0.969 0.25,-0.969 l -1.281,0 c 0.005,-0.017 0.281,-1 0.281,-1 l -1.281,0 c 0.005,-0.017 0.281,-1 0.281,-1 l -1.281,0 0.281,-1 -1.281,0 0.281,-1 -1.281,0 c 0.005,-0.017 0.281,-1 0.281,-1 l -1.219,0 c 0.004,-0.016 0.25,-0.969 0.25,-0.969 l -1.281,0 c 0.004,-0.017 0.281,-1 0.281,-1 l -1.281,0 c 0.004,-0.017 0.281,-1 0.281,-1 l -1.281,0 c 0.004,-0.016 0.281,-1 0.281,-1 l -1.281,0 0.281,-1 -1.281,0 c 0.004,-0.016 0.281,-1 0.281,-1 l -1.219,0 c 0.004,-0.015 0.25,-0.969 0.25,-0.969 l -1.281,0 c 0.004,-0.016 0.281,-1 0.281,-1 l -1.281,0 c 0.004,-0.016 0.281,-1 0.281,-1 l -1.281,0 c 0.004,-0.016 0.281,-1 0.281,-1 l -1.281,0 0.281,-1 -1.281,0 c 0.004,-0.016 0.281,-1 0.281,-1 l -1.281,0 c 0.004,-0.016 0.281,-1 0.281,-1 l -1.219,0 c 0.004,-0.014 0.25,-0.969 0.25,-0.969 l -1.281,0 c 0.004,-0.015 0.281,-1 0.281,-1 l -1.281,0 c 0.004,-0.015 0.281,-1 0.281,-1 l -1.281,0 0.281,-1 -1.281,0 0.281,-1 -1.281,0 c 0.004,-0.015 0.281,-1 0.281,-1 l -1.219,0 c 0.004,-0.014 0.25,-0.969 0.25,-0.969 l -1.281,0 c 0.004,-0.015 0.281,-1 0.281,-1 l -1.281,0 c 0.004,-0.015 0.281,-1 0.281,-1 l -1.281,0 c 0.004,-0.015 0.281,-1 0.281,-1 l -1.281,0 0.281,-1 -1.281,0 c 0.004,-0.014 0.281,-1 0.281,-1 l -1.219,0 c 0.004,-0.013 0.25,-0.969 0.25,-0.969 l -1.281,0 c 0.004,-0.014 0.281,-1 0.281,-1 l -1.281,0 c 0.004,-0.014 0.281,-1 0.281,-1 l -1.281,0 c 0.004,-0.014 0.281,-1 0.281,-1 l -1.281,0 0.281,-1 -1.281,0 c 0.004,-0.014 0.281,-1 0.281,-1 l -1.281,0 c 0.004,-0.014 0.281,-1 0.281,-1 l -1.219,0 c 0.003,-0.013 0.25,-0.969 0.25,-0.969 l -1.281,0 c 0.004,-0.014 0.281,-1 0.281,-1 l -1.281,0 c 0.004,-0.014 0.281,-1 0.281,-1 l -1.281,0 0.281,-1 -1.281,0 0.281,-1 -1.281,0 c 0.004,-0.013 0.281,-1 0.281,-1 l -1.219,0 c 0.003,-0.012 0.25,-0.969 0.25,-0.969 l -1.281,0 c 0.004,-0.013 0.281,-1 0.281,-1 l -1.281,0 c 0.004,-0.013 0.281,-1 0.281,-1 l -1.281,0 c 0.004,-0.013 0.281,-1 0.281,-1 l -1.25,0 0.25,-1 -1.281,0 c 0.003,-0.013 0.281,-1 0.281,-1 l -1.219,0 c 0.003,-0.012 0.25,-0.969 0.25,-0.969 l -1.282,0 c 0.003,-0.013 0.281,-1 0.281,-1 l -1.282,0 c 0.003,-0.013 0.281,-1 0.281,-1 l -1.281,0 c 0.003,-0.013 0.281,-1 0.281,-1 l -1.281,0 0.281,-1 -1.281,0 c 0.003,-0.013 0.281,-1 0.281,-1 l -1.219,0 c 0.003,-0.012 0.25,-0.969 0.25,-0.969 l -1.282,0 c 0.003,-0.013 0.281,-1 0.281,-1 l -1.282,0 c 0.003,-0.012 0.281,-1 0.281,-1 l -1.281,0 c 0.003,-0.012 0.281,-1 0.281,-1 l -21.16,0 c -0.028,0.111 -7.548,29.06 -14.563,56.719 l -0.594,0 c -0.008,-0.028 -0.313,-1 -0.313,-1 l -0.688,0 c -0.008,-0.028 -0.313,-1 -0.313,-1 l -0.688,0 c -0.008,-0.028 -0.313,-1 -0.313,-1 l -0.688,0 c -0.008,-0.025 -0.281,-0.969 -0.281,-0.969 l -0.688,0 -0.313,-1 -0.688,0 -0.313,-1 -0.688,0 c -0.008,-0.027 -0.313,-1 -0.313,-1 l -0.688,0 c -0.008,-0.027 -0.313,-1 -0.313,-1 l -0.688,0 c -0.008,-0.027 -0.313,-1 -0.313,-1 l -0.688,0 c -0.007,-0.024 -0.281,-0.969 -0.281,-0.969 l -0.688,0 c -0.008,-0.026 -0.313,-1 -0.313,-1 l -0.688,0 c -0.008,-0.026 -0.313,-1 -0.313,-1 l -0.688,0 -0.313,-1 -0.688,0 -0.313,-1 -0.688,0 c -0.008,-0.026 -0.313,-1 -0.313,-1 l -0.688,0 c -0.008,-0.025 -0.313,-1 -0.313,-1 l -0.688,0 c -0.007,-0.023 -0.281,-0.969 -0.281,-0.969 l -0.688,0 c -0.008,-0.025 -0.313,-1 -0.313,-1 l -0.688,0 c -0.008,-0.025 -0.313,-1 -0.313,-1 l -0.688,0 c -0.007,-0.025 -0.313,-1 -0.313,-1 l -0.688,0 -0.313,-1 -0.688,0 -0.313,-1 -0.688,0 c -0.007,-0.023 -0.281,-0.969 -0.281,-0.969 l -0.688,0 c -0.007,-0.024 -0.313,-1 -0.313,-1 l -0.688,0 c -0.007,-0.024 -0.313,-1 -0.313,-1 l -0.688,0 c -0.007,-0.024 -0.313,-1 -0.313,-1 l -0.688,0 c -0.007,-0.024 -0.313,-1 -0.313,-1 l -0.688,0 c -0.007,-0.024 -0.313,-1 -0.313,-1 l -0.688,0 -0.281,-0.969 -0.688,0 -0.313,-1 -0.688,0 c -0.007,-0.023 -0.313,-1 -0.313,-1 l -0.688,0 c -0.007,-0.023 -0.313,-1 -0.313,-1 l -0.688,0 c -0.007,-0.023 -0.313,-1 -0.313,-1 l -0.688,0 c -0.007,-0.023 -0.313,-1 -0.313,-1 l -0.688,0 c -0.007,-0.023 -0.313,-1 -0.313,-1 l -0.688,0 c -0.006,-0.021 -0.281,-0.969 -0.281,-0.969 l -0.688,0 -0.313,-1 -0.688,0 -0.313,-1 -0.688,0 c -0.007,-0.022 -0.313,-1 -0.313,-1 l -0.688,0 c -0.007,-0.022 -0.313,-1 -0.313,-1 l -0.688,0 c -0.007,-0.022 -0.313,-1 -0.313,-1 l -0.688,0 c -0.006,-0.02 -0.281,-0.969 -0.281,-0.969 l -0.688,0 c -0.007,-0.022 -0.313,-1 -0.313,-1 l -0.688,0 c -0.007,-0.022 -0.313,-1 -0.313,-1 l -0.688,0 -0.313,-1 -0.688,0 c -0.006,-0.021 -0.313,-1 -0.313,-1 l -0.688,0 c -0.006,-0.021 -0.313,-1 -0.313,-1 l -0.688,0 c -0.006,-0.02 -0.281,-0.969 -0.281,-0.969 l -0.688,0 c -0.006,-0.021 -0.313,-1 -0.313,-1 l -0.688,0 c -0.006,-0.021 -0.313,-1 -0.313,-1 l -0.688,0 c -0.006,-0.021 -0.313,-1 -0.313,-1 l -0.688,0 c -0.006,-0.021 -0.313,-1 -0.313,-1 l -0.687,0 -0.313,-1 -0.687,0 c -0.006,-0.019 -0.281,-0.969 -0.281,-0.969 l -0.688,0 c -0.006,-0.02 -0.313,-1 -0.313,-1 l -0.688,0 c -0.006,-0.02 -0.313,-1 -0.313,-1 l -0.688,0 c -0.006,-0.02 -0.313,-1 -0.313,-1 l -20.969,0 c -0.031,0.106 -8.05,27.603 -15.875,54.38 -0.003,-0.012 -0.156,-0.656 -0.156,-0.656 l -0.719,0 c -0.007,-0.026 -0.25,-0.969 -0.25,-0.969 l -0.75,0 c -0.007,-0.027 -0.25,-1 -0.25,-1 l -0.75,0 c -0.007,-0.027 -0.25,-1 -0.25,-1 l -0.75,0 c -0.007,-0.027 -0.25,-1 -0.25,-1 l -0.75,0 -0.25,-1 -0.75,0 c -0.007,-0.026 -0.25,-1 -0.25,-1 l -0.719,0 c -0.006,-0.025 -0.25,-0.969 -0.25,-0.969 l -0.75,0 c -0.007,-0.026 -0.25,-1 -0.25,-1 l -0.75,0 c -0.007,-0.026 -0.25,-1 -0.25,-1 l -0.75,0 c -0.007,-0.026 -0.25,-1 -0.25,-1 l -0.75,0 c -0.006,-0.025 -0.25,-1 -0.25,-1 l -0.75,0 -0.25,-1 -0.75,0 c -0.006,-0.025 -0.25,-1 -0.25,-1 l -0.719,0 c -0.006,-0.024 -0.25,-0.969 -0.25,-0.969 l -0.75,0 c -0.006,-0.025 -0.25,-1 -0.25,-1 l -0.75,0 c -0.006,-0.025 -0.25,-1 -0.25,-1 l -0.75,0 -0.25,-1 -0.75,0 -0.25,-1 -0.75,0 -0.25,-1 -0.719,0 c -0.006,-0.023 -0.25,-0.969 -0.25,-0.969 l -0.75,0 -0.25,-1 -0.75,0 -0.25,-1 -0.75,0 -0.25,-1 -0.75,0 -0.25,-1 -0.75,0 c -0.006,-0.023 -0.25,-1 -0.25,-1 l -0.719,0 -0.25,-0.969 -0.75,0 c -0.006,-0.023 -0.25,-1 -0.25,-1 l -0.75,0 c -0.006,-0.023 -0.25,-1 -0.25,-1 l -0.75,0 c -0.006,-0.023 -0.25,-1 -0.25,-1 l -0.75,0 c -0.006,-0.023 -0.25,-1 -0.25,-1 l -0.75,0 c -0.006,-0.023 -0.25,-1 -0.25,-1 l -0.75,0 c -0.006,-0.022 -0.25,-1 -0.25,-1 l -0.719,0 -0.25,-0.969 -0.75,0 c -0.006,-0.022 -0.25,-1 -0.25,-1 l -0.75,0 c -0.006,-0.022 -0.25,-1 -0.25,-1 l -0.75,0 c -0.006,-0.022 -0.25,-1 -0.25,-1 l -0.75,0 c -0.006,-0.022 -0.25,-1 -0.25,-1 l -0.75,0 c -0.006,-0.022 -0.25,-1 -0.25,-1 l -0.719,0 c -0.005,-0.02 -0.25,-0.969 -0.25,-0.969 l -0.75,0 -0.25,-1 -0.75,0 c -0.005,-0.021 -0.25,-1 -0.25,-1 l -0.75,0 c -0.005,-0.021 -0.25,-1 -0.25,-1 l -0.75,0 c -0.005,-0.021 -0.25,-1 -0.25,-1 l -0.75,0 c -0.005,-0.021 -0.25,-1 -0.25,-1 l -0.719,0 -0.25,-0.969 -0.75,0 c -0.005,-0.021 -0.25,-1 -0.25,-1 l -0.75,0 -0.25,-1 -0.75,0 c -0.005,-0.021 -0.25,-1 -0.25,-1 l -0.75,0 c -0.005,-0.021 -0.25,-1 -0.25,-1 l -0.75,0 -0.25,-1 -0.719,0 c -0.005,-0.019 -0.25,-0.969 -0.25,-0.969 l -0.75,0 -0.25,-1 -0.75,0 -0.25,-1 -0.75,0 -0.25,-1 -21.16,0 c 0.006,0.021 2.505,9.539 2.875,10.938 0.034,0.128 0.244,0.861 0.281,1 l -0.281,0 0,-1 -1,0 0,-1 -0.969,0 0,-0.969 -1,0 0,-1 -1,0 0,-1 -1,0 0,-1 -1,0 0,-1 -1,0 0,-1 -0.969,0 0,-0.969 -1,0 0,-1 -1,0 0,-1 -1,0 0,-1 -90.03,0"
     id="path8" />
  <text
     style="font-size:208.33000183px;line-height:125%;font-family:'Gentium Book Basic';letter-spacing:0;word-spacing:0"
     sodipodi:linespacing="125%"
     letter-spacing="0"
     word-spacing="0"
     x="-1160.48"
     y="549.52002"
     line-height="125%"
     font-size="208.33"
     id="text10">
    <tspan
       x="-1160.48"
       y="549.52002"
       id="tspan12" />
  </text>
  <text
     style="font-size:75.69999695px;font-family:Arial;text-anchor:middle"
     x="28.533854"
     y="1642.2427"
     transform="scale(4.0128205,0.24920128)"
     font-size="75.7"
     id="text14" />
  <g
     style="fill-rule:evenodd"
     id="g16"
     transform="translate(0,-540.36)">
    <path
       style="fill-opacity:0.06700003"
       inkscape:connector-curvature="0"
       d="m 256,541.36 c -140.83,0 -255,114.17 -255,255 0,140.83 114.17,255 255,255 140.83,0 255,-114.17 255,-255 0,-140.83 -114.17,-255 -255,-255 m 8.827,44.931 c 120.9,0 218.9,98 218.9,218.9 0,120.9 -98,218.9 -218.9,218.9 -120.9,0 -218.93,-98 -218.93,-218.9 0,-120.9 98.03,-218.9 218.93,-218.9"
       id="path18" />
    <g
       style="fill-opacity:0.12900002"
       id="g20">
      <path
         inkscape:connector-curvature="0"
         d="M 256,544.79 C 117.06,544.79 4.43,657.42 4.43,796.36 4.43,935.3 117.06,1047.9 256,1047.9 394.94,1047.9 507.57,935.3 507.57,796.36 507.57,657.42 394.94,544.79 256,544.79 m 5.885,38.556 c 120.9,0 218.9,98 218.9,218.9 0,120.9 -98,218.9 -218.9,218.9 -120.9,0 -218.93,-98 -218.93,-218.9 0,-120.9 98.03,-218.9 218.93,-218.9"
         id="path22" />
      <path
         inkscape:connector-curvature="0"
         d="M 256,548.72 C 119.23,548.72 8.36,659.59 8.36,796.36 8.36,933.13 119.23,1044 256,1044 392.77,1044 503.64,933.13 503.64,796.36 503.64,659.59 392.77,548.72 256,548.72 m 2.942,31.691 c 120.9,0 218.9,98 218.9,218.9 0,120.9 -98,218.9 -218.9,218.9 -120.9,0 -218.93,-98 -218.93,-218.9 0,-120.9 98.03,-218.9 218.93,-218.9"
         id="path24" />
    </g>
    <path
       style="fill:#ffffff;stroke:#000000;stroke-width:4.90399981;stroke-opacity:0.31000001"
       inkscape:connector-curvature="0"
       d="M 253.04,548.22 C 117.62,548.22 7.85,658 7.85,793.41 c 0,135.42 109.78,245.19 245.19,245.19 135.42,0 245.19,-109.78 245.19,-245.19 0,-135.42 -109.78,-245.19 -245.19,-245.19 z m 0,26.297 c 120.9,0 218.9,98 218.9,218.9 0,120.9 -98,218.9 -218.9,218.9 -120.9,0 -218.93,-98 -218.93,-218.9 0,-120.9 98.03,-218.9 218.93,-218.9 z"
       id="path26" />
  </g>
  <text
     style="font-size:129.22999573px;line-height:125%;font-family:'Gentium Book Basic';letter-spacing:0;word-spacing:0"
     sodipodi:linespacing="125%"
     letter-spacing="0"
     word-spacing="0"
     x="729.64001"
     y="231.35997"
     line-height="125%"
     font-size="129.23"
     id="text28">
    <tspan
       x="729.64001"
       y="231.35997"
       id="tspan30" />
  </text>
  <text
     style="font-size:46.95399857px;font-family:Arial;text-anchor:middle"
     x="378.90805"
     y="579.25812"
     transform="scale(4.0128205,0.24920128)"
     font-size="46.954"
     id="text32" />
  <text
     style="font-size:129.22999573px;line-height:125%;font-family:'Gentium Book Basic';letter-spacing:0;word-spacing:0"
     sodipodi:linespacing="125%"
     letter-spacing="0"
     word-spacing="0"
     x="1310.91"
     y="151.35997"
     line-height="125%"
     font-size="129.23"
     id="text34">
    <tspan
       x="1310.91"
       y="151.35997"
       id="tspan36" />
  </text>
  <text
     style="font-size:46.95399857px;font-family:Arial;text-anchor:middle"
     x="523.75732"
     y="258.21997"
     transform="scale(4.0128205,0.24920128)"
     font-size="46.954"
     id="text38" />
  <text
     style="font-size:129.22999573px;line-height:125%;font-family:'Gentium Book Basic';letter-spacing:0;word-spacing:0"
     sodipodi:linespacing="125%"
     letter-spacing="0"
     word-spacing="0"
     x="239.33"
     y="-29.900009"
     line-height="125%"
     font-size="129.23"
     id="text40">
    <tspan
       x="239.33"
       y="-29.900009"
       id="tspan42" />
  </text>
  <text
     style="font-size:46.95399857px;font-family:Arial;text-anchor:middle"
     x="256.71869"
     y="-469.1264"
     transform="scale(4.0128205,0.24920128)"
     font-size="46.954"
     id="text44" />
  <text
     style="font-size:129.22999573px;line-height:125%;font-family:'Gentium Book Basic';letter-spacing:0;word-spacing:0"
     sodipodi:linespacing="125%"
     letter-spacing="0"
     word-spacing="0"
     x="1337.38"
     y="-246.37001"
     line-height="125%"
     font-size="129.23"
     id="text46">
    <tspan
       x="1337.38"
       y="-246.37001"
       id="tspan48" />
  </text>
  <text
     style="font-size:46.95399857px;font-family:Arial;text-anchor:middle"
     x="530.3573"
     y="-1337.802"
     transform="scale(4.0128205,0.24920128)"
     font-size="46.954"
     id="text50" />
  <text
     style="font-size:129.22999573px;line-height:125%;font-family:'Gentium Book Basic';letter-spacing:0;word-spacing:0"
     sodipodi:linespacing="125%"
     letter-spacing="0"
     word-spacing="0"
     x="1918.65"
     y="-326.37"
     line-height="125%"
     font-size="129.23"
     id="text52">
    <tspan
       x="1918.65"
       y="-326.37"
       id="tspan54" />
  </text>
  <text
     style="font-size:46.95399857px;font-family:Arial;text-anchor:middle"
     x="675.20654"
     y="-1658.8303"
     transform="scale(4.0128205,0.24920128)"
     font-size="46.954"
     id="text56" />
  <text
     style="font-size:129.22999573px;line-height:125%;font-family:'Gentium Book Basic';letter-spacing:0;word-spacing:0"
     sodipodi:linespacing="125%"
     letter-spacing="0"
     word-spacing="0"
     x="1529.53"
     y="-798.77002"
     line-height="125%"
     font-size="129.23"
     id="text58">
    <tspan
       x="1529.53"
       y="-798.77002"
       id="tspan60" />
  </text>
  <text
     style="font-size:46.95399857px;font-family:Arial;text-anchor:middle"
     x="578.237"
     y="-3554.4807"
     transform="scale(4.0128205,0.24920128)"
     font-size="46.954"
     id="text62" />
  <text
     style="font-size:129.22999573px;line-height:125%;font-family:'Gentium Book Basic';letter-spacing:0;word-spacing:0"
     sodipodi:linespacing="125%"
     letter-spacing="0"
     word-spacing="0"
     x="2110.79"
     y="-878.78003"
     line-height="125%"
     font-size="129.23"
     id="text64">
    <tspan
       x="2110.79"
       y="-878.78003"
       id="tspan66" />
  </text>
  <text
     style="font-size:46.95399857px;font-family:Arial;text-anchor:middle"
     x="723.0863"
     y="-3875.519"
     transform="scale(4.0128205,0.24920128)"
     font-size="46.954"
     id="text68" />
  <g
     style="line-height:125%;letter-spacing:0;word-spacing:0"
     letter-spacing="0"
     word-spacing="0"
     line-height="125%"
     id="g70"
     transform="translate(0,-540.36)">
    <text
       style="font-size:208.33000183px;font-family:'Gentium Book Basic'"
       font-size="208.33"
       x="277.98999"
       y="1076.3"
       id="text72">
      <tspan
         x="277.98999"
         y="1076.3"
         id="tspan74" />
    </text>
    <text
       style="font-size:225.72000122px;font-family:'Noto Sans Symbols';fill:#ffffff"
       x="82.908997"
       y="876.92999"
       font-size="225.72"
       id="text76">
      <tspan
         x="82.908997"
         y="876.92999"
         id="tspan78">FW</tspan>
    </text>
  </g>
</svg>
