<?xml version="1.0" encoding="UTF-8" standalone="no"?>
<svg
   xmlns:dc="http://purl.org/dc/elements/1.1/"
   xmlns:cc="http://creativecommons.org/ns#"
   xmlns:rdf="http://www.w3.org/1999/02/22-rdf-syntax-ns#"
   xmlns:svg="http://www.w3.org/2000/svg"
   xmlns="http://www.w3.org/2000/svg"
   xmlns:sodipodi="http://sodipodi.sourceforge.net/DTD/sodipodi-0.dtd"
   xmlns:inkscape="http://www.inkscape.org/namespaces/inkscape"
   height="512"
   viewBox="0 0 512 512"
   width="512"
   version="1.1"
   id="svg2"
   inkscape:version="0.91 r13725"
   sodipodi:docname="gimp-symbolic.svg">
  <defs
     id="defs17" />
  <sodipodi:namedview
     pagecolor="#888b89"
     bordercolor="#666666"
     borderopacity="1"
     objecttolerance="10"
     gridtolerance="10"
     guidetolerance="10"
     inkscape:pageopacity="0"
     inkscape:pageshadow="2"
     inkscape:window-width="1920"
     inkscape:window-height="1012"
     id="namedview15"
     showgrid="false"
     inkscape:zoom="1.0080118"
     inkscape:cx="-8.0859715"
     inkscape:cy="59.243557"
     inkscape:window-x="0"
     inkscape:window-y="13"
     inkscape:window-maximized="1"
     inkscape:current-layer="svg2"
     showguides="false" />
  <metadata
     id="metadata28">
    <rdf:RDF>
      <cc:Work
         rdf:about="">
        <dc:format>image/svg+xml</dc:format>
        <dc:type
           rdf:resource="http://purl.org/dc/dcmitype/StillImage" />
        <dc:title></dc:title>
      </cc:Work>
    </rdf:RDF>
  </metadata>
  <path
     inkscape:connector-curvature="0"
     style="fill:#ffffff"
     id="path78"
     d="m 170.46467,144.1337 2.14885,8.89378 1.71351,10.01385 c 1.08334,5.68054 1.95846,11.57372 2.58864,17.45578 1.03546,9.67204 1.40622,19.31625 0.94973,27.94616 -0.18705,3.31123 -0.35963,6.44877 -0.36186,6.74716 -1.83932,10.41356 -4.99913,21.38827 -12.43548,28.40933 -7.92958,6.98988 -18.8876,9.78227 -27.46517,10.67743 l -0.80944,-0.23937 c 0.14919,-8.17008 -1.65896,-16.74543 -5.66606,-24.75073 -11.0237,-22.01845 -34.353731,-31.38654 -52.123476,-20.93958 -17.769749,10.44586 -23.245415,36.76424 -12.220599,58.78714 10.020535,20.01435 30.217476,29.55502 47.152185,23.28662 l -0.19039,0.36073 c 11.69953,14.95621 27.493,28.59193 40.61656,39.08009 14.60772,11.63162 29.94359,22.0552 44.892,29.33679 20.83381,9.86243 43.45572,17.40233 63.83081,21.24353 19.64248,-0.0501 34.91266,-1.69235 48.8412,-5.95887 14.29485,-4.37786 27.17681,-11.52028 41.92258,-22.54287 14.02319,-13.84949 24.32318,-26.82163 32.91078,-40.8103 14.16792,-25.00569 22.11644,-45.19818 28.8803,-68.83217 5.97669,-21.07541 9.94705,-37.35433 13.08459,-56.29982 3.60962,-19.34409 3.92694,-40.96061 8.74793,-58.81831 -17.66287,17.56488 -18.85865,22.37919 -39.60561,43.00368 -12.14044,12.00571 -24.86763,21.89598 -40.99178,26.70807 -3.60962,-6.8585 -8.91828,-10.42693 -14.49638,-14.77807 -10.90011,-8.55085 -24.66165,-14.82928 -36.89784,-18.11824 -11.31875,-2.91597 -22.96372,-4.07502 -33.27263,-3.97926 -13.19927,0.55781 -25.31298,2.07981 -37.02031,6.26728 -7.00547,2.55858 -13.90739,5.71616 -21.2992,8.84146 l -18.26632,-13.30393 -12.57355,-8.84702 -12.59915,-8.84368" />
</svg>
