<?xml version="1.0" encoding="UTF-8" standalone="no"?>
<svg
   xmlns:dc="http://purl.org/dc/elements/1.1/"
   xmlns:cc="http://creativecommons.org/ns#"
   xmlns:rdf="http://www.w3.org/1999/02/22-rdf-syntax-ns#"
   xmlns:svg="http://www.w3.org/2000/svg"
   xmlns="http://www.w3.org/2000/svg"
   xmlns:sodipodi="http://sodipodi.sourceforge.net/DTD/sodipodi-0.dtd"
   xmlns:inkscape="http://www.inkscape.org/namespaces/inkscape"
   height="512"
   viewBox="0 0 512 512"
   width="512"
   version="1.1"
   id="svg2"
   inkscape:version="0.91 r13725"
   sodipodi:docname="gnome-tweak-tool.svg">
  <defs
     id="defs16" />
  <sodipodi:namedview
     pagecolor="#ffffff"
     bordercolor="#666666"
     borderopacity="1"
     objecttolerance="10"
     gridtolerance="10"
     guidetolerance="10"
     inkscape:pageopacity="0"
     inkscape:pageshadow="2"
     inkscape:window-width="1920"
     inkscape:window-height="1020"
     id="namedview14"
     showgrid="false"
     inkscape:zoom="1.5250549"
     inkscape:cx="256"
     inkscape:cy="256"
     inkscape:window-x="0"
     inkscape:window-y="0"
     inkscape:window-maximized="1"
     inkscape:current-layer="svg2" />
  <metadata
     id="metadata72">
    <rdf:RDF>
      <cc:Work
         rdf:about="">
        <dc:format>image/svg+xml</dc:format>
        <dc:type
           rdf:resource="http://purl.org/dc/dcmitype/StillImage" />
      </cc:Work>
    </rdf:RDF>
  </metadata>
  <path
     id="path4"
     d="m471.95 253.05c0 120.9-98.01 218.9-218.9 218.9-120.9 0-218.9-98.01-218.9-218.9 0-120.9 98.01-218.9 218.9-218.9 120.9 0 218.9 98.01 218.9 218.9"
     fill-rule="evenodd"
     fill="#87aade" />
  <path
     id="path6"
     fill-opacity="0.235"
     d="m171.94 177.06c-40.876 0-73.78 32.937-73.78 73.813v10.25c0 20.845 8.567 39.631 22.375 53.03 0.062 0.063 0.125 0.125 0.188 0.188 0.154 0.148 0.314 0.291 0.469 0.438 0.32 0.327 0.643 0.648 0.969 0.969 0.257 0.263 0.52 0.522 0.781 0.781 0.421 0.434 0.819 0.889 1.25 1.313 0.33 0.337 0.664 0.67 1 1 0.428 0.437 0.874 0.855 1.313 1.281 0.253 0.255 0.524 0.499 0.781 0.75 0.263 0.268 0.514 0.549 0.781 0.813 0.272 0.279 0.567 0.538 0.844 0.813 0.421 0.434 0.819 0.889 1.25 1.313 0.33 0.337 0.664 0.67 1 1 0.428 0.437 0.874 0.855 1.313 1.281 0.253 0.255 0.524 0.499 0.781 0.75 0.289 0.294 0.581 0.586 0.875 0.875 0.242 0.248 0.473 0.506 0.719 0.75 0.426 0.439 0.845 0.884 1.281 1.313 0.33 0.337 0.664 0.67 1 1 0.423 0.431 0.879 0.829 1.313 1.25 0.259 0.261 0.519 0.524 0.781 0.781 0.289 0.294 0.581 0.586 0.875 0.875 0.242 0.248 0.473 0.506 0.719 0.75 0.426 0.439 0.845 0.884 1.281 1.313 0.33 0.337 0.664 0.67 1 1 0.33 0.337 0.664 0.67 1 1 0.428 0.437 0.874 0.855 1.313 1.281 0.062 0.063 0.125 0.125 0.188 0.188 0.154 0.148 0.314 0.291 0.469 0.438 0.32 0.327 0.643 0.648 0.969 0.969 0.257 0.263 0.52 0.522 0.781 0.781 0.421 0.434 0.819 0.889 1.25 1.313 0.33 0.337 0.664 0.67 1 1 0.428 0.437 0.874 0.855 1.313 1.281 0.253 0.255 0.524 0.499 0.781 0.75 0.289 0.294 0.581 0.586 0.875 0.875 0.248 0.253 0.498 0.5 0.75 0.75 0.421 0.434 0.819 0.889 1.25 1.313 0.33 0.337 0.664 0.67 1 1 0.423 0.431 0.879 0.829 1.313 1.25 0.259 0.261 0.519 0.524 0.781 0.781 0.289 0.294 0.581 0.586 0.875 0.875 0.242 0.248 0.473 0.506 0.719 0.75 0.426 0.439 0.845 0.884 1.281 1.313 0.33 0.337 0.664 0.67 1 1 0.33 0.337 0.664 0.67 1 1 0.428 0.437 0.874 0.855 1.313 1.281 0.062 0.063 0.125 0.125 0.188 0.188 0.154 0.148 0.314 0.291 0.469 0.438 0.32 0.327 0.643 0.648 0.969 0.969 0.257 0.263 0.52 0.522 0.781 0.781 0.421 0.434 0.819 0.889 1.25 1.313 0.33 0.337 0.664 0.67 1 1 0.428 0.437 0.874 0.855 1.313 1.281 0.253 0.255 0.524 0.499 0.781 0.75 0.263 0.268 0.514 0.549 0.781 0.813 0.272 0.279 0.567 0.538 0.844 0.813 0.421 0.434 0.819 0.889 1.25 1.313 0.33 0.337 0.664 0.67 1 1 0.428 0.437 0.874 0.855 1.313 1.281 0.253 0.255 0.524 0.499 0.781 0.75 0.289 0.294 0.581 0.586 0.875 0.875 0.242 0.248 0.473 0.506 0.719 0.75 0.426 0.439 0.845 0.884 1.281 1.313 0.33 0.337 0.664 0.67 1 1 0.423 0.431 0.879 0.829 1.313 1.25 0.259 0.261 0.519 0.524 0.781 0.781 0.289 0.294 0.581 0.586 0.875 0.875 0.242 0.248 0.473 0.506 0.719 0.75 0.426 0.439 0.845 0.884 1.281 1.313 0.33 0.337 0.664 0.67 1 1 0.33 0.337 0.664 0.67 1 1 0.428 0.437 0.874 0.855 1.313 1.281 0.062 0.063 0.125 0.125 0.188 0.188 0.154 0.148 0.314 0.291 0.469 0.438 0.32 0.327 0.643 0.648 0.969 0.969 0.257 0.263 0.52 0.522 0.781 0.781 0.421 0.434 0.819 0.889 1.25 1.313 0.33 0.337 0.664 0.67 1 1 0.428 0.437 0.874 0.855 1.313 1.281 0.253 0.255 0.524 0.499 0.781 0.75 0.289 0.294 0.581 0.586 0.875 0.875 0.248 0.253 0.498 0.5 0.75 0.75 0.421 0.434 0.819 0.889 1.25 1.313 0.33 0.337 0.664 0.67 1 1 0.423 0.431 0.879 0.829 1.313 1.25 0.259 0.261 0.519 0.524 0.781 0.781 0.289 0.294 0.581 0.586 0.875 0.875 0.242 0.248 0.473 0.506 0.719 0.75 0.426 0.439 0.845 0.884 1.281 1.313 0.33 0.337 0.664 0.67 1 1 0.33 0.337 0.664 0.67 1 1 0.428 0.437 0.874 0.855 1.313 1.281 0.062 0.063 0.125 0.125 0.188 0.188 0.154 0.148 0.314 0.291 0.469 0.438 0.32 0.327 0.643 0.648 0.969 0.969 0.257 0.263 0.52 0.522 0.781 0.781 0.421 0.434 0.819 0.889 1.25 1.313 0.33 0.337 0.664 0.67 1 1 0.428 0.437 0.874 0.855 1.313 1.281 0.253 0.255 0.524 0.499 0.781 0.75 0.263 0.268 0.514 0.549 0.781 0.813 0.272 0.279 0.567 0.538 0.844 0.813 0.421 0.434 0.819 0.889 1.25 1.313 0.33 0.337 0.664 0.67 1 1 0.428 0.437 0.874 0.855 1.313 1.281 0.253 0.255 0.524 0.499 0.781 0.75 0.289 0.294 0.581 0.586 0.875 0.875 0.242 0.248 0.473 0.506 0.719 0.75 0.426 0.439 0.845 0.884 1.281 1.313 0.33 0.337 0.664 0.67 1 1 0.423 0.431 0.879 0.829 1.313 1.25 0.259 0.261 0.519 0.524 0.781 0.781 0.289 0.294 0.581 0.586 0.875 0.875 0.242 0.248 0.473 0.506 0.719 0.75 0.426 0.439 0.845 0.884 1.281 1.313 0.33 0.337 0.664 0.67 1 1 0.33 0.337 0.664 0.67 1 1 0.428 0.437 0.874 0.855 1.313 1.281 0.062 0.063 0.125 0.125 0.188 0.188 0.154 0.148 0.314 0.291 0.469 0.438 0.32 0.327 0.643 0.648 0.969 0.969 0.257 0.263 0.52 0.522 0.781 0.781 0.421 0.434 0.819 0.889 1.25 1.313 0.33 0.337 0.664 0.67 1 1 0.428 0.437 0.874 0.855 1.313 1.281 0.253 0.255 0.524 0.499 0.781 0.75 0.289 0.294 0.581 0.586 0.875 0.875 0.248 0.253 0.498 0.5 0.75 0.75 0.421 0.434 0.819 0.889 1.25 1.313 0.33 0.337 0.664 0.67 1 1 0.423 0.431 0.879 0.829 1.313 1.25 0.259 0.261 0.519 0.524 0.781 0.781 0.289 0.294 0.581 0.586 0.875 0.875 0.242 0.248 0.473 0.506 0.719 0.75 0.426 0.439 0.845 0.884 1.281 1.313 0.33 0.337 0.664 0.67 1 1 0.423 0.431 0.879 0.829 1.313 1.25 0.259 0.261 0.519 0.524 0.781 0.781 0.289 0.294 0.581 0.586 0.875 0.875 0.32 0.327 0.643 0.648 0.969 0.969 0.257 0.263 0.52 0.522 0.781 0.781 0.421 0.434 0.819 0.889 1.25 1.313 0.33 0.337 0.664 0.67 1 1 0.428 0.437 0.874 0.855 1.313 1.281 0.253 0.255 0.524 0.499 0.781 0.75 0.263 0.268 0.514 0.549 0.781 0.813 0.272 0.279 0.567 0.538 0.844 0.813 0.421 0.434 0.819 0.889 1.25 1.313 0.33 0.337 0.664 0.67 1 1 0.428 0.437 0.874 0.855 1.313 1.281 0.253 0.255 0.524 0.499 0.781 0.75 0.289 0.294 0.581 0.586 0.875 0.875 0.242 0.248 0.473 0.506 0.719 0.75 0.426 0.439 0.845 0.884 1.281 1.313 0.33 0.337 0.664 0.67 1 1 0.423 0.431 0.879 0.829 1.313 1.25 0.259 0.261 0.519 0.524 0.781 0.781 0.289 0.294 0.581 0.586 0.875 0.875 0.242 0.248 0.473 0.506 0.719 0.75 0.426 0.439 0.845 0.884 1.281 1.313 0.33 0.337 0.664 0.67 1 1 0.33 0.337 0.664 0.67 1 1 0.428 0.437 0.874 0.855 1.313 1.281 0.062 0.063 0.125 0.125 0.188 0.188 0.021 0.02 0.041 0.042 0.063 0.063 101.75-11.07 182.54-91.84 193.63-193.59-0.409-0.424-0.798-0.868-1.219-1.281-0.33-0.337-0.664-0.67-1-1-0.49-0.5-0.996-0.983-1.5-1.469-0.192-0.192-0.4-0.373-0.594-0.563-0.32-0.326-0.642-0.649-0.969-0.969-0.147-0.155-0.289-0.315-0.438-0.469-0.062-0.063-0.125-0.125-0.188-0.188-0.426-0.439-0.845-0.884-1.281-1.313-0.33-0.337-0.664-0.67-1-1-0.49-0.5-0.996-0.983-1.5-1.469-0.192-0.192-0.4-0.373-0.594-0.563-0.32-0.326-0.642-0.649-0.969-0.969-0.289-0.295-0.581-0.585-0.875-0.875-0.257-0.263-0.52-0.522-0.781-0.781-0.421-0.434-0.819-0.889-1.25-1.313-0.33-0.337-0.664-0.67-1-1-0.49-0.5-0.996-0.983-1.5-1.469-0.182-0.182-0.378-0.351-0.563-0.531-0.289-0.295-0.581-0.585-0.875-0.875-0.257-0.263-0.52-0.522-0.781-0.781-0.421-0.434-0.819-0.889-1.25-1.313-0.33-0.337-0.664-0.67-1-1-0.49-0.5-0.996-0.983-1.5-1.469-0.192-0.192-0.4-0.373-0.594-0.563-0.32-0.326-0.642-0.649-0.969-0.969-0.147-0.155-0.289-0.315-0.438-0.469-0.068-0.068-0.15-0.12-0.219-0.188-0.421-0.434-0.819-0.889-1.25-1.313-0.33-0.337-0.664-0.67-1-1-0.49-0.5-0.996-0.983-1.5-1.469-0.192-0.192-0.4-0.373-0.594-0.563-0.32-0.326-0.642-0.649-0.969-0.969-0.147-0.155-0.289-0.315-0.438-0.469-0.062-0.063-0.125-0.125-0.188-0.188-0.426-0.439-0.845-0.884-1.281-1.313-0.33-0.337-0.664-0.67-1-1-0.33-0.337-0.664-0.67-1-1-0.49-0.5-0.996-0.983-1.5-1.469-0.182-0.182-0.378-0.351-0.563-0.531-0.289-0.294-0.581-0.585-0.875-0.875-0.257-0.263-0.52-0.522-0.781-0.781-0.421-0.434-0.819-0.889-1.25-1.313-0.33-0.337-0.664-0.67-1-1-0.49-0.5-0.996-0.983-1.5-1.469-0.207-0.207-0.416-0.42-0.625-0.625-0.264-0.268-0.545-0.518-0.813-0.781-0.257-0.263-0.52-0.522-0.781-0.781-0.421-0.434-0.819-0.889-1.25-1.313-0.33-0.337-0.664-0.67-1-1-0.49-0.5-0.996-0.983-1.5-1.469-0.192-0.192-0.4-0.373-0.594-0.563-0.32-0.326-0.642-0.649-0.969-0.969-0.147-0.155-0.289-0.315-0.438-0.469-0.062-0.063-0.125-0.125-0.188-0.188-0.426-0.439-0.845-0.884-1.281-1.313-0.33-0.337-0.664-0.67-1-1-0.49-0.5-0.996-0.983-1.5-1.469-0.192-0.192-0.4-0.373-0.594-0.563-0.32-0.326-0.642-0.649-0.969-0.969-0.147-0.155-0.289-0.315-0.438-0.469-0.062-0.063-0.125-0.125-0.188-0.188-0.426-0.439-0.845-0.884-1.281-1.313-0.33-0.337-0.664-0.67-1-1-0.33-0.337-0.664-0.67-1-1-0.49-0.5-0.996-0.983-1.5-1.469-0.182-0.182-0.378-0.351-0.563-0.531-0.289-0.294-0.581-0.585-0.875-0.875-0.257-0.263-0.52-0.522-0.781-0.781-0.421-0.434-0.819-0.889-1.25-1.313-0.33-0.337-0.664-0.67-1-1-0.49-0.5-0.996-0.983-1.5-1.469-0.192-0.192-0.4-0.373-0.594-0.563-0.32-0.326-0.642-0.649-0.969-0.969-0.147-0.155-0.289-0.315-0.438-0.469-0.068-0.068-0.15-0.12-0.219-0.188-0.421-0.434-0.819-0.889-1.25-1.313-0.33-0.337-0.664-0.67-1-1-0.49-0.5-0.996-0.983-1.5-1.469-0.192-0.192-0.4-0.373-0.594-0.563-0.32-0.326-0.642-0.649-0.969-0.969-0.147-0.155-0.289-0.315-0.438-0.469-0.062-0.063-0.125-0.125-0.188-0.188-0.426-0.439-0.845-0.884-1.281-1.313-0.33-0.337-0.664-0.67-1-1-0.33-0.337-0.664-0.67-1-1-13.373-13.639-32.03-22.06-52.719-22.06h-168.12"
     color="#000000" />
  <g
     id="g8"
     fill-rule="evenodd">
    <path
       id="path10"
       fill-opacity="0.067"
       d="m256 1c-140.83 0-255 114.17-255 255s114.17 255 255 255 255-114.17 255-255-114.17-255-255-255m8.827 44.931c120.9 0 218.9 98 218.9 218.9s-98 218.9-218.9 218.9-218.93-98-218.93-218.9 98.03-218.9 218.93-218.9" />
    <g
       id="g12"
       fill-opacity="0.129">
      <path
         id="path14"
         d="m256 4.433c-138.94 0-251.57 112.63-251.57 251.57s112.63 251.57 251.57 251.57 251.57-112.63 251.57-251.57-112.63-251.57-251.57-251.57m5.885 38.556c120.9 0 218.9 98 218.9 218.9s-98 218.9-218.9 218.9-218.93-98-218.93-218.9 98.03-218.9 218.93-218.9" />
      <path
         id="path16"
         d="m256 8.356c-136.77 0-247.64 110.87-247.64 247.64s110.87 247.64 247.64 247.64 247.64-110.87 247.64-247.64-110.87-247.64-247.64-247.64m2.942 31.691c120.9 0 218.9 98 218.9 218.9s-98 218.9-218.9 218.9-218.93-98-218.93-218.9 98.03-218.9 218.93-218.9" />
    </g>
    <path
       id="path18"
       d="m253.04 7.859c-135.42 0-245.19 109.78-245.19 245.19 0 135.42 109.78 245.19 245.19 245.19 135.42 0 245.19-109.78 245.19-245.19 0-135.42-109.78-245.19-245.19-245.19zm0 26.297c120.9 0 218.9 98 218.9 218.9s-98 218.9-218.9 218.9-218.93-98-218.93-218.9 98.03-218.9 218.93-218.9z"
       stroke-opacity="0.31"
       stroke="#000"
       stroke-width="4.904"
       fill="#fff" />
  </g>
  <path
     inkscape:connector-curvature="0"
     d="m 171.27886,175.34637 c -40.876,0 -73.779299,32.9365 -73.779299,73.8125 l 0,10.25 c 0,40.876 32.905299,73.8125 73.779299,73.8125 l 168.13086,0 c 40.876,0 73.7793,-32.9365 73.7793,-73.8125 l 0,-10.25 c 0,-40.876 -32.9053,-73.8125 -73.7793,-73.8125 l -168.12109,0 -0.01,0 z m 53.99805,11.63476 c 4.34121,0.11837 7.95662,1.66192 9.5293,4.70899 2.92436,5.65478 -1.00577,15.64096 -9.56446,24.72461 -7.92294,8.38305 -16.51423,12.5053 -21.22851,10.03906 -2.53142,-1.33383 -5.17466,-5.60328 -5.83203,-9.10352 -1.27381,-6.80879 3.47811,-18.9866 9.33008,-23.79101 4.77607,-3.91088 10.69599,-6.31255 15.86328,-6.54297 0.64592,-0.041 1.28217,-0.0521 1.90234,-0.0352 z m -44.12695,5.40039 c 4.38538,-0.002 6.95412,2.90648 7.69922,8.86524 0.91129,7.29187 -3.48623,18.18709 -8.16602,19.83984 -2.82513,0.97712 -2.87979,1.08959 -5.13086,0 -3.02733,-1.46122 -5.35719,-7.39598 -5.36719,-13.99023 -0.0277,-9.64144 3.77592,-14.71485 10.96485,-14.71485 z m 153.13867,3.9336 c 32.02,0 57.9707,25.95275 57.9707,57.96875 0,32.02 -25.9547,57.96875 -57.9707,57.96875 -32.02,0 -57.96875,-25.95275 -57.96875,-57.96875 0,-32.02 25.95275,-57.96875 57.96875,-57.96875 z m -180.8457,5.67382 c 3.75027,0.0157 7.19349,4.22006 8.57812,11.7129 0.96839,5.24098 0.0763,10.02133 -2.79883,13.06054 -2.65416,2.9587 -4.76841,2.7581 -7.69922,-0.30859 -3.91843,-4.13602 -5.34183,-7.30515 -5.36523,-13.08399 -0.0313,-4.88616 0.003,-6.27437 2.56641,-8.86328 1.27154,-1.26063 2.61973,-2.19527 3.96484,-2.32422 l 0,-0.14062 c 0.25223,-0.0365 0.50389,-0.0538 0.75391,-0.0527 z m -20.03125,17.60938 c 3.92344,-0.0908 7.75786,3.86841 9.24609,10.56641 2.23091,9.88177 -3.03814,15.30202 -9.56445,9.55859 -5.46736,-4.77917 -7.87763,-14.27554 -4.4336,-17.70117 1.31237,-1.31769 2.57122,-2.20082 3.9668,-2.35156 0.26168,-0.0425 0.52359,-0.0662 0.78516,-0.0723 z m 59.16992,12.67773 c 13.86404,0.2462 23.50511,5.41771 24.49609,14.23633 0.95905,8.50018 -5.49536,16.20626 -24.26367,28.91602 -13.32324,9.00791 -18.66211,13.95216 -18.66211,17.24414 0,4.78548 5.92024,9.3457 11.66406,9.3457 3.62392,0 5.39533,-1.95929 6.99805,-7.47461 2.12202,-7.28907 6.46087,-9.74183 16.79687,-9.80273 7.23994,-0.0447 9.46527,1.48968 9.79883,7.24023 0.19478,3.36028 -0.12224,5.08868 -2.09961,9.10938 -3.24141,6.58618 -10.81426,14.17688 -17.49609,17.49023 -4.55939,2.42534 -5.99716,2.63861 -13.06445,2.79492 -6.16496,0.19538 -8.80345,-0.0665 -12.13086,-1.16796 -6.41705,-2.14964 -10.26303,-4.44164 -16.56446,-9.5586 -16.91308,-13.77248 -25.78803,-33.88548 -20.99609,-48.07031 1.97997,-5.831 4.31567,-9.62394 8.39844,-13.75 7.089,-7.13102 18.14469,-12.34845 31.96093,-15.16602 5.36342,-1.18463 10.54263,-1.44442 15.16407,-1.38672 z"
     id="path66"
     style="fill:#ffffff;fill-opacity:1" />
</svg>
