<?xml version="1.0" encoding="UTF-8" standalone="no"?>
<svg
   xmlns:osb="http://www.openswatchbook.org/uri/2009/osb"
   xmlns:dc="http://purl.org/dc/elements/1.1/"
   xmlns:cc="http://creativecommons.org/ns#"
   xmlns:rdf="http://www.w3.org/1999/02/22-rdf-syntax-ns#"
   xmlns:svg="http://www.w3.org/2000/svg"
   xmlns="http://www.w3.org/2000/svg"
   xmlns:sodipodi="http://sodipodi.sourceforge.net/DTD/sodipodi-0.dtd"
   xmlns:inkscape="http://www.inkscape.org/namespaces/inkscape"
   viewBox="0 0 512 512"
   id="svg2"
   version="1.1"
   inkscape:version="0.91 r13725"
   sodipodi:docname="hitori.svg">
  <metadata
     id="metadata26">
    <rdf:RDF>
      <cc:Work
         rdf:about="">
        <dc:format>image/svg+xml</dc:format>
        <dc:type
           rdf:resource="http://purl.org/dc/dcmitype/StillImage" />
        <dc:title></dc:title>
      </cc:Work>
    </rdf:RDF>
  </metadata>
  <defs
     id="defs24">
    <linearGradient
       id="linearGradient5657"
       osb:paint="solid">
      <stop
         style="stop-color:#ffffff;stop-opacity:1;"
         offset="0"
         id="stop5659" />
    </linearGradient>
    <clipPath
       clipPathUnits="userSpaceOnUse"
       id="clipPath5910">
      <g
         transform="translate(-0.87894558,0)"
         id="g5912">
        <rect
           id="rect5914"
           style="fill:#5e5e5e;fill-opacity:1;stroke:none"
           y="189.39189"
           x="121.22401"
           height="11.132596"
           width="267.37967" />
        <rect
           id="rect5916"
           style="fill:#5e5e5e;fill-opacity:1;stroke:none"
           width="267.37967"
           height="11.132596"
           x="121.22401"
           y="256.22696" />
        <rect
           id="rect5918"
           style="fill:#5e5e5e;fill-opacity:1;stroke:none"
           y="323.10147"
           x="121.22401"
           height="11.132596"
           width="267.37967" />
        <rect
           id="rect5920"
           style="fill:#5e5e5e;fill-opacity:1;stroke:none"
           width="267.37967"
           height="11.132596"
           x="-389.93652"
           y="-188.05905"
           transform="matrix(0,-1,-1,0,0,0)" />
        <rect
           id="rect5922"
           style="fill:#5e5e5e;fill-opacity:1;stroke:none"
           transform="matrix(0,-1,-1,0,0,0)"
           y="-254.89412"
           x="-389.93652"
           height="11.132596"
           width="267.37967" />
        <rect
           id="rect5924"
           style="fill:#5e5e5e;fill-opacity:1;stroke:none"
           width="267.37967"
           height="11.132596"
           x="-389.93652"
           y="-321.76865"
           transform="matrix(0,-1,-1,0,0,0)" />
      </g>
    </clipPath>
  </defs>
  <sodipodi:namedview
     pagecolor="#ffffff"
     bordercolor="#666666"
     borderopacity="1"
     objecttolerance="10"
     gridtolerance="10"
     guidetolerance="10"
     inkscape:pageopacity="0"
     inkscape:pageshadow="2"
     inkscape:window-width="1920"
     inkscape:window-height="1027"
     id="namedview22"
     showgrid="false"
     inkscape:zoom="0.84277344"
     inkscape:cx="-98.383085"
     inkscape:cy="291.96495"
     inkscape:window-x="0"
     inkscape:window-y="0"
     inkscape:window-maximized="1"
     inkscape:current-layer="svg2" />
  <path
     style="fill:#89fb8d;fill-rule:evenodd;fill-opacity:1"
     inkscape:connector-curvature="0"
     id="path6"
     d="m 471.95,253.05 c 0,120.9 -98.01,218.91 -218.91,218.91 -120.9,0 -218.91,-98.01 -218.91,-218.91 0,-120.9 98.01,-218.91 218.91,-218.91 120.9,0 218.91,98.01 218.91,218.91" />
  <path
     style="fill-opacity:0.06700003;fill-rule:evenodd"
     inkscape:connector-curvature="0"
     id="path8"
     d="M 256,1 C 115.17,1 1,115.17 1,256 1,396.83 115.17,511 256,511 396.83,511 511,396.83 511,256 511,115.17 396.83,1 256,1 m 8.827,44.931 c 120.9,0 218.9,98 218.9,218.9 0,120.9 -98,218.9 -218.9,218.9 -120.9,0 -218.93,-98 -218.93,-218.9 0,-120.9 98.03,-218.9 218.93,-218.9" />
  <g
     style="fill-opacity:0.12900002;fill-rule:evenodd"
     id="g10">
    <path
       inkscape:connector-curvature="0"
       id="path12"
       d="M 256,4.43 C 117.06,4.43 4.43,117.06 4.43,256 4.43,394.94 117.06,507.57 256,507.57 394.94,507.57 507.57,394.94 507.57,256 507.57,117.06 394.94,4.43 256,4.43 m 5.885,38.556 c 120.9,0 218.9,98 218.9,218.9 0,120.9 -98,218.9 -218.9,218.9 -120.9,0 -218.93,-98 -218.93,-218.9 0,-120.9 98.03,-218.9 218.93,-218.9" />
    <path
       inkscape:connector-curvature="0"
       id="path14"
       d="M 256,8.36 C 119.23,8.36 8.36,119.23 8.36,256 8.36,392.77 119.23,503.64 256,503.64 392.77,503.64 503.64,392.77 503.64,256 503.64,119.23 392.77,8.36 256,8.36 m 2.942,31.691 c 120.9,0 218.9,98 218.9,218.9 0,120.9 -98,218.9 -218.9,218.9 -120.9,0 -218.93,-98 -218.93,-218.9 0,-120.9 98.03,-218.9 218.93,-218.9" />
  </g>
  <path
     style="fill:#ffffff;fill-rule:evenodd;stroke:#000000;stroke-width:4.90399981;stroke-opacity:0.31000001"
     inkscape:connector-curvature="0"
     id="path16"
     d="M 253.04,7.86 C 117.62,7.86 7.85,117.64 7.85,253.05 c 0,135.42 109.78,245.19 245.19,245.19 135.42,0 245.19,-109.78 245.19,-245.19 C 498.23,117.63 388.45,7.86 253.04,7.86 m 0,26.297 c 120.9,0 218.9,98 218.9,218.9 0,120.9 -98,218.9 -218.9,218.9 -120.9,0 -218.93,-98 -218.93,-218.9 0,-120.9 98.03,-218.9 218.93,-218.9 z" />
  <path
     d="m 253.6478,122.59779 -10.01523,53.37482 -56.02336,-53.50189 -5.29039,36.09346 -2.77421,40.90393 -59.63997,0.13243 61.08901,58.0728 -61.20059,8.59875 55.67462,52.32918 3.75931,7.67154 -58.75403,8.19481 59.54506,44.03565 -3.96995,11.42734 L 286.275,469.452 c 105.13,-16.01 185.67,-106.8 185.67,-216.4 0,-2.288 -0.046,-4.565 -0.115,-6.836 -28.43432,-24.43574 -134.40998,-108.21075 -150.34019,-121.95131 -14.26003,2.6472 -6.79544,30.33615 -6.46084,50.73018"
     id="path18"
     inkscape:connector-curvature="0"
     style="opacity:0.25"
     sodipodi:nodetypes="ccccccccccccccsccc" />
  <path
     style="fill:#ffffff;fill-opacity:1;stroke:none"
     mask="none"
     clip-path="url(#clipPath5910)"
     d="M 110.05273 111.38477 L 110.05273 401.06836 L 399.73633 401.06836 L 399.73633 111.38477 L 110.05273 111.38477 z "
     id="rect31" />
</svg>
