<?xml version="1.0" encoding="UTF-8" standalone="no"?>
<svg
   xmlns:dc="http://purl.org/dc/elements/1.1/"
   xmlns:cc="http://creativecommons.org/ns#"
   xmlns:rdf="http://www.w3.org/1999/02/22-rdf-syntax-ns#"
   xmlns:svg="http://www.w3.org/2000/svg"
   xmlns="http://www.w3.org/2000/svg"
   xmlns:sodipodi="http://sodipodi.sourceforge.net/DTD/sodipodi-0.dtd"
   xmlns:inkscape="http://www.inkscape.org/namespaces/inkscape"
   height="512"
   viewBox="0 0 512 512"
   width="512"
   version="1.1"
   id="svg2"
   inkscape:version="0.91 r13725"
   sodipodi:docname="libreoffice-math.svg">
  <defs
     id="defs17" />
  <sodipodi:namedview
     pagecolor="#ffffff"
     bordercolor="#666666"
     borderopacity="1"
     objecttolerance="10"
     gridtolerance="10"
     guidetolerance="10"
     inkscape:pageopacity="0"
     inkscape:pageshadow="2"
     inkscape:window-width="1680"
     inkscape:window-height="991"
     id="namedview15"
     showgrid="false"
     inkscape:zoom="1.2867932"
     inkscape:cx="167.42673"
     inkscape:cy="43.220366"
     inkscape:window-x="0"
     inkscape:window-y="0"
     inkscape:window-maximized="1"
     inkscape:current-layer="svg2" />
  <metadata
     id="metadata28">
    <rdf:RDF>
      <cc:Work
         rdf:about="">
        <dc:format>image/svg+xml</dc:format>
        <dc:type
           rdf:resource="http://purl.org/dc/dcmitype/StillImage" />
        <dc:title></dc:title>
      </cc:Work>
    </rdf:RDF>
  </metadata>
  <path
     style="fill:#9f3860;fill-rule:evenodd;fill-opacity:1"
     inkscape:connector-curvature="0"
     d="m 471.95,253.05 c 0,120.9 -98.01,218.9 -218.9,218.9 -120.9,0 -218.9,-98.01 -218.9,-218.9 0,-120.9 98.01,-218.9 218.9,-218.9 120.9,0 218.9,98.01 218.9,218.9"
     id="path6" />
  <path
     inkscape:connector-curvature="0"
     style="color:#000000;fill-opacity:0.23500001"
     id="path6-3"
     d="m 218.34593,147.46667 c -19.893,0.705 -32.789,1.737 -42.906,5.625 -10.118,3.888 -16.68,11.144 -22.06,21.406 l -0.031,0.031 c -0.064,0.123 -16.406,31.688 -16.406,31.688 -0.911,1.759 -0.867,3.862 0.094,5.594 0.386,0.697 0.892,1.302 1.5,1.781 0.282,0.36 0.616,0.655 0.969,0.938 0.3,0.392 0.649,0.729 1.031,1.031 0.301,0.385 0.65,0.735 1.031,1.031 0.295,0.371 0.63,0.713 1,1 0.299,0.375 0.625,0.71 1,1 0.284,0.357 0.583,0.69 0.938,0.969 0.292,0.372 0.633,0.711 1,1 0.291,0.371 0.634,0.68 1,0.969 0.301,0.385 0.65,0.735 1.031,1.031 0.295,0.371 0.63,0.713 1,1 0.295,0.371 0.63,0.713 1,1 0.285,0.359 0.582,0.688 0.938,0.969 0.292,0.372 0.633,0.711 1,1 0.291,0.371 0.634,0.68 1,0.969 0.301,0.385 0.65,0.735 1.031,1.031 0.295,0.371 0.63,0.713 1,1 0.295,0.371 0.63,0.713 1,1 0.294,0.37 0.6,0.713 0.969,1 0.287,0.363 0.61,0.686 0.969,0.969 0.282,0.36 0.616,0.655 0.969,0.938 0.3,0.392 0.649,0.729 1.031,1.031 0.301,0.385 0.65,0.735 1.031,1.031 0.295,0.371 0.63,0.713 1,1 0.294,0.37 0.6,0.713 0.969,1 0.287,0.363 0.61,0.686 0.969,0.969 0.292,0.372 0.633,0.711 1,1 0.29,0.369 0.636,0.681 1,0.969 0.301,0.385 0.65,0.735 1.031,1.031 0.295,0.371 0.63,0.713 1,1 0.286,0.359 0.613,0.688 0.969,0.969 0.291,0.371 0.603,0.712 0.969,1 0.292,0.372 0.633,0.711 1,1 0.291,0.371 0.634,0.68 1,0.969 0.301,0.385 0.65,0.735 1.031,1.031 0.295,0.371 0.63,0.713 1,1 0.295,0.371 0.63,0.713 1,1 0.285,0.359 0.582,0.688 0.938,0.969 0.292,0.372 0.633,0.711 1,1 0.291,0.371 0.634,0.68 1,0.969 0.291,0.371 0.634,0.711 1,1 0.301,0.385 0.65,0.735 1.031,1.031 0.295,0.371 0.63,0.713 1,1 0.294,0.37 0.6,0.713 0.969,1 0.287,0.363 0.61,0.686 0.969,0.969 0.282,0.36 0.616,0.655 0.969,0.938 0.3,0.392 0.649,0.729 1.031,1.031 0.301,0.385 0.65,0.735 1.031,1.031 0.295,0.371 0.63,0.713 1,1 0.299,0.375 0.625,0.71 1,1 0.284,0.357 0.583,0.69 0.938,0.969 0.292,0.372 0.633,0.711 1,1 0.291,0.371 0.634,0.68 1,0.969 0.301,0.385 0.65,0.735 1.031,1.031 0.295,0.371 0.63,0.713 1,1 -5.191,17.564 -13,36.667 -25.813,59.13 -0.133,0.239 -0.277,0.495 -0.375,0.75 -2.78,6.997 -3.067,13.635 -1.063,19.13 1.128,3.088 2.974,5.709 5.25,7.781 0.325,0.341 0.654,0.685 1,1 0.323,0.339 0.656,0.686 1,1 0.323,0.339 0.656,0.686 1,1 0.323,0.339 0.624,0.655 0.969,0.969 0.331,0.348 0.647,0.679 1,1 0.325,0.341 0.654,0.685 1,1 0.325,0.341 0.654,0.685 1,1 0.323,0.339 0.656,0.686 1,1 0.323,0.339 0.656,0.686 1,1 0.323,0.339 0.656,0.686 1,1 0.323,0.339 0.624,0.655 0.969,0.969 0.325,0.341 0.654,0.685 1,1 0.325,0.341 0.654,0.685 1,1 0.325,0.341 0.654,0.685 1,1 0.323,0.339 0.656,0.686 1,1 0.323,0.339 0.656,0.686 1,1 0.344,0.36 0.664,0.7 1.031,1.031 0.309,0.322 0.609,0.639 0.938,0.938 0.325,0.341 0.654,0.685 1,1 0.325,0.341 0.654,0.685 1,1 0.323,0.339 0.656,0.686 1,1 0.323,0.339 0.656,0.686 1,1 0.323,0.339 0.624,0.655 0.969,0.969 0.331,0.348 0.647,0.679 1,1 0.325,0.341 0.654,0.685 1,1 0.325,0.341 0.654,0.685 1,1 0.323,0.339 0.656,0.686 1,1 0.323,0.339 0.656,0.686 1,1 0.194,0.204 0.392,0.399 0.594,0.594 0.442,0.491 0.891,0.934 1.375,1.375 0.325,0.341 0.654,0.685 1,1 0.325,0.341 0.654,0.685 1,1 0.323,0.339 0.656,0.686 1,1 0.323,0.339 0.656,0.686 1,1 0.323,0.339 0.656,0.686 1,1 0.323,0.339 0.624,0.655 0.969,0.969 0.325,0.341 0.654,0.685 1,1 0.325,0.341 0.654,0.685 1,1 0.325,0.341 0.654,0.685 1,1 0.323,0.339 0.656,0.686 1,1 0.323,0.339 0.656,0.686 1,1 0.323,0.339 0.624,0.655 0.969,0.969 0.331,0.348 0.647,0.679 1,1 0.325,0.341 0.654,0.685 1,1 0.325,0.341 0.654,0.685 1,1 0.323,0.339 0.656,0.686 1,1 0.323,0.339 0.656,0.686 1,1 0.323,0.339 0.624,0.655 0.969,0.969 0.331,0.348 0.647,0.679 1,1 0.325,0.341 0.654,0.685 1,1 0.325,0.341 0.654,0.685 1,1 0.323,0.339 0.656,0.686 1,1 0.323,0.339 0.656,0.686 1,1 0.323,0.339 0.656,0.686 1,1 0.323,0.339 0.624,0.655 0.969,0.969 0.325,0.341 0.654,0.685 1,1 0.325,0.341 0.654,0.685 1,1 0.323,0.339 0.656,0.686 1,1 0.323,0.339 0.656,0.686 1,1 0.323,0.339 0.656,0.686 1,1 0.344,0.36 0.664,0.7 1.031,1.031 0.309,0.322 0.609,0.639 0.938,0.938 0.325,0.341 0.654,0.685 1,1 0.325,0.341 0.654,0.685 1,1 0.323,0.339 0.656,0.686 1,1 0.323,0.339 0.656,0.686 1,1 0.32299,0.339 0.62399,0.655 0.96899,0.969 0.331,0.348 0.647,0.679 1,1 0.325,0.341 0.654,0.685 1,1 0.325,0.341 0.654,0.685 1,1 0.323,0.339 0.656,0.686 1,1 0.323,0.339 0.656,0.686 1,1 0.194,0.204 0.392,0.399 0.594,0.594 0.442,0.491 0.891,0.934 1.375,1.375 0.325,0.341 0.654,0.685 1,1 0.325,0.341 0.654,0.685 1,1 0.323,0.339 0.656,0.686 1,1 0.323,0.339 0.656,0.686 1,1 0.323,0.339 0.656,0.686 1,1 0.323,0.339 0.624,0.655 0.969,0.969 0.325,0.341 0.654,0.685 1,1 0.325,0.341 0.654,0.685 1,1 0.325,0.341 0.654,0.685 1,1 0.323,0.339 0.656,0.686 1,1 0.323,0.339 0.656,0.686 1,1 0.344,0.36 0.664,0.7 1.031,1.031 0.309,0.322 0.609,0.639 0.938,0.938 0.325,0.341 0.654,0.685 1,1 0.325,0.341 0.654,0.685 1,1 0.323,0.339 0.656,0.686 1,1 0.323,0.339 0.656,0.686 1,1 0.323,0.339 0.624,0.655 0.969,0.969 0.331,0.348 0.647,0.679 1,1 0.325,0.341 0.654,0.685 1,1 0.325,0.341 0.654,0.685 1,1 0.323,0.339 0.656,0.686 1,1 0.323,0.339 0.656,0.686 1,1 0.323,0.339 0.656,0.686 1,1 0.323,0.339 0.624,0.655 0.969,0.969 0.325,0.341 0.654,0.685 1,1 0.325,0.341 0.654,0.685 1,1 0.323,0.339 0.656,0.686 1,1 0.323,0.339 0.656,0.686 1,1 0.323,0.339 0.656,0.686 1,1 0.323,0.339 0.624,0.655 0.969,0.969 0.325,0.341 0.654,0.685 1,1 0.325,0.341 0.654,0.685 1,1 0.325,0.341 0.654,0.685 1,1 0.323,0.339 0.656,0.686 1,1 0.323,0.339 0.656,0.686 1,1 0.323,0.339 0.624,0.655 0.969,0.969 0.331,0.348 0.647,0.679 1,1 0.325,0.341 0.654,0.685 1,1 0.203,0.213 0.416,0.417 0.625,0.625 106.11,-15.15 187.69,-106.36 187.69,-216.66 0,-0.825 -0.022,-1.646 -0.031,-2.469 -0.093,-0.115 -0.174,-0.237 -0.281,-0.344 -0.197,-0.197 -0.405,-0.397 -0.625,-0.563 -0.123,-0.15 -0.236,-0.299 -0.375,-0.438 -0.166,-0.166 -0.349,-0.325 -0.531,-0.469 -0.143,-0.182 -0.303,-0.366 -0.469,-0.531 -0.166,-0.166 -0.349,-0.325 -0.531,-0.469 -0.143,-0.182 -0.303,-0.366 -0.469,-0.531 -0.149,-0.149 -0.306,-0.275 -0.469,-0.406 -0.158,-0.207 -0.345,-0.407 -0.531,-0.594 -0.149,-0.149 -0.306,-0.275 -0.469,-0.406 -0.158,-0.207 -0.345,-0.376 -0.531,-0.563 l 0,-0.031 c -0.197,-0.197 -0.374,-0.366 -0.594,-0.531 -0.123,-0.15 -0.236,-0.299 -0.375,-0.438 -0.197,-0.197 -0.405,-0.397 -0.625,-0.563 -0.123,-0.15 -0.236,-0.299 -0.375,-0.438 -0.166,-0.166 -0.349,-0.325 -0.531,-0.469 -0.143,-0.182 -0.303,-0.366 -0.469,-0.531 -0.166,-0.166 -0.349,-0.325 -0.531,-0.469 -0.143,-0.182 -0.303,-0.366 -0.469,-0.531 -0.149,-0.149 -0.306,-0.275 -0.469,-0.406 -0.158,-0.207 -0.345,-0.407 -0.531,-0.594 -0.149,-0.149 -0.306,-0.275 -0.469,-0.406 -0.158,-0.207 -0.345,-0.407 -0.531,-0.594 -0.197,-0.197 -0.374,-0.366 -0.594,-0.531 -0.123,-0.15 -0.236,-0.299 -0.375,-0.438 -0.197,-0.197 -0.405,-0.397 -0.625,-0.563 -0.123,-0.15 -0.236,-0.299 -0.375,-0.438 -0.166,-0.166 -0.349,-0.325 -0.531,-0.469 -0.143,-0.182 -0.303,-0.366 -0.469,-0.531 -0.166,-0.166 -0.349,-0.325 -0.531,-0.469 -0.143,-0.182 -0.303,-0.366 -0.469,-0.531 -0.149,-0.149 -0.306,-0.275 -0.469,-0.406 -0.158,-0.207 -0.345,-0.407 -0.531,-0.594 -0.149,-0.149 -0.306,-0.275 -0.469,-0.406 -0.158,-0.207 -0.345,-0.407 -0.531,-0.594 -0.17,-0.17 -0.313,-0.322 -0.5,-0.469 -0.147,-0.187 -0.299,-0.33 -0.469,-0.5 -0.197,-0.197 -0.405,-0.397 -0.625,-0.563 -0.123,-0.15 -0.236,-0.299 -0.375,-0.438 -0.197,-0.197 -0.405,-0.397 -0.625,-0.563 -0.123,-0.15 -0.236,-0.299 -0.375,-0.438 -0.166,-0.166 -0.349,-0.325 -0.531,-0.469 -0.143,-0.182 -0.303,-0.366 -0.469,-0.531 -0.166,-0.166 -0.349,-0.325 -0.531,-0.469 -0.143,-0.182 -0.303,-0.366 -0.469,-0.531 -0.149,-0.149 -0.306,-0.275 -0.469,-0.406 -0.158,-0.207 -0.345,-0.407 -0.531,-0.594 -0.15,-0.15 -0.305,-0.275 -0.469,-0.406 -0.158,-0.207 -0.314,-0.376 -0.5,-0.563 -0.197,-0.197 -0.405,-0.397 -0.625,-0.563 -0.123,-0.15 -0.236,-0.299 -0.375,-0.438 -0.197,-0.197 -0.405,-0.397 -0.625,-0.563 -0.123,-0.15 -0.236,-0.299 -0.375,-0.438 -0.166,-0.166 -0.349,-0.325 -0.531,-0.469 -0.143,-0.182 -0.303,-0.366 -0.469,-0.531 -0.166,-0.166 -0.349,-0.325 -0.531,-0.469 -0.143,-0.182 -0.303,-0.366 -0.469,-0.531 -0.149,-0.149 -0.306,-0.275 -0.469,-0.406 -0.158,-0.207 -0.345,-0.407 -0.531,-0.594 -0.149,-0.149 -0.306,-0.275 -0.469,-0.406 -0.158,-0.207 -0.345,-0.407 -0.531,-0.594 -0.197,-0.197 -0.374,-0.366 -0.594,-0.531 -0.123,-0.15 -0.236,-0.299 -0.375,-0.438 -0.197,-0.197 -0.405,-0.397 -0.625,-0.563 -0.123,-0.15 -0.236,-0.299 -0.375,-0.438 -0.166,-0.166 -0.349,-0.325 -0.531,-0.469 -0.143,-0.182 -0.303,-0.366 -0.469,-0.531 -0.166,-0.166 -0.349,-0.325 -0.531,-0.469 -0.143,-0.182 -0.303,-0.366 -0.469,-0.531 -0.149,-0.149 -0.306,-0.275 -0.469,-0.406 -0.158,-0.207 -0.345,-0.407 -0.531,-0.594 -0.149,-0.149 -0.306,-0.275 -0.469,-0.406 -0.158,-0.207 -0.345,-0.407 -0.531,-0.594 -0.17,-0.17 -0.313,-0.322 -0.5,-0.469 -0.147,-0.187 -0.299,-0.33 -0.469,-0.5 -0.197,-0.197 -0.405,-0.397 -0.625,-0.563 -0.123,-0.15 -0.236,-0.299 -0.375,-0.438 -0.197,-0.197 -0.405,-0.397 -0.625,-0.563 -0.123,-0.15 -0.236,-0.299 -0.375,-0.438 -0.166,-0.166 -0.349,-0.325 -0.531,-0.469 -0.143,-0.182 -0.303,-0.366 -0.469,-0.531 -0.166,-0.166 -0.349,-0.325 -0.531,-0.469 -0.143,-0.182 -0.303,-0.366 -0.469,-0.531 -0.149,-0.149 -0.306,-0.275 -0.469,-0.406 -0.158,-0.207 -0.345,-0.407 -0.531,-0.594 -0.15,-0.15 -0.305,-0.275 -0.469,-0.406 -0.158,-0.207 -0.314,-0.376 -0.5,-0.563 -0.197,-0.197 -0.405,-0.397 -0.625,-0.563 -0.123,-0.15 -0.236,-0.299 -0.375,-0.438 -0.197,-0.197 -0.405,-0.397 -0.625,-0.563 -0.123,-0.15 -0.236,-0.299 -0.375,-0.438 -0.166,-0.166 -0.349,-0.325 -0.531,-0.469 -0.143,-0.182 -0.303,-0.366 -0.469,-0.531 -0.166,-0.166 -0.349,-0.325 -0.531,-0.469 -0.143,-0.182 -0.303,-0.366 -0.469,-0.531 -0.149,-0.149 -0.306,-0.275 -0.469,-0.406 -0.158,-0.207 -0.345,-0.407 -0.531,-0.594 -0.149,-0.149 -0.306,-0.275 -0.469,-0.406 -0.158,-0.207 -0.314,-0.376 -0.5,-0.563 l -0.031,0 c -0.197,-0.197 -0.374,-0.397 -0.594,-0.563 -0.123,-0.15 -0.236,-0.299 -0.375,-0.438 -0.197,-0.197 -0.405,-0.397 -0.625,-0.563 -0.123,-0.15 -0.236,-0.299 -0.375,-0.438 -0.166,-0.166 -0.349,-0.325 -0.531,-0.469 -0.143,-0.182 -0.303,-0.366 -0.469,-0.531 -0.166,-0.166 -0.349,-0.325 -0.531,-0.469 -0.143,-0.182 -0.303,-0.366 -0.469,-0.531 -0.149,-0.149 -0.306,-0.275 -0.469,-0.406 -0.158,-0.207 -0.345,-0.407 -0.531,-0.594 -0.149,-0.149 -0.306,-0.275 -0.469,-0.406 -0.158,-0.207 -0.345,-0.407 -0.531,-0.594 -0.197,-0.197 -0.374,-0.366 -0.594,-0.531 -0.123,-0.15 -0.236,-0.299 -0.375,-0.438 -0.197,-0.197 -0.405,-0.397 -0.625,-0.563 -0.123,-0.15 -0.236,-0.299 -0.375,-0.438 -0.166,-0.166 -0.349,-0.325 -0.531,-0.469 -0.143,-0.182 -0.303,-0.366 -0.469,-0.531 -0.166,-0.166 -0.349,-0.325 -0.531,-0.469 -0.143,-0.182 -0.303,-0.366 -0.469,-0.531 -0.149,-0.149 -0.306,-0.275 -0.469,-0.406 -0.158,-0.207 -0.345,-0.407 -0.531,-0.594 -0.149,-0.149 -0.306,-0.275 -0.469,-0.406 -0.158,-0.207 -0.345,-0.407 -0.531,-0.594 -0.17,-0.17 -0.313,-0.322 -0.5,-0.469 -0.147,-0.187 -0.299,-0.33 -0.469,-0.5 -0.197,-0.197 -0.405,-0.397 -0.625,-0.563 -0.123,-0.15 -0.236,-0.299 -0.375,-0.438 -0.197,-0.197 -0.405,-0.397 -0.625,-0.563 -0.123,-0.15 -0.236,-0.299 -0.375,-0.438 -0.166,-0.166 -0.349,-0.325 -0.531,-0.469 -0.143,-0.182 -0.303,-0.366 -0.469,-0.531 -0.166,-0.166 -0.349,-0.325 -0.531,-0.469 -0.143,-0.182 -0.303,-0.366 -0.469,-0.531 -0.149,-0.149 -0.306,-0.275 -0.469,-0.406 -0.158,-0.207 -0.345,-0.407 -0.531,-0.594 -0.15,-0.15 -0.305,-0.275 -0.469,-0.406 -0.158,-0.207 -0.314,-0.376 -0.5,-0.563 -0.197,-0.197 -0.405,-0.397 -0.625,-0.563 -0.123,-0.15 -0.236,-0.299 -0.375,-0.438 -0.197,-0.197 -0.405,-0.397 -0.625,-0.563 -0.123,-0.15 -0.236,-0.299 -0.375,-0.438 -0.166,-0.166 -0.349,-0.325 -0.531,-0.469 -0.143,-0.182 -0.303,-0.366 -0.469,-0.531 -0.166,-0.166 -0.349,-0.325 -0.531,-0.469 -0.143,-0.182 -0.303,-0.366 -0.469,-0.531 -0.149,-0.149 -0.306,-0.275 -0.469,-0.406 -0.158,-0.207 -0.345,-0.407 -0.531,-0.594 -0.149,-0.149 -0.306,-0.275 -0.469,-0.406 -0.158,-0.207 -0.345,-0.407 -0.531,-0.594 -0.197,-0.197 -0.374,-0.366 -0.594,-0.531 -0.123,-0.15 -0.236,-0.299 -0.375,-0.438 -0.197,-0.197 -0.405,-0.397 -0.625,-0.563 -0.123,-0.15 -0.236,-0.299 -0.375,-0.438 -0.166,-0.166 -0.349,-0.325 -0.531,-0.469 -0.143,-0.182 -0.303,-0.366 -0.469,-0.531 -0.166,-0.166 -0.349,-0.325 -0.531,-0.469 -0.143,-0.182 -0.303,-0.366 -0.469,-0.531 -0.149,-0.149 -0.306,-0.275 -0.469,-0.406 -0.158,-0.207 -0.345,-0.407 -0.531,-0.594 -0.149,-0.149 -0.306,-0.275 -0.469,-0.406 -0.158,-0.207 -0.345,-0.407 -0.531,-0.594 -0.17,-0.17 -0.313,-0.322 -0.5,-0.469 -0.147,-0.187 -0.299,-0.33 -0.469,-0.5 -0.197,-0.197 -0.405,-0.397 -0.625,-0.563 -0.123,-0.15 -0.236,-0.299 -0.375,-0.438 -0.197,-0.197 -0.405,-0.397 -0.625,-0.563 -0.123,-0.15 -0.236,-0.299 -0.375,-0.438 -0.166,-0.166 -0.349,-0.325 -0.531,-0.469 -0.143,-0.182 -0.303,-0.366 -0.469,-0.531 -0.149,-0.149 -0.306,-0.275 -0.469,-0.406 -0.158,-0.207 -0.345,-0.407 -0.531,-0.594 -0.149,-0.149 -0.306,-0.275 -0.469,-0.406 -0.158,-0.207 -0.345,-0.407 -0.531,-0.594 -0.15,-0.15 -0.305,-0.275 -0.469,-0.406 -0.158,-0.207 -0.314,-0.376 -0.5,-0.563 -0.197,-0.197 -0.405,-0.397 -0.625,-0.563 -0.123,-0.15 -0.236,-0.299 -0.375,-0.438 -0.197,-0.197 -0.405,-0.397 -0.625,-0.563 -0.123,-0.15 -0.236,-0.299 -0.375,-0.438 -0.166,-0.166 -0.349,-0.325 -0.531,-0.469 -0.143,-0.182 -0.303,-0.366 -0.469,-0.531 -0.166,-0.166 -0.349,-0.325 -0.531,-0.469 -0.143,-0.182 -0.303,-0.366 -0.469,-0.531 -0.149,-0.149 -0.306,-0.275 -0.469,-0.406 -0.158,-0.207 -0.345,-0.407 -0.531,-0.594 -0.15,-0.15 -0.305,-0.275 -0.469,-0.406 -0.158,-0.207 -0.314,-0.376 -0.5,-0.563 -0.197,-0.197 -0.405,-0.397 -0.625,-0.563 -0.123,-0.15 -0.236,-0.299 -0.375,-0.438 -0.197,-0.197 -0.405,-0.397 -0.625,-0.563 -0.123,-0.15 -0.236,-0.299 -0.375,-0.438 -0.166,-0.166 -0.349,-0.325 -0.531,-0.469 -0.143,-0.182 -0.303,-0.366 -0.469,-0.531 -0.166,-0.166 -0.349,-0.325 -0.531,-0.469 -0.143,-0.182 -0.303,-0.366 -0.469,-0.531 -0.149,-0.149 -0.306,-0.275 -0.469,-0.406 -0.158,-0.207 -0.345,-0.407 -0.531,-0.594 -0.149,-0.149 -0.306,-0.275 -0.469,-0.406 -0.158,-0.207 -0.345,-0.407 -0.531,-0.594 -1.11,-1.11 -2.587,-1.719 -4.156,-1.719 l -149.49999,0 c -0.074,-0.001 -0.144,-0.001 -0.219,0" />
  <path
     style="fill-opacity:0.06700003;fill-rule:evenodd"
     inkscape:connector-curvature="0"
     d="M 256,1 C 115.17,1 1,115.17 1,256 1,396.83 115.17,511 256,511 396.83,511 511,396.83 511,256 511,115.17 396.83,1 256,1 m 8.827,44.931 c 120.9,0 218.9,98 218.9,218.9 0,120.9 -98,218.9 -218.9,218.9 -120.9,0 -218.93,-98 -218.93,-218.9 0,-120.9 98.03,-218.9 218.93,-218.9"
     id="path8" />
  <g
     style="fill-opacity:0.12900002;fill-rule:evenodd"
     id="g10">
    <path
       inkscape:connector-curvature="0"
       d="m 256,4.433 c -138.94,0 -251.57,112.63 -251.57,251.57 0,138.94 112.63,251.57 251.57,251.57 138.94,0 251.57,-112.63 251.57,-251.57 C 507.57,117.063 394.94,4.433 256,4.433 m 5.885,38.556 c 120.9,0 218.9,98 218.9,218.9 0,120.9 -98,218.9 -218.9,218.9 -120.9,0 -218.93,-98 -218.93,-218.9 0,-120.9 98.03,-218.9 218.93,-218.9"
       id="path12" />
    <path
       inkscape:connector-curvature="0"
       d="m 256,8.356 c -136.77,0 -247.64,110.87 -247.64,247.64 0,136.77 110.87,247.64 247.64,247.64 136.77,0 247.64,-110.87 247.64,-247.64 C 503.64,119.226 392.77,8.356 256,8.356 m 2.942,31.691 c 120.9,0 218.9,98 218.9,218.9 0,120.9 -98,218.9 -218.9,218.9 -120.9,0 -218.93,-98 -218.93,-218.9 0,-120.9 98.03,-218.9 218.93,-218.9"
       id="path14" />
  </g>
  <path
     style="fill:#ffffff;fill-rule:evenodd;stroke:#000000;stroke-width:4.90399981;stroke-opacity:0.31000001"
     inkscape:connector-curvature="0"
     d="m 253.04,7.859 c -135.42,0 -245.19,109.78 -245.19,245.19 0,135.42 109.78,245.19 245.19,245.19 135.42,0 245.19,-109.78 245.19,-245.19 0,-135.42 -109.78,-245.19 -245.19,-245.19 z m 0,26.297 c 120.9,0 218.9,98 218.9,218.9 0,120.9 -98,218.9 -218.9,218.9 -120.9,0 -218.93,-98 -218.93,-218.9 0,-120.9 98.03,-218.9 218.93,-218.9 z"
     id="path16" />
  <path
     inkscape:connector-curvature="0"
     style="color:#000000;fill:#ffffff"
     id="path66"
     d="m 218.33593,147.46667 c -19.893,0.705 -32.79,1.732 -42.908,5.62 -10.118,3.888 -16.678,11.154 -22.06,21.417 a 5.9151,5.9151 0 0 0 -0.0248,0.0247 l -16.391,31.692 a 5.9151,5.9151 0 0 0 4.7785,8.6162 l 5.596,0.421 a 5.9151,5.9151 0 0 0 5.6451,-3.0454 c 5.754,-10.554 11.347,-17.972 17.529,-22.63 6.143,-4.629 12.935,-6.879 22.531,-6.908 l 0.173,0 14.212,0.371 c -8.09,46.814 -6.49,83.05 -40.927,143.43 a 5.9151,5.9151 0 0 0 -0.34663,0.74278 c -2.78,6.997 -3.069,13.624 -1.065,19.11 2,5.49 6.259,9.542 11.216,11.563 9.913,4.04 22.768,0.281 29.736,-11.191 a 5.9151,5.9151 0 0 0 0.27235,-0.51994 c 14.475,-30.347 22.09,-87.961 26.789,-163.06 l 48.22999,0 -7.873,123.28 a 5.9151,5.9151 0 0 0 0,0.24759 c -0.391,18.275 4.066,32.05 12.206,41.03 8.14,8.971 19.81,12.508 31.395,11.04 23.17,-2.931 46.877,-24.13 56.08,-58.13 a 5.9151,5.9151 0 0 0 -5.7194,-7.4772 l -5.571,0 a 5.9151,5.9151 0 0 0 -5.2489,3.1692 c -8.16,15.494 -16.07,24.436 -22.308,28.399 -6.241,3.962 -10.116,3.649 -14.162,1.164 -4.046,-2.486 -8.227,-8.318 -10.944,-16.688 -2.715,-8.363 -4,-19.06 -3.219,-30.503 0.001,-0.008 -10e-4,-0.016 0,-0.025 l 6.908,-95.15 55.26,-0.792 a 5.9151,5.9151 0 0 0 5.8432,-5.9174 l 0,-23.373 a 5.9151,5.9151 0 0 0 -5.93,-5.91 l -149.49999,0 a 5.9151,5.9151 0 0 0 -0.22283,0" />
</svg>
