<?xml version="1.0" encoding="UTF-8" standalone="no"?>
<svg
   xmlns:dc="http://purl.org/dc/elements/1.1/"
   xmlns:cc="http://creativecommons.org/ns#"
   xmlns:rdf="http://www.w3.org/1999/02/22-rdf-syntax-ns#"
   xmlns:svg="http://www.w3.org/2000/svg"
   xmlns="http://www.w3.org/2000/svg"
   xmlns:sodipodi="http://sodipodi.sourceforge.net/DTD/sodipodi-0.dtd"
   xmlns:inkscape="http://www.inkscape.org/namespaces/inkscape"
   height="512"
   viewBox="0 0 512 512"
   width="512"
   version="1.1"
   id="svg2"
   inkscape:version="0.91 r13725"
   sodipodi:docname="xed.svg">
  <defs
     id="defs23" />
  <sodipodi:namedview
     pagecolor="#ffffff"
     bordercolor="#666666"
     borderopacity="1"
     objecttolerance="10"
     gridtolerance="10"
     guidetolerance="10"
     inkscape:pageopacity="0"
     inkscape:pageshadow="2"
     inkscape:window-width="1920"
     inkscape:window-height="1019"
     id="namedview21"
     showgrid="false"
     inkscape:zoom="0.3808136"
     inkscape:cx="-1210.981"
     inkscape:cy="895.54605"
     inkscape:window-x="0"
     inkscape:window-y="13"
     inkscape:window-maximized="1"
     inkscape:current-layer="svg2" />
  <metadata
     id="metadata88">
    <rdf:RDF>
      <cc:Work
         rdf:about="">
        <dc:format>image/svg+xml</dc:format>
        <dc:type
           rdf:resource="http://purl.org/dc/dcmitype/StillImage" />
        <dc:title></dc:title>
      </cc:Work>
    </rdf:RDF>
  </metadata>
  <g
     id="g4"
     fill-rule="evenodd">
    <path
       id="path6"
       fill="#68af4c"
       d="m471.95 252.95c0 120.9-98.01 218.9-218.9 218.9-120.9 0-218.9-98.01-218.9-218.9 0-120.9 98.01-218.9 218.9-218.9 120.9 0 218.9 98.01 218.9 218.9" />
  </g>
  <path
     style="fill:#000000;fill-opacity:0.11764706;fill-rule:evenodd;stroke:none;stroke-width:1px;stroke-linecap:butt;stroke-linejoin:miter;stroke-opacity:1"
     d="M 241.91625,82.574028 310.81426,153.00783 198.43551,265.33511 129.46432,200.3905 Z"
     id="path4258"
     inkscape:connector-curvature="0"
     sodipodi:nodetypes="ccccc" />
  <path
     style="fill:#000000;fill-opacity:0.11764706;fill-rule:evenodd;stroke:none;stroke-width:1px;stroke-linecap:butt;stroke-linejoin:miter;stroke-opacity:1"
     d="m 126.70241,410.90067 48.5802,47.92371 c 83.1353,25.04334 157.79414,8.64623 225.17578,-43.32829 86.60409,-66.14021 61.94781,-135.31207 73.52679,-198.25972 l -77.46573,-86.65657 -28.88552,37.41988 102.41231,105.03826 0,18.38171 -70.90083,-71.55733 -97.0634,-58.17295 c 0,0 -94.74063,95.18126 -142.17741,142.61428 l -31.23272,106.59702 z"
     id="path4256"
     inkscape:connector-curvature="0"
     sodipodi:nodetypes="ccccccccccccc" />
  <g
     id="g16"
     fill-rule="evenodd">
    <path
       id="path18"
       fill-opacity="0.067"
       d="m256 0.9c-140.83 0-255 114.17-255 255s114.17 255 255 255 255-114.17 255-255-114.17-255-255-255m8.827 44.931c120.9 0 218.9 98 218.9 218.9s-98 218.9-218.9 218.9-218.93-98-218.93-218.9 98.03-218.9 218.93-218.9" />
    <g
       id="g20"
       fill-opacity="0.129">
      <path
         id="path22"
         d="m256 4.333c-138.94 0-251.57 112.63-251.57 251.57s112.63 251.57 251.57 251.57 251.57-112.63 251.57-251.57-112.63-251.57-251.57-251.57m5.885 38.556c120.9 0 218.9 98 218.9 218.9s-98 218.9-218.9 218.9-218.93-98-218.93-218.9 98.03-218.9 218.93-218.9" />
      <path
         id="path24"
         d="m256 8.256c-136.77 0-247.64 110.87-247.64 247.64s110.87 247.64 247.64 247.64 247.64-110.87 247.64-247.64-110.87-247.64-247.64-247.64m2.942 31.691c120.9 0 218.9 98 218.9 218.9s-98 218.9-218.9 218.9-218.93-98-218.93-218.9 98.03-218.9 218.93-218.9" />
    </g>
    <path
       id="path26"
       d="m253.04 7.759c-135.42 0-245.19 109.78-245.19 245.19 0 135.42 109.78 245.19 245.19 245.19 135.42 0 245.19-109.78 245.19-245.19 0-135.42-109.78-245.19-245.19-245.19zm0 26.297c120.9 0 218.9 98 218.9 218.9s-98 218.9-218.9 218.9-218.93-98-218.93-218.9 98.03-218.9 218.93-218.9z"
       stroke-opacity="0.31"
       stroke="#000"
       stroke-width="4.904"
       fill="#fff" />
  </g>
  <g
     id="g74"
     transform="matrix(0.54833505,0.54833505,-0.54833505,0.54833505,562.83403,-302.3586)"
     style="fill:#ffffff;fill-rule:evenodd">
    <path
       id="path76"
       d="m 185.53,141.97 0,245.63 56.656,109.75 a 15.316,17.064 0 0 0 15.469,8.5 15.316,17.064 0 0 0 11.031,-8.4062 l 57.75,-111 0,-244.47 -140.91,0 m 71.344,211.97 a 4.2743,4.2743 0 0 1 3.4375,1.375 l 24.03,26.375 9.219,0 a 4.2743,4.2743 0 0 1 3.6875,6.4062 l -29.16,50.44 a 4.2743,4.2743 0 0 1 -3.6875,2.1562 l -15.438,0 a 4.2743,4.2743 0 0 1 -3.75,-2.1875 l -29.28,-52.5 a 4.2743,4.2743 0 0 1 3.7188,-6.375 l 12.406,0 21.938,-24.281 a 4.2743,4.2743 0 0 1 2.875,-1.4062"
       transform="translate(0,540.36)"
       inkscape:connector-curvature="0" />
    <rect
       id="rect78"
       rx="62.130001"
       ry="28.25"
       height="56.5"
       width="140.92"
       y="546.35999"
       x="185.55" />
    <path
       id="path80"
       d="m 185.55,574.38 140.92,0 0,33.24 -140.92,0 z"
       inkscape:connector-curvature="0" />
    <path
       id="path82"
       d="m 185.55,625.89 140.92,0 0,34.899 -140.92,0 z"
       inkscape:connector-curvature="0" />
  </g>
  <rect
     style="opacity:1;fill:#ffffff;fill-opacity:1;fill-rule:evenodd;stroke:none;stroke-width:5;stroke-linecap:square;stroke-linejoin:round;stroke-miterlimit:4;stroke-dasharray:none;stroke-dashoffset:0;stroke-opacity:1"
     id="rect4218"
     width="163.67174"
     height="37.823769"
     x="154.40247"
     y="-50.013817"
     rx="0"
     ry="15.78307"
     transform="matrix(0.70710678,0.70710678,-0.70710678,0.70710678,0,0)" />
  <rect
     style="opacity:1;fill:#ffffff;fill-opacity:1;fill-rule:evenodd;stroke:none;stroke-width:5;stroke-linecap:square;stroke-linejoin:round;stroke-miterlimit:4;stroke-dasharray:none;stroke-dashoffset:0;stroke-opacity:1"
     id="rect4218-7"
     width="163.67174"
     height="37.823769"
     x="-112.93781"
     y="-255.15021"
     rx="0"
     ry="15.78307"
     transform="matrix(-0.70710678,0.70710678,-0.70710678,-0.70710678,0,0)" />
</svg>
