<?xml version="1.0" encoding="UTF-8" standalone="no"?>
<svg
   xmlns:dc="http://purl.org/dc/elements/1.1/"
   xmlns:cc="http://creativecommons.org/ns#"
   xmlns:rdf="http://www.w3.org/1999/02/22-rdf-syntax-ns#"
   xmlns:svg="http://www.w3.org/2000/svg"
   xmlns="http://www.w3.org/2000/svg"
   xmlns:sodipodi="http://sodipodi.sourceforge.net/DTD/sodipodi-0.dtd"
   xmlns:inkscape="http://www.inkscape.org/namespaces/inkscape"
   height="512"
   viewBox="0 0 512 512"
   width="512"
   version="1.1"
   id="svg2"
   inkscape:version="0.91 r13725"
   sodipodi:docname="yakuake.svg">
  <defs
     id="defs42" />
  <sodipodi:namedview
     pagecolor="#ffffff"
     bordercolor="#666666"
     borderopacity="1"
     objecttolerance="10"
     gridtolerance="10"
     guidetolerance="10"
     inkscape:pageopacity="0"
     inkscape:pageshadow="2"
     inkscape:window-width="1920"
     inkscape:window-height="1019"
     id="namedview40"
     showgrid="false"
     inkscape:zoom="1.5232544"
     inkscape:cx="256"
     inkscape:cy="256"
     inkscape:window-x="0"
     inkscape:window-y="13"
     inkscape:window-maximized="1"
     inkscape:current-layer="svg2" />
  <metadata
     id="metadata78">
    <rdf:RDF>
      <cc:Work
         rdf:about="">
        <dc:format>image/svg+xml</dc:format>
        <dc:type
           rdf:resource="http://purl.org/dc/dcmitype/StillImage" />
        <dc:title></dc:title>
      </cc:Work>
    </rdf:RDF>
  </metadata>
  <path
     id="path4"
     d="m471.95 253.05c0 120.9-98.01 218.9-218.9 218.9-120.9 0-218.9-98.01-218.9-218.9 0-120.9 98.01-218.9 218.9-218.9 120.9 0 218.9 98.01 218.9 218.9"
     fill-rule="evenodd"
     fill="#484043"
     style="fill:#3595ac;fill-opacity:1" />
  <path
     id="path6"
     fill-opacity="0.235"
     d="m253.03 34.16c-1.889 0-3.747 0.015-5.625 0.063-56.667 1.436-108.01 24.404-146.09 61.03v192.34c-15.935 4.661-12.647 7.576-16.625 16 43.15 43.39 115.04 114.38 158.25 157.81 3.528 3.517 7.06 7.04 10.594 10.563 120.67-0.27 218.41-98.18 218.41-218.91 0-118.73-94.53-215.39-212.44-218.81-0.271-0.007-0.542-0.025-0.813-0.031-0.166-0.004-0.334 0.004-0.5 0-1.718-0.033-3.44-0.062-5.156-0.063" />
  <path
     d="M 253.0293 34.158203 L 253.0293 34.160156 C 194.1273 34.160156 140.66055 53.40275 101.31055 84.71875 L 101.31055 292.79883 L 410.68945 292.79883 L 410.68945 89.628906 C 370.87145 55.428906 314.9493 34.158203 253.0293 34.158203 z M 188.15234 85.615234 L 197.24219 85.615234 L 197.24219 106.69922 C 202.87698 106.94158 208.3303 107.54815 213.60156 108.51758 C 218.87282 109.42642 224.02188 110.69808 229.05078 112.33398 L 229.05078 128.24023 C 224.02188 125.69549 218.84161 123.72558 213.50977 122.33203 C 208.23851 120.93848 202.81639 120.12126 197.24219 119.87891 L 197.24219 158.68555 C 210.99593 160.80617 221.11461 164.59189 227.59766 170.04492 C 234.0807 175.49795 237.32227 182.95043 237.32227 192.40234 C 237.32227 202.64192 233.86811 210.73218 226.96094 216.66992 C 220.11436 222.54707 210.20828 225.93882 197.24219 226.84766 L 197.24219 254.38672 L 188.15234 254.38672 L 188.0625 227.0293 C 181.70063 226.90812 175.33843 226.18257 168.97656 224.84961 C 162.6147 223.45606 156.22324 221.39448 149.80078 218.66797 L 149.80078 202.31055 C 155.98088 206.18826 162.22021 209.12556 168.52148 211.125 C 174.88335 213.06385 181.42694 214.06441 188.15234 214.125 L 188.15234 172.68164 C 174.76213 170.50043 165.00818 166.80442 158.88867 161.59375 C 152.82975 156.38308 149.80078 149.23291 149.80078 140.14453 C 149.80078 130.26849 153.10281 122.48249 159.70703 116.78711 C 166.31125 111.09173 175.79215 107.8209 188.15234 106.97266 L 188.15234 85.615234 z M 188.15234 119.78711 C 181.124 120.57477 175.76235 122.57393 172.06641 125.78516 C 168.37047 128.99638 166.52344 133.26776 166.52344 138.59961 C 166.52344 143.81028 168.22029 147.87102 171.61328 150.7793 C 175.06687 153.68758 180.57869 155.77646 188.15234 157.04883 L 188.15234 119.78711 z M 197.24219 174.5 L 197.24219 213.85156 C 204.93702 212.82155 210.7219 210.641 214.59961 207.30859 C 218.53791 203.97619 220.50781 199.58389 220.50781 194.13086 C 220.50781 188.79901 218.62958 184.55689 214.87305 181.40625 C 211.17711 178.25561 205.30055 175.95414 197.24219 174.5 z M 310.30078 257.92969 L 407.00195 257.92969 L 407.00195 270.92773 L 310.30078 270.92773 L 310.30078 257.92969 z "
     id="path8"
     style="fill:#ffffff;fill-opacity:1" />
  <g
     id="g10"
     fill-rule="evenodd">
    <path
       id="path12"
       fill-opacity="0.067"
       d="m256 1c-140.83 0-255 114.17-255 255s114.17 255 255 255 255-114.17 255-255-114.17-255-255-255m8.827 44.931c120.9 0 218.9 98 218.9 218.9s-98 218.9-218.9 218.9-218.93-98-218.93-218.9 98.03-218.9 218.93-218.9" />
    <g
       id="g14"
       fill-opacity="0.129">
      <path
         id="path16"
         d="m256 4.433c-138.94 0-251.57 112.63-251.57 251.57s112.63 251.57 251.57 251.57 251.57-112.63 251.57-251.57-112.63-251.57-251.57-251.57m5.885 38.556c120.9 0 218.9 98 218.9 218.9s-98 218.9-218.9 218.9-218.93-98-218.93-218.9 98.03-218.9 218.93-218.9" />
      <path
         id="path18"
         d="m256 8.356c-136.77 0-247.64 110.87-247.64 247.64s110.87 247.64 247.64 247.64 247.64-110.87 247.64-247.64-110.87-247.64-247.64-247.64m2.942 31.691c120.9 0 218.9 98 218.9 218.9s-98 218.9-218.9 218.9-218.93-98-218.93-218.9 98.03-218.9 218.93-218.9" />
    </g>
    <path
       id="path20"
       d="m253.04 7.859c-135.42 0-245.19 109.78-245.19 245.19 0 135.42 109.78 245.19 245.19 245.19 135.42 0 245.19-109.78 245.19-245.19 0-135.42-109.78-245.19-245.19-245.19zm0 26.297c120.9 0 218.9 98 218.9 218.9s-98 218.9-218.9 218.9-218.93-98-218.93-218.9 98.03-218.9 218.93-218.9z"
       stroke-opacity="0.31"
       stroke="#000"
       stroke-width="4.904"
       fill="#fff" />
  </g>
  <text
     id="text22"
     font-size="129.23"
     line-height="125%"
     y="231.36"
     x="729.64"
     font-family="Gentium Book Basic"
     word-spacing="0"
     letter-spacing="0">
    <tspan
       id="tspan24"
       y="231.36"
       x="729.64" />
  </text>
  <text
     id="text26"
     font-size="46.954"
     transform="scale(4.0128 .2492)"
     y="579.25"
     x="378.91"
     font-family="Arial"
     text-anchor="middle" />
  <text
     id="text28"
     font-size="129.23"
     line-height="125%"
     y="151.36"
     x="1310.91"
     font-family="Gentium Book Basic"
     word-spacing="0"
     letter-spacing="0">
    <tspan
       id="tspan30"
       y="151.36"
       x="1310.91" />
  </text>
  <text
     id="text32"
     font-size="46.954"
     transform="scale(4.0128 .2492)"
     y="258.22"
     x="523.76"
     font-family="Arial"
     text-anchor="middle" />
  <text
     id="text34"
     font-size="129.23"
     line-height="125%"
     y="-29.901"
     x="239.33"
     font-family="Gentium Book Basic"
     word-spacing="0"
     letter-spacing="0">
    <tspan
       id="tspan36"
       y="-29.901"
       x="239.33" />
  </text>
  <text
     id="text38"
     font-size="46.954"
     transform="scale(4.0128 .2492)"
     y="-469.14"
     x="256.72"
     font-family="Arial"
     text-anchor="middle" />
  <text
     id="text40"
     font-size="129.23"
     line-height="125%"
     y="-246.37"
     x="1337.38"
     font-family="Gentium Book Basic"
     word-spacing="0"
     letter-spacing="0">
    <tspan
       id="tspan42"
       y="-246.37"
       x="1337.38" />
  </text>
  <text
     id="text44"
     font-size="46.954"
     transform="scale(4.0128 .2492)"
     y="-1337.81"
     x="530.36"
     font-family="Arial"
     text-anchor="middle" />
  <text
     id="text46"
     font-size="129.23"
     line-height="125%"
     y="-326.38"
     x="1918.65"
     font-family="Gentium Book Basic"
     word-spacing="0"
     letter-spacing="0">
    <tspan
       id="tspan48"
       y="-326.38"
       x="1918.65" />
  </text>
  <text
     id="text50"
     font-size="46.954"
     transform="scale(4.0128 .2492)"
     y="-1658.85"
     x="675.21"
     font-family="Arial"
     text-anchor="middle" />
  <text
     id="text52"
     font-size="129.23"
     line-height="125%"
     y="-798.78"
     x="1529.53"
     font-family="Gentium Book Basic"
     word-spacing="0"
     letter-spacing="0">
    <tspan
       id="tspan54"
       y="-798.78"
       x="1529.53" />
  </text>
  <text
     id="text56"
     font-size="46.954"
     transform="scale(4.0128 .2492)"
     y="-3554.51"
     x="578.24"
     font-family="Arial"
     text-anchor="middle" />
  <text
     id="text58"
     font-size="129.23"
     line-height="125%"
     y="-878.78"
     x="2110.79"
     font-family="Gentium Book Basic"
     word-spacing="0"
     letter-spacing="0">
    <tspan
       id="tspan60"
       y="-878.78"
       x="2110.79" />
  </text>
  <text
     id="text62"
     font-size="46.954"
     transform="scale(4.0128 .2492)"
     y="-3875.54"
     x="723.09"
     font-family="Arial"
     text-anchor="middle" />
  <text
     id="text64"
     font-size="208.33"
     line-height="125%"
     y="535.94"
     x="277.99"
     font-family="Gentium Book Basic"
     word-spacing="0"
     letter-spacing="0">
    <tspan
       id="tspan66"
       y="535.94"
       x="277.99" />
  </text>
  <path
     id="path68"
     d="m84.64 287.61v15.989h342.72v-15.99h-342.72"
     fill-rule="evenodd"
     fill="#dcc991"
     style="fill:#ffffff;fill-opacity:1" />
</svg>
