<?xml version="1.0" encoding="UTF-8" standalone="no"?>
<svg
   xmlns:dc="http://purl.org/dc/elements/1.1/"
   xmlns:cc="http://creativecommons.org/ns#"
   xmlns:rdf="http://www.w3.org/1999/02/22-rdf-syntax-ns#"
   xmlns:svg="http://www.w3.org/2000/svg"
   xmlns="http://www.w3.org/2000/svg"
   xmlns:sodipodi="http://sodipodi.sourceforge.net/DTD/sodipodi-0.dtd"
   xmlns:inkscape="http://www.inkscape.org/namespaces/inkscape"
   height="512"
   viewBox="0 0 512 512"
   width="512"
   version="1.1"
   id="svg2"
   inkscape:version="0.91 r13725"
   sodipodi:docname="start-here-symbolic-solus-dark.svg">
  <sodipodi:namedview
     pagecolor="#b2b0ab"
     bordercolor="#666666"
     borderopacity="1"
     objecttolerance="10"
     gridtolerance="10"
     guidetolerance="10"
     inkscape:pageopacity="0"
     inkscape:pageshadow="2"
     inkscape:window-width="1680"
     inkscape:window-height="1021"
     id="namedview15"
     showgrid="false"
     inkscape:zoom="0.89408499"
     inkscape:cx="397.74477"
     inkscape:cy="333.3027"
     inkscape:window-x="1920"
     inkscape:window-y="0"
     inkscape:window-maximized="1"
     inkscape:current-layer="svg2" />
  <defs
     id="defs17" />
  <metadata
     id="metadata28">
    <rdf:RDF>
      <cc:Work
         rdf:about="">
        <dc:format>image/svg+xml</dc:format>
        <dc:type
           rdf:resource="http://purl.org/dc/dcmitype/StillImage" />
        <dc:title></dc:title>
      </cc:Work>
    </rdf:RDF>
  </metadata>
  <path
     sodipodi:nodetypes="sccsccscccsccccccccsccsccsccc"
     inkscape:connector-curvature="0"
     id="circle4804-0"
     d="M 250.32908,80.106547 C 150.10237,80.10608 68.852092,161.35533 68.851305,261.58205 c 0.01993,36.16275 10.843426,71.49494 31.08201,101.46401 62.928215,5.37199 133.440135,7.99222 194.253975,-0.84369 58.07798,-8.4384 106.86032,-27.42794 133.43531,-62.89597 2.70954,-12.39396 4.11196,-25.03788 4.18426,-37.72435 C 431.80608,161.35533 350.55579,80.10608 250.32908,80.106547 Z m -59.54629,14.176278 c 19.36138,34.060555 36.08586,53.373845 56.70967,90.740035 2.05822,23.81925 10.46972,147.42412 11.34421,158.79163 -6.12203,-0.50031 -38.72176,-3.75838 -79.5828,-8.00366 -22.27748,-2.31457 -45.22328,-4.94282 -63.85594,-7.60461 l -29.531442,-7.0756 C 119.27654,262.09889 172.34743,169.51667 190.78279,94.282825 Z m 70.88822,96.410995 c -2e-5,0 77.79016,61.22122 110.58728,136.10776 -39.90313,19.67825 -76.69746,17.1493 -99.24534,17.01291 16.01319,-41.11845 15.98884,-96.81908 -11.34194,-153.12067 z m 53.87533,34.0258 c 14.10716,3.87672 30.14129,8.77936 45.37001,14.17856 27.6184,9.79187 53.2765,23.25444 68.05388,36.86242 -8.44931,15.58003 -24.0393,38.67973 -46.26551,49.84751 -4.78266,-23.31164 -14.15502,-36.78283 -29.84785,-58.80093 -10.07083,-14.13006 -20.35009,-30.72251 -37.31053,-42.08756 z m 104.42377,101.12882 c -30.50445,26.86512 -74.89897,41.33606 -124.02247,48.47343 -58.95617,8.56587 -125.6547,6.61236 -186.21156,1.81735 34.42761,42.2998 86.05373,66.87324 140.593,66.9206 75.40698,-0.0315 142.93754,-46.69092 169.64103,-117.21138 z"
     style="fill:#4c4c4c;fill-opacity:1;stroke:none;stroke-width:3;stroke-miterlimit:4;stroke-dasharray:none;stroke-opacity:1" />
  <path
     style="color:#000000;font-style:normal;font-variant:normal;font-weight:normal;font-stretch:normal;font-size:medium;line-height:normal;font-family:sans-serif;text-indent:0;text-align:start;text-decoration:none;text-decoration-line:none;text-decoration-style:solid;text-decoration-color:#000000;letter-spacing:normal;word-spacing:normal;text-transform:none;direction:ltr;block-progression:tb;writing-mode:lr-tb;baseline-shift:baseline;text-anchor:start;white-space:normal;clip-rule:nonzero;display:inline;overflow:visible;visibility:visible;opacity:1;isolation:auto;mix-blend-mode:normal;color-interpolation:sRGB;color-interpolation-filters:linearRGB;solid-color:#000000;solid-opacity:1;fill:#4c4c4c;fill-opacity:1;fill-rule:evenodd;stroke:none;stroke-width:4.31807232;stroke-linecap:butt;stroke-linejoin:miter;stroke-miterlimit:4;stroke-dasharray:none;stroke-dashoffset:0;stroke-opacity:1;color-rendering:auto;image-rendering:auto;shape-rendering:auto;text-rendering:auto;enable-background:accumulate"
     d="M 185.1107,68.763379 C 157.80189,157.96724 117.43305,242.85888 71.687591,323.96533 l -2.835577,5.67115 4.371241,2.25272 c 3.837467,1.78163 8.889396,2.97968 15.72858,4.3475 6.839209,1.36783 15.252175,2.73112 24.706075,4.08168 18.90785,2.70112 41.96143,5.34126 64.32663,7.66494 44.7304,4.64731 86.71769,8.03596 86.71769,8.03596 l 7.14433,0.57599 -0.54826,-7.14988 c 0,0 -11.07846,-144.13212 -13.14778,-167.8141 l -0.11091,-1.27933 -0.62029,-1.12981 C 244.30837,158.28459 193.38064,71.229366 185.1107,68.763379 Z m 5.67113,25.520194 c 19.36138,34.060557 36.08774,53.372287 56.71155,90.738467 2.05781,23.81349 10.15981,146.76607 11.03373,158.12638 -6.11792,-0.49996 -38.41597,-3.09809 -79.27987,-7.34369 -22.27745,-2.31456 -45.22317,-4.9422 -63.85586,-7.60402 -9.31632,-1.33088 -17.558347,-2.67539 -24.035938,-3.97091 -3.196014,-0.6392 -3.266226,-2.49755 -5.48997,-3.10006 C 119.27603,262.0972 172.34727,169.5179 190.78183,94.283573 Z"
     id="path4806-5"
     inkscape:connector-curvature="0"
     sodipodi:nodetypes="ccccsssccccccccccssscc" />
  <path
     style="color:#000000;font-style:normal;font-variant:normal;font-weight:normal;font-stretch:normal;font-size:medium;line-height:normal;font-family:sans-serif;text-indent:0;text-align:start;text-decoration:none;text-decoration-line:none;text-decoration-style:solid;text-decoration-color:#000000;letter-spacing:normal;word-spacing:normal;text-transform:none;direction:ltr;block-progression:tb;writing-mode:lr-tb;baseline-shift:baseline;text-anchor:start;white-space:normal;clip-rule:nonzero;display:inline;overflow:visible;visibility:visible;opacity:1;isolation:auto;mix-blend-mode:normal;color-interpolation:sRGB;color-interpolation-filters:linearRGB;solid-color:#000000;solid-opacity:1;fill:#4c4c4c;fill-opacity:1;fill-rule:evenodd;stroke:none;stroke-width:4.31807232;stroke-linecap:butt;stroke-linejoin:miter;stroke-miterlimit:4;stroke-dasharray:none;stroke-dashoffset:0;stroke-opacity:1;color-rendering:auto;image-rendering:auto;shape-rendering:auto;text-rendering:auto;enable-background:accumulate"
     d="m 281.5203,202.03551 3.35141,5.59475 c 37.23042,28.4543 97.50245,75.65905 86.20899,120.04987 l -3.12356,11.38107 11.10415,-3.99859 c 34.69465,-12.48334 51.1799,-36.67312 61.25134,-56.46653 l 2.83557,-5.67115 -5.67116,-5.67115 c -16.90891,-17.80665 -43.02673,-29.60912 -73.33021,-40.35296 -30.30349,-10.7438 -63.30772,-20.20683 -82.62653,-24.86531 z m 33.84573,22.54482 c 14.10246,3.87572 29.46568,8.46524 44.68805,13.8622 27.62027,9.79252 53.77,22.38393 68.54674,35.993 -8.44923,15.58124 -23.5512,35.13525 -45.78003,46.30428 -12.27057,-16.14045 -24.79528,-35.11024 -41.06818,-54.92257 -11.0104,-13.4052 -15.69956,-18.23335 -26.38658,-41.23691 z"
     id="path4810-6"
     inkscape:connector-curvature="0"
     sodipodi:nodetypes="ccccccccsccsccsc" />
  <circle
     inkscape:export-ydpi="90"
     inkscape:export-xdpi="90"
     r="181.68977"
     cy="261.36978"
     cx="250.54184"
     id="circle4812-0"
     style="fill:#500000;fill-opacity:0;stroke:none;stroke-width:3;stroke-miterlimit:4;stroke-dasharray:none;stroke-opacity:1" />
  <path
     style="fill:#4c4c4c;fill-opacity:1;stroke:none;stroke-width:3;stroke-miterlimit:4;stroke-dasharray:none;stroke-opacity:1"
     d="m 295.93705,374.31511 c -61.66739,8.7017 -124.48234,6.54431 -186.36674,1.81113 39.82372,50.78655 109.03707,76.37977 172.97012,64.04435 61.70255,-10.6057 115.78614,-55.79191 137.5726,-114.41648 -36.64103,25.99096 -79.93088,41.76588 -124.17598,48.561 z"
     id="path4814-1"
     inkscape:connector-curvature="0"
     sodipodi:nodetypes="ccccc" />
</svg>
