<?xml version="1.0" encoding="UTF-8" standalone="no"?>
<!-- Created with Inkscape (http://www.inkscape.org/) -->

<svg
   xmlns:dc="http://purl.org/dc/elements/1.1/"
   xmlns:cc="http://creativecommons.org/ns#"
   xmlns:rdf="http://www.w3.org/1999/02/22-rdf-syntax-ns#"
   xmlns:svg="http://www.w3.org/2000/svg"
   xmlns="http://www.w3.org/2000/svg"
   xmlns:xlink="http://www.w3.org/1999/xlink"
   xmlns:sodipodi="http://sodipodi.sourceforge.net/DTD/sodipodi-0.dtd"
   xmlns:inkscape="http://www.inkscape.org/namespaces/inkscape"
   version="1.0"
   width="22"
   height="22"
   id="svg3786"
   inkscape:version="0.91 r13725"
   sodipodi:docname="drive-harddisk.svg">
  <metadata
     id="metadata4321">
    <rdf:RDF>
      <cc:Work
         rdf:about="">
        <dc:format>image/svg+xml</dc:format>
        <dc:type
           rdf:resource="http://purl.org/dc/dcmitype/StillImage" />
      </cc:Work>
    </rdf:RDF>
  </metadata>
  <sodipodi:namedview
     pagecolor="#ffffff"
     bordercolor="#666666"
     borderopacity="1"
     objecttolerance="10"
     gridtolerance="10"
     guidetolerance="10"
     inkscape:pageopacity="0"
     inkscape:pageshadow="2"
     inkscape:window-width="1920"
     inkscape:window-height="1019"
     id="namedview4319"
     showgrid="false"
     inkscape:zoom="3.6610035"
     inkscape:cx="-135.01169"
     inkscape:cy="47.054069"
     inkscape:window-x="0"
     inkscape:window-y="13"
     inkscape:window-maximized="1"
     inkscape:current-layer="svg3786" />
  <defs
     id="defs3788">
    <radialGradient
       cx="113.0654"
       cy="97.587898"
       r="2.5631001"
       fx="113.667"
       fy="98"
       id="radialGradient4241"
       gradientUnits="userSpaceOnUse">
      <stop
         id="stop4243"
         style="stop-color:#eee;stop-opacity:1"
         offset="0" />
      <stop
         id="stop4245"
         style="stop-color:#cecece;stop-opacity:1"
         offset="0.16" />
      <stop
         id="stop4247"
         style="stop-color:#888;stop-opacity:1"
         offset="0.4675" />
      <stop
         id="stop4249"
         style="stop-color:#555;stop-opacity:1"
         offset="1" />
    </radialGradient>
    <linearGradient
       id="linearGradient4035">
      <stop
         id="stop4037"
         style="stop-color:#f5f5f5;stop-opacity:1"
         offset="0" />
      <stop
         id="stop4039"
         style="stop-color:#e7e7e7;stop-opacity:1"
         offset="0.47025558" />
      <stop
         id="stop4041"
         style="stop-color:#8c8c8c;stop-opacity:1"
         offset="0.69348532" />
      <stop
         id="stop4043"
         style="stop-color:#ddd;stop-opacity:1"
         offset="0.83542866" />
      <stop
         id="stop4045"
         style="stop-color:#a8a8a8;stop-opacity:1"
         offset="1" />
    </linearGradient>
    <linearGradient
       id="linearGradient5060">
      <stop
         id="stop5062"
         style="stop-color:black;stop-opacity:1"
         offset="0" />
      <stop
         id="stop5064"
         style="stop-color:black;stop-opacity:0"
         offset="1" />
    </linearGradient>
    <linearGradient
       id="linearGradient5048">
      <stop
         id="stop5050"
         style="stop-color:black;stop-opacity:0"
         offset="0" />
      <stop
         id="stop5056"
         style="stop-color:black;stop-opacity:1"
         offset="0.5" />
      <stop
         id="stop5052"
         style="stop-color:black;stop-opacity:0"
         offset="1" />
    </linearGradient>
    <linearGradient
       id="linearGradient2215">
      <stop
         id="stop2223"
         style="stop-color:#7a7a7a;stop-opacity:1"
         offset="0" />
      <stop
         id="stop2219"
         style="stop-color:#474747;stop-opacity:1"
         offset="1" />
    </linearGradient>
    <linearGradient
       id="linearGradient7609">
      <stop
         id="stop7611"
         style="stop-color:white;stop-opacity:1"
         offset="0" />
      <stop
         id="stop7677"
         style="stop-color:#e7e7e7;stop-opacity:1"
         offset="0.47025558" />
      <stop
         id="stop7613"
         style="stop-color:#8c8c8c;stop-opacity:1"
         offset="0.67183787" />
      <stop
         id="stop7617"
         style="stop-color:#ddd;stop-opacity:1"
         offset="0.83542866" />
      <stop
         id="stop7615"
         style="stop-color:#a8a8a8;stop-opacity:1"
         offset="1" />
    </linearGradient>
    <linearGradient
       id="linearGradient4236">
      <stop
         id="stop4238"
         style="stop-color:#eee;stop-opacity:1"
         offset="0" />
      <stop
         id="stop4240"
         style="stop-color:#eee;stop-opacity:0"
         offset="1" />
    </linearGradient>
    <linearGradient
       id="linearGradient7056">
      <stop
         id="stop7064"
         style="stop-color:#e6e6e6;stop-opacity:1"
         offset="0" />
      <stop
         id="stop7060"
         style="stop-color:#c8c8c8;stop-opacity:1"
         offset="1" />
    </linearGradient>
    <linearGradient
       id="linearGradient3484">
      <stop
         id="stop3486"
         style="stop-color:#969696;stop-opacity:1"
         offset="0" />
      <stop
         id="stop3488"
         style="stop-color:#b4b4b4;stop-opacity:1"
         offset="1" />
    </linearGradient>
    <linearGradient
       id="linearGradient6310-8">
      <stop
         id="stop6312-6"
         style="stop-color:white;stop-opacity:1"
         offset="0" />
      <stop
         id="stop6314-6"
         style="stop-color:white;stop-opacity:0"
         offset="1" />
    </linearGradient>
    <radialGradient
       cx="24"
       cy="42"
       r="21"
       fx="24"
       fy="42"
       id="radialGradient2896"
       xlink:href="#linearGradient6310-8"
       gradientUnits="userSpaceOnUse"
       gradientTransform="matrix(0.48135461,0,1.3387735e-8,0.17191233,-0.41559509,9.7741389)" />
    <radialGradient
       cx="127.31733"
       cy="143.82751"
       r="78.728165"
       fx="127.31733"
       fy="143.82751"
       id="radialGradient2902"
       xlink:href="#linearGradient4035"
       gradientUnits="userSpaceOnUse"
       gradientTransform="matrix(0.09171839,-0.01206074,0.00298127,0.04848905,-3.9955141,0.11271758)" />
    <linearGradient
       x1="12.277412"
       y1="37.205811"
       x2="12.221823"
       y2="33.758667"
       id="linearGradient2905"
       xlink:href="#linearGradient4236"
       gradientUnits="userSpaceOnUse"
       gradientTransform="matrix(0.49159623,0,0,0.43267832,-0.42771536,2.3026773)" />
    <linearGradient
       x1="7.0625"
       y1="35.28125"
       x2="24.6875"
       y2="35.28125"
       id="linearGradient2908"
       xlink:href="#linearGradient5060"
       gradientUnits="userSpaceOnUse"
       gradientTransform="matrix(0.49159623,0,0,0.43267832,-0.03665421,1.7290232)" />
    <radialGradient
       cx="142.62215"
       cy="191.85428"
       r="78.728165"
       fx="142.62215"
       fy="191.85428"
       id="radialGradient2920"
       xlink:href="#linearGradient7609"
       gradientUnits="userSpaceOnUse"
       gradientTransform="matrix(0.08902769,0,0,-0.06293378,-1.9131728,19.665222)" />
    <radialGradient
       cx="141.74666"
       cy="206.42612"
       r="78.728165"
       fx="141.74666"
       fy="206.42612"
       id="radialGradient2923"
       xlink:href="#linearGradient4035"
       gradientUnits="userSpaceOnUse"
       gradientTransform="matrix(0.16924852,-0.00241853,0.00125262,0.13915614,-13.423887,-14.157631)" />
    <radialGradient
       cx="11.734284"
       cy="8.4900017"
       r="23.047892"
       fx="11.734284"
       fy="8.4900017"
       id="radialGradient2927"
       xlink:href="#linearGradient7056"
       gradientUnits="userSpaceOnUse"
       gradientTransform="matrix(0.66268465,0.33559769,-0.22532618,0.44493813,-0.4392581,-3.4335738)" />
    <linearGradient
       x1="17.813944"
       y1="29.796696"
       x2="18.072828"
       y2="10.000001"
       id="linearGradient2929"
       xlink:href="#linearGradient3484"
       gradientUnits="userSpaceOnUse"
       gradientTransform="matrix(0.48135464,0,0,0.48135464,-0.41559608,-2.5004764)" />
    <linearGradient
       x1="29.9375"
       y1="41"
       x2="30"
       y2="49.999996"
       id="linearGradient2933"
       xlink:href="#linearGradient2215"
       gradientUnits="userSpaceOnUse"
       gradientTransform="matrix(0.48219711,0,0,0.36565639,-2.8468691,0.35709518)" />
    <radialGradient
       cx="605.71429"
       cy="486.64789"
       r="117.14286"
       fx="605.71429"
       fy="486.64789"
       id="radialGradient2936"
       xlink:href="#linearGradient5060"
       gradientUnits="userSpaceOnUse"
       gradientTransform="matrix(-0.02158753,0,0,0.00991025,15.281923,13.601567)" />
    <radialGradient
       cx="605.71429"
       cy="486.64789"
       r="117.14286"
       fx="605.71429"
       fy="486.64789"
       id="radialGradient2939"
       xlink:href="#linearGradient5060"
       gradientUnits="userSpaceOnUse"
       gradientTransform="matrix(0.02158753,0,0,0.00991025,6.9919131,13.601567)" />
    <linearGradient
       x1="302.85715"
       y1="366.64789"
       x2="302.85715"
       y2="609.50507"
       id="linearGradient2942"
       xlink:href="#linearGradient5048"
       gradientUnits="userSpaceOnUse"
       gradientTransform="matrix(0.03675458,0,0,0.00991025,-2.1472349,13.601567)" />
    <radialGradient
       cx="113.0654"
       cy="97.587898"
       r="2.5631001"
       fx="113.667"
       fy="98"
       id="radialGradient2947"
       xlink:href="#radialGradient4241"
       gradientUnits="userSpaceOnUse"
       gradientTransform="matrix(0.15860092,0,0,0.16835207,2.4989694,-1.7813466)" />
    <radialGradient
       cx="113.0654"
       cy="97.587898"
       r="2.5631001"
       fx="113.667"
       fy="98"
       id="radialGradient2953"
       xlink:href="#radialGradient4241"
       gradientUnits="userSpaceOnUse"
       gradientTransform="matrix(0.10750193,0.01655525,-0.01107391,0.0719088,6.7043332,-5.6926733)" />
    <radialGradient
       cx="113.0654"
       cy="97.587898"
       r="2.5631001"
       fx="113.667"
       fy="98"
       id="radialGradient2959"
       xlink:href="#radialGradient4241"
       gradientUnits="userSpaceOnUse"
       gradientTransform="matrix(0.10725914,-0.01806153,0.01208149,0.07174638,-9.1502176,-1.7628363)" />
    <radialGradient
       cx="113.0654"
       cy="97.587898"
       r="2.5631001"
       fx="113.667"
       fy="98"
       id="radialGradient2965"
       xlink:href="#radialGradient4241"
       gradientUnits="userSpaceOnUse"
       gradientTransform="matrix(-0.15860092,0,0,0.16835207,19.783509,-1.7813466)" />
  </defs>
  <rect
     width="17.747208"
     height="2.4067731"
     x="2.263303"
     y="17.235132"
     id="rect2723"
     style="display:inline;overflow:visible;visibility:visible;opacity:0.3;fill:url(#linearGradient2942);fill-opacity:1;fill-rule:nonzero;stroke:none;stroke-width:0.5;marker:none" />
  <path
     d="m 20.001865,17.235217 c 0,0 0,2.40664 0,2.40664 1.111704,0.0045 2.687563,-0.539206 2.687563,-1.203474 0,-0.664267 -1.240577,-1.203166 -2.687563,-1.203166 z"
     id="path2725"
     style="display:inline;overflow:visible;visibility:visible;opacity:0.3;fill:url(#radialGradient2939);fill-opacity:1;fill-rule:nonzero;stroke:none;stroke-width:0.5;marker:none"
     inkscape:connector-curvature="0" />
  <path
     d="m 2.2719665,17.235217 c 0,0 0,2.40664 0,2.40664 -1.1117079,0.0045 -2.68756261,-0.539206 -2.68756261,-1.203474 0,-0.664267 1.24058161,-1.203166 2.68756261,-1.203166 z"
     id="path2727"
     style="display:inline;overflow:visible;visibility:visible;opacity:0.3;fill:url(#radialGradient2936);fill-opacity:1;fill-rule:nonzero;stroke:none;stroke-width:1;marker:none"
     inkscape:connector-curvature="0" />
  <path
     d="m 0.28903738,15.533065 21.69561662,0 -0.433797,2.922785 -20.77980107,0 -0.48201855,-2.922785 z"
     id="rect6431"
     style="display:inline;fill:url(#linearGradient2933);fill-opacity:1;fill-rule:evenodd;stroke:#353537;stroke-width:0.44669658;stroke-linecap:round;stroke-linejoin:round;stroke-miterlimit:4;stroke-dasharray:none;stroke-dashoffset:0;stroke-opacity:1;enable-background:new"
     inkscape:connector-curvature="0" />
  <rect
     width="21.660957"
     height="0.48135462"
     x="0.30643642"
     y="15.309646"
     id="rect6381"
     style="display:inline;fill:#d2d2d3;fill-opacity:1;fill-rule:evenodd;stroke:none;enable-background:new" />
  <path
     d="M 21.991462,15.599472 18.713615,3.1928755 C 18.620931,2.839575 18.135412,2.5527322 17.727239,2.5527322 l -13.2936761,0 c -0.6270804,0 -0.9864191,0.095582 -1.1186491,0.6401433 L 0.28236868,15.587393"
     id="path6345"
     style="display:inline;overflow:visible;visibility:visible;fill:url(#radialGradient2927);fill-opacity:1;fill-rule:nonzero;stroke:url(#linearGradient2929);stroke-width:0.479325;stroke-linecap:round;stroke-linejoin:round;stroke-miterlimit:4;stroke-dasharray:none;stroke-dashoffset:0;stroke-opacity:1;marker:none;enable-background:accumulate"
     inkscape:connector-curvature="0" />
  <path
     d="M 21.486042,15.550322 0.78779108,15.538745"
     id="path7046"
     style="display:inline;overflow:visible;visibility:visible;opacity:0.4;fill:none;stroke:#ffffff;stroke-width:0.48135462;stroke-linecap:round;stroke-linejoin:miter;stroke-miterlimit:4;stroke-dasharray:none;stroke-dashoffset:0;stroke-opacity:1;marker:none;enable-background:accumulate"
     inkscape:connector-curvature="0" />
  <path
     d="M 19.306176,10.194751 C 19.201396,9.2330166 18.499182,8.3159659 17.33243,7.592321 17.308955,7.314165 17.009896,3.7558337 17.009896,3.7558337 16.986969,3.4822966 16.63841,3.2758496 16.198805,3.2758496 l -2.758772,0 c -0.442766,0 -0.785032,0.2091597 -0.796196,0.4865074 C 12.593215,5.0154218 11.049579,5.6696648 8.7469709,6.2648245 7.9401626,6.4045801 5.8366979,7.0615407 5.3539198,7.3498853 3.9327504,8.1073472 3.085186,9.117165 2.9677463,10.194751 c -0.1068318,0.980071 0.4066607,1.960823 1.4459245,2.761612 1.5211096,1.17212 4.0344,1.871998 6.7231952,1.871998 2.688799,0 5.202084,-0.699878 6.723386,-1.871998 0.949184,-0.731249 1.459693,-1.612853 1.459693,-2.50681 0,-0.0849 -0.005,-0.169915 -0.0138,-0.254802 l 2.8e-5,0 z m -8.16931,4.147513 c -4.4782829,0 -7.9074457,-1.964083 -7.6593529,-4.24082 C 3.5845315,9.1198786 4.3701189,8.0720357 5.6710558,7.3815316 5.91468,7.1979026 8.1149289,6.4836276 8.9042374,6.3581294 11.091829,5.793939 13.092375,5.0617372 13.155092,3.518696 c 0.0028,-0.073885 0.128791,-0.1324241 0.284941,-0.1324241 l 2.758404,0 c 0.159685,0 0.294444,0.061389 0.30077,0.1371784 l 0.334995,3.9865666 c 1.159494,0.6718952 1.862075,1.6747811 1.961835,2.5914271 0.248273,2.276737 -3.180884,4.24082 -7.659171,4.24082 l 0,0 z"
     id="path9001"
     style="fill:url(#radialGradient2923);fill-opacity:1"
     inkscape:connector-curvature="0" />
  <path
     d="m 11.136806,11.458878 c -1.6197425,0 -2.8614384,-0.609932 -2.8876107,-1.41895 -2.064e-4,-0.0087 -4.077e-4,-0.01734 -4.077e-4,-0.02594 0,-0.2927476 0.1627455,-0.571167 0.4719988,-0.8069056 C 9.243924,8.8086023 10.14714,8.5707519 11.137005,8.5707519 c 0.989663,0 1.892875,0.2378504 2.416013,0.6363265 0.318386,0.2423726 0.481544,0.5304467 0.471597,0.8326976 -0.02659,0.809019 -1.268277,1.4191 -2.887809,1.4191 l 0,2e-6 z m 0,-2.4354999 c -1.5219376,0 -2.2973099,0.6045002 -2.2790456,1.1563639 0.01765,0.543268 1.0379607,0.977339 2.2790456,0.977339 1.241082,0 2.261381,-0.434224 2.279038,-0.977339 0.01805,-0.5520161 -0.757109,-1.1563639 -2.279038,-1.1563639 l 0,0 z"
     id="path9003"
     style="display:inline;overflow:visible;visibility:visible;fill:url(#radialGradient2920);fill-opacity:1;fill-rule:nonzero;stroke-width:1;stroke-linecap:butt;stroke-linejoin:miter;stroke-miterlimit:4;stroke-dasharray:none;stroke-dashoffset:0;stroke-opacity:1;marker:none;enable-background:accumulate"
     inkscape:connector-curvature="0" />
  <path
     d="m 2.4801479,14.645101 c -0.019988,0.286536 -0.3192637,0.520208 -0.6681851,0.520208 -0.3487639,0 -0.6128342,-0.233672 -0.58952,-0.520208 0.02315,-0.28502 0.3222774,-0.515158 0.6677105,-0.515158 0.3455905,1.36e-4 0.609662,0.230138 0.5899946,0.515158 z"
     id="path9007"
     style="fill:#e1e1e1;fill-opacity:1"
     inkscape:connector-curvature="0" />
  <path
     d="m 2.2544586,14.443583 c 0.031874,0.03636 0.068354,0.09462 0.068354,0.172057 0,0.0056 -3.183e-4,0.01111 -6.355e-4,0.01701 -0.013797,0.197477 -0.2474176,0.364314 -0.5100606,0.364314 -0.1495608,0 -0.2862744,-0.05473 -0.3655752,-0.146634 -0.034101,-0.03923 -0.072959,-0.104206 -0.065975,-0.190744 0.016024,-0.195792 0.249321,-0.361283 0.5097445,-0.361283 0.1484505,1.35e-4 0.2846883,0.05437 0.3641466,0.145288 l 1.1e-6,0 z"
     id="path9009"
     style="fill:url(#radialGradient2965);fill-opacity:1"
     inkscape:connector-curvature="0" />
  <path
     d="m 3.7305694,3.2670906 c 0.03408,0.1198372 0.2532445,0.185338 0.4892148,0.1456028 C 4.4556469,3.3729805 4.6174642,3.2433198 4.581135,3.1238629 4.5450213,3.0050333 4.326215,2.9410198 4.0926044,2.9803576 3.8588962,3.0197757 3.6968154,3.1478635 3.7305694,3.2670906 Z"
     id="path9019"
     style="fill:#f0f0f0;fill-opacity:1"
     inkscape:connector-curvature="0" />
  <path
     d="m 3.868738,3.1555092 c -0.018951,0.019125 -0.039439,0.048111 -0.033877,0.081113 3.995e-4,0.00234 0.00101,0.00467 0.00162,0.00722 0.023506,0.082588 0.1934687,0.1270823 0.3710898,0.097178 0.1011427,-0.01703 0.1896763,-0.05592 0.2367095,-0.1041226 0.020242,-0.020599 0.041858,-0.052717 0.030928,-0.0888 C 4.4503265,3.0664845 4.2806784,3.0225208 4.1045579,3.0521794 4.0041776,3.0691382 3.9159308,3.1077734 3.8687175,3.1555651 l -9e-7,1e-6 z"
     id="path9021"
     style="fill:url(#radialGradient2959);fill-opacity:1"
     inkscape:connector-curvature="0" />
  <path
     d="m 17.352291,3.1297883 c -0.0053,0.1244755 0.182183,0.2555239 0.418688,0.2919457 0.236397,0.036408 0.430757,-0.03584 0.433802,-0.1606624 0.0031,-0.1241581 -0.184556,-0.2536806 -0.418698,-0.2897383 -0.234255,-0.036012 -0.428374,0.03466 -0.433792,0.158455 z"
     id="path9025"
     style="fill:#e1e1e1;fill-opacity:1"
     inkscape:connector-curvature="0" />
  <path
     d="m 17.518522,3.0672715 c -0.024,0.012201 -0.05255,0.033277 -0.05765,0.066361 -3.66e-4,0.00234 -5.29e-4,0.00478 -6.74e-4,0.00732 -0.0036,0.085791 0.143739,0.181437 0.321762,0.2088517 0.101378,0.015607 0.19764,0.00651 0.257438,-0.024472 0.02569,-0.013197 0.0563,-0.036897 0.05727,-0.074586 0.002,-0.085303 -0.145227,-0.1803408 -0.321746,-0.2075248 -0.100638,-0.015434 -0.196543,-0.00651 -0.256382,0.024045 l 0,0 z"
     id="path9027"
     style="fill:url(#radialGradient2953);fill-opacity:1"
     inkscape:connector-curvature="0" />
  <path
     d="m 3.1945643,15.791069 8.9050647,0 0,2.406773 -8.6643829,0 -0.2406818,-2.406773 z"
     id="rect8993"
     style="display:inline;overflow:visible;visibility:visible;fill:url(#linearGradient2908);fill-opacity:1;fill-rule:evenodd;stroke:none;stroke-width:2.40899992;marker:none"
     inkscape:connector-curvature="0" />
  <path
     d="m 3.4352451,18.197841 c 0,0 -0.1925455,-1.735682 -0.1925455,-1.735682 0.9023378,1.375582 4.271069,1.735682 6.5525707,1.735682 0,0 -6.3600252,0 -6.3600252,0 z"
     id="path8995"
     style="opacity:0.81142853;fill:url(#linearGradient2905);fill-opacity:1;fill-rule:evenodd;stroke:none"
     inkscape:connector-curvature="0" />
  <path
     d="m 4.8343368,3.2758496 -0.049707,0.1834001 -0.7421288,2.7297085 -0.1259009,0.456374 0.367754,-0.098103 6.2550952,-1.7060675 0.01987,-0.00854 0.01657,-0.00854 c 0.331239,-0.1705751 0.508231,-0.515272 0.549973,-0.8317135 0.02089,-0.1582222 0.01463,-0.3131574 -0.03973,-0.456372 -0.05133,-0.1352007 -0.184973,-0.2554923 -0.324681,-0.2516461 l 0,-0.00854 -0.0232,0 -5.7548175,0 -0.1490901,0 1.63e-5,10e-7 z m 0.2117166,0.1686548 5.7649656,0 c 0.0028,0.023039 0.0092,0.035829 0.0032,0.079426 -0.01809,0.1371964 -0.09589,0.6280229 -0.291336,0.7350962 l -6.0631712,1.654649 0.5860936,-2.4691681 1.881e-4,0 z"
     id="path9039"
     style="display:inline;overflow:visible;visibility:visible;fill:url(#radialGradient2902);fill-opacity:1;fill-rule:nonzero;stroke:none;stroke-width:1;marker:none;enable-background:accumulate"
     inkscape:connector-curvature="0" />
  <path
     d="m 19.802331,14.645101 c 0.01999,0.286536 0.319264,0.520208 0.668186,0.520208 0.348764,0 0.612834,-0.233672 0.589519,-0.520208 -0.02316,-0.28502 -0.322276,-0.515158 -0.667709,-0.515158 -0.345592,1.36e-4 -0.609663,0.230138 -0.589996,0.515158 z"
     id="path9091"
     style="fill:#e1e1e1;fill-opacity:1"
     inkscape:connector-curvature="0" />
  <path
     d="m 20.02802,14.443583 c -0.03189,0.03636 -0.06836,0.09462 -0.06836,0.172057 0,0.0056 3.18e-4,0.01111 6.26e-4,0.01701 0.01379,0.197477 0.247418,0.364314 0.510061,0.364314 0.149561,0 0.286275,-0.05473 0.365575,-0.146634 0.03411,-0.03923 0.07296,-0.104206 0.06597,-0.190744 -0.01603,-0.195792 -0.24932,-0.361283 -0.509743,-0.361283 -0.148451,1.35e-4 -0.284689,0.05437 -0.364147,0.145288 l -2e-6,0 z"
     id="path9093"
     style="fill:url(#radialGradient2947);fill-opacity:1"
     inkscape:connector-curvature="0" />
  <rect
     width="20.216896"
     height="2.4067731"
     x="1.0284681"
     y="15.791069"
     id="rect6300-3"
     style="opacity:0.3;fill:url(#radialGradient2896);fill-opacity:1;stroke:none" />
</svg>
