<?xml version="1.0" encoding="UTF-8" standalone="no"?>
<!-- Created with Inkscape (http://www.inkscape.org/) -->

<svg
   xmlns:dc="http://purl.org/dc/elements/1.1/"
   xmlns:cc="http://creativecommons.org/ns#"
   xmlns:rdf="http://www.w3.org/1999/02/22-rdf-syntax-ns#"
   xmlns:svg="http://www.w3.org/2000/svg"
   xmlns="http://www.w3.org/2000/svg"
   xmlns:xlink="http://www.w3.org/1999/xlink"
   xmlns:sodipodi="http://sodipodi.sourceforge.net/DTD/sodipodi-0.dtd"
   xmlns:inkscape="http://www.inkscape.org/namespaces/inkscape"
   version="1.0"
   width="16"
   height="16"
   id="svg3786"
   inkscape:version="0.91 r13725"
   sodipodi:docname="drive-harddisk.svg">
  <metadata
     id="metadata4321">
    <rdf:RDF>
      <cc:Work
         rdf:about="">
        <dc:format>image/svg+xml</dc:format>
        <dc:type
           rdf:resource="http://purl.org/dc/dcmitype/StillImage" />
      </cc:Work>
    </rdf:RDF>
  </metadata>
  <sodipodi:namedview
     pagecolor="#ffffff"
     bordercolor="#666666"
     borderopacity="1"
     objecttolerance="10"
     gridtolerance="10"
     guidetolerance="10"
     inkscape:pageopacity="0"
     inkscape:pageshadow="2"
     inkscape:window-width="1920"
     inkscape:window-height="1019"
     id="namedview4319"
     showgrid="false"
     inkscape:zoom="48.744141"
     inkscape:cx="14.150161"
     inkscape:cy="6.5864164"
     inkscape:window-x="0"
     inkscape:window-y="13"
     inkscape:window-maximized="1"
     inkscape:current-layer="svg3786" />
  <defs
     id="defs3788">
    <radialGradient
       cx="113.0654"
       cy="97.587898"
       r="2.5631001"
       fx="113.667"
       fy="98"
       id="radialGradient4241"
       gradientUnits="userSpaceOnUse">
      <stop
         id="stop4243"
         style="stop-color:#eee;stop-opacity:1"
         offset="0" />
      <stop
         id="stop4245"
         style="stop-color:#cecece;stop-opacity:1"
         offset="0.16" />
      <stop
         id="stop4247"
         style="stop-color:#888;stop-opacity:1"
         offset="0.4675" />
      <stop
         id="stop4249"
         style="stop-color:#555;stop-opacity:1"
         offset="1" />
    </radialGradient>
    <linearGradient
       id="linearGradient4035">
      <stop
         id="stop4037"
         style="stop-color:#f5f5f5;stop-opacity:1"
         offset="0" />
      <stop
         id="stop4039"
         style="stop-color:#e7e7e7;stop-opacity:1"
         offset="0.47025558" />
      <stop
         id="stop4041"
         style="stop-color:#8c8c8c;stop-opacity:1"
         offset="0.69348532" />
      <stop
         id="stop4043"
         style="stop-color:#ddd;stop-opacity:1"
         offset="0.83542866" />
      <stop
         id="stop4045"
         style="stop-color:#a8a8a8;stop-opacity:1"
         offset="1" />
    </linearGradient>
    <linearGradient
       id="linearGradient5060">
      <stop
         id="stop5062"
         style="stop-color:black;stop-opacity:1"
         offset="0" />
      <stop
         id="stop5064"
         style="stop-color:black;stop-opacity:0"
         offset="1" />
    </linearGradient>
    <linearGradient
       id="linearGradient5048">
      <stop
         id="stop5050"
         style="stop-color:black;stop-opacity:0"
         offset="0" />
      <stop
         id="stop5056"
         style="stop-color:black;stop-opacity:1"
         offset="0.5" />
      <stop
         id="stop5052"
         style="stop-color:black;stop-opacity:0"
         offset="1" />
    </linearGradient>
    <linearGradient
       id="linearGradient2215">
      <stop
         id="stop2223"
         style="stop-color:#7a7a7a;stop-opacity:1"
         offset="0" />
      <stop
         id="stop2219"
         style="stop-color:#474747;stop-opacity:1"
         offset="1" />
    </linearGradient>
    <linearGradient
       id="linearGradient7609">
      <stop
         id="stop7611"
         style="stop-color:white;stop-opacity:1"
         offset="0" />
      <stop
         id="stop7677"
         style="stop-color:#e7e7e7;stop-opacity:1"
         offset="0.47025558" />
      <stop
         id="stop7613"
         style="stop-color:#8c8c8c;stop-opacity:1"
         offset="0.67183787" />
      <stop
         id="stop7617"
         style="stop-color:#ddd;stop-opacity:1"
         offset="0.83542866" />
      <stop
         id="stop7615"
         style="stop-color:#a8a8a8;stop-opacity:1"
         offset="1" />
    </linearGradient>
    <linearGradient
       id="linearGradient4236">
      <stop
         id="stop4238"
         style="stop-color:#eee;stop-opacity:1"
         offset="0" />
      <stop
         id="stop4240"
         style="stop-color:#eee;stop-opacity:0"
         offset="1" />
    </linearGradient>
    <linearGradient
       id="linearGradient7056">
      <stop
         id="stop7064"
         style="stop-color:#e6e6e6;stop-opacity:1"
         offset="0" />
      <stop
         id="stop7060"
         style="stop-color:#c8c8c8;stop-opacity:1"
         offset="1" />
    </linearGradient>
    <linearGradient
       id="linearGradient3484">
      <stop
         id="stop3486"
         style="stop-color:#969696;stop-opacity:1"
         offset="0" />
      <stop
         id="stop3488"
         style="stop-color:#b4b4b4;stop-opacity:1"
         offset="1" />
    </linearGradient>
    <linearGradient
       id="linearGradient6310-8">
      <stop
         id="stop6312-6"
         style="stop-color:white;stop-opacity:1"
         offset="0" />
      <stop
         id="stop6314-6"
         style="stop-color:white;stop-opacity:0"
         offset="1" />
    </linearGradient>
    <radialGradient
       cx="24"
       cy="42"
       r="21"
       fx="24"
       fy="42"
       id="radialGradient2896"
       xlink:href="#linearGradient6310-8"
       gradientUnits="userSpaceOnUse"
       gradientTransform="matrix(0.3104204,0,0,0.11086442,-15.492942,7.7136082)" />
    <radialGradient
       cx="127.31733"
       cy="143.82751"
       r="78.728165"
       fx="127.31733"
       fy="143.82751"
       id="radialGradient2902"
       xlink:href="#linearGradient4035"
       gradientUnits="userSpaceOnUse"
       gradientTransform="matrix(-0.0591482,-0.00777784,-0.00192259,0.03127007,17.801593,1.4830614)" />
    <linearGradient
       x1="12.277412"
       y1="37.205811"
       x2="12.221823"
       y2="33.758667"
       id="linearGradient2905"
       xlink:href="#linearGradient4236"
       gradientUnits="userSpaceOnUse"
       gradientTransform="matrix(-0.31702511,0,0,0.27902959,15.500758,2.8953435)" />
    <linearGradient
       x1="7.0625"
       y1="35.28125"
       x2="24.6875"
       y2="35.28125"
       id="linearGradient2908"
       xlink:href="#linearGradient5060"
       gradientUnits="userSpaceOnUse"
       gradientTransform="matrix(-0.31702511,0,0,0.27902959,15.248567,2.5253999)" />
    <radialGradient
       cx="142.62215"
       cy="191.85428"
       r="78.728165"
       fx="142.62215"
       fy="191.85428"
       id="radialGradient2920"
       xlink:href="#linearGradient7609"
       gradientUnits="userSpaceOnUse"
       gradientTransform="matrix(-0.057413,0,0,-0.04058531,16.458713,14.092262)" />
    <radialGradient
       cx="141.74666"
       cy="206.42612"
       r="78.728165"
       fx="141.74666"
       fy="206.42612"
       id="radialGradient2923"
       xlink:href="#linearGradient4035"
       gradientUnits="userSpaceOnUse"
       gradientTransform="matrix(-0.10914655,-0.00155967,-8.0779776e-4,0.08974029,23.881849,-7.7197318)" />
    <radialGradient
       cx="11.734284"
       cy="8.4900017"
       r="23.047892"
       fx="11.734284"
       fy="8.4900017"
       id="radialGradient2927"
       xlink:href="#linearGradient7056"
       gradientUnits="userSpaceOnUse"
       gradientTransform="matrix(-0.42735819,0.21642334,0.14531043,0.28693581,15.508202,-0.80390309)" />
    <linearGradient
       x1="17.813944"
       y1="29.796696"
       x2="18.072828"
       y2="10.000001"
       id="linearGradient2929"
       xlink:href="#linearGradient3484"
       gradientUnits="userSpaceOnUse"
       gradientTransform="matrix(-0.31042042,0,0,0.31042042,15.492942,-0.20215949)" />
    <linearGradient
       x1="29.9375"
       y1="41"
       x2="30"
       y2="49.999996"
       id="linearGradient2933"
       xlink:href="#linearGradient2215"
       gradientUnits="userSpaceOnUse"
       gradientTransform="matrix(-0.31096372,0,0,0.23580787,17.060844,1.6406579)" />
    <radialGradient
       cx="605.71429"
       cy="486.64789"
       r="117.14286"
       fx="605.71429"
       fy="486.64789"
       id="radialGradient2936"
       xlink:href="#linearGradient5060"
       gradientUnits="userSpaceOnUse"
       gradientTransform="matrix(0.01392157,0,0,0.00639101,5.3697819,10.181876)" />
    <radialGradient
       cx="605.71429"
       cy="486.64789"
       r="117.14286"
       fx="605.71429"
       fy="486.64789"
       id="radialGradient2939"
       xlink:href="#linearGradient5060"
       gradientUnits="userSpaceOnUse"
       gradientTransform="matrix(-0.01392157,0,0,0.00639101,10.71592,10.181876)" />
    <linearGradient
       x1="302.85715"
       y1="366.64789"
       x2="302.85715"
       y2="609.50507"
       id="linearGradient2942"
       xlink:href="#linearGradient5048"
       gradientUnits="userSpaceOnUse"
       gradientTransform="matrix(0.02370263,0,0,0.00639101,-16.609657,10.181876)" />
    <radialGradient
       cx="113.0654"
       cy="97.587898"
       r="2.5631001"
       fx="113.667"
       fy="98"
       id="radialGradient2947"
       xlink:href="#radialGradient4241"
       gradientUnits="userSpaceOnUse"
       gradientTransform="matrix(-0.10228003,0,0,0.10856843,13.61337,0.26160011)" />
    <radialGradient
       cx="113.0654"
       cy="97.587898"
       r="2.5631001"
       fx="113.667"
       fy="98"
       id="radialGradient2953"
       xlink:href="#radialGradient4241"
       gradientUnits="userSpaceOnUse"
       gradientTransform="matrix(-0.06932684,0.0106763,0.00714144,0.04637321,10.901377,-2.2607724)" />
    <radialGradient
       cx="113.0654"
       cy="97.587898"
       r="2.5631001"
       fx="113.667"
       fy="98"
       id="radialGradient2959"
       xlink:href="#radialGradient4241"
       gradientUnits="userSpaceOnUse"
       gradientTransform="matrix(-0.06917027,-0.01164768,-0.00779121,0.04626847,21.125805,0.27353741)" />
    <radialGradient
       cx="113.0654"
       cy="97.587898"
       r="2.5631001"
       fx="113.667"
       fy="98"
       id="radialGradient2965"
       xlink:href="#radialGradient4241"
       gradientUnits="userSpaceOnUse"
       gradientTransform="matrix(0.10228003,0,0,0.10856843,2.4667577,0.26160011)" />
  </defs>
  <rect
     width="11.444983"
     height="1.5521021"
     x="-13.765348"
     y="12.525126"
     id="rect2723"
     style="display:inline;overflow:visible;visibility:visible;opacity:0.3;fill:url(#linearGradient2942);fill-opacity:1;fill-rule:nonzero;stroke:none;stroke-width:0.5;marker:none"
     transform="scale(-1,1)" />
  <path
     d="m 2.3259414,12.525178 c 0,0 0,1.552017 0,1.552017 -0.7169247,0.0029 -1.7331797,-0.347729 -1.7331797,-0.776108 0,-0.42838 0.8000346,-0.775909 1.7331797,-0.775909 z"
     id="path2725"
     style="display:inline;overflow:visible;visibility:visible;opacity:0.3;fill:url(#radialGradient2939);fill-opacity:1;fill-rule:nonzero;stroke:none;stroke-width:0.5;marker:none"
     inkscape:connector-curvature="0" />
  <path
     d="m 13.759763,12.525178 c 0,0 0,1.552017 0,1.552017 0.716928,0.0029 1.733179,-0.347729 1.733179,-0.776108 0,-0.42838 -0.800037,-0.775909 -1.733179,-0.775909 z"
     id="path2727"
     style="display:inline;overflow:visible;visibility:visible;opacity:0.3;fill:url(#radialGradient2936);fill-opacity:1;fill-rule:nonzero;stroke:none;stroke-width:1;marker:none"
     inkscape:connector-curvature="0" />
  <path
     d="m 15.038532,11.427478 -13.9912695,0 0.2797522,1.884873 13.4006683,0 0.310849,-1.884873 z"
     id="rect6431"
     style="display:inline;fill:url(#linearGradient2933);fill-opacity:1;fill-rule:evenodd;stroke:#353537;stroke-width:0.28806981;stroke-linecap:round;stroke-linejoin:round;stroke-miterlimit:4;stroke-dasharray:none;stroke-dashoffset:0;stroke-opacity:1;enable-background:new"
     inkscape:connector-curvature="0" />
  <rect
     width="13.968919"
     height="0.31042042"
     x="-15.02731"
     y="11.283398"
     id="rect6381"
     style="display:inline;fill:#d2d2d3;fill-opacity:1;fill-rule:evenodd;stroke:none;enable-background:new"
     transform="scale(-1,1)" />
  <path
     d="M 1.0428715,11.470304 3.1567213,3.4694227 c 0.059774,-0.2278404 0.3728761,-0.412821 0.6361025,-0.412821 l 8.5729482,0 c 0.404397,0 0.636131,0.061639 0.721405,0.412821 l 1.955656,7.9930913"
     id="path6345"
     style="display:inline;overflow:visible;visibility:visible;fill:url(#radialGradient2927);fill-opacity:1;fill-rule:nonzero;stroke:url(#linearGradient2929);stroke-width:0.30911154;stroke-linecap:round;stroke-linejoin:round;stroke-miterlimit:4;stroke-dasharray:none;stroke-dashoffset:0;stroke-opacity:1;marker:none;enable-background:accumulate"
     inkscape:connector-curvature="0" />
  <path
     d="m 1.3688123,11.438607 13.3480787,-0.0074"
     id="path7046"
     style="display:inline;overflow:visible;visibility:visible;opacity:0.4;fill:none;stroke:#ffffff;stroke-width:0.31042042;stroke-linecap:round;stroke-linejoin:miter;stroke-miterlimit:4;stroke-dasharray:none;stroke-dashoffset:0;stroke-opacity:1;marker:none;enable-background:accumulate"
     inkscape:connector-curvature="0" />
  <path
     d="M 2.7745844,7.9848568 C 2.8421518,7.3646446 3.2950068,6.7732481 4.0474314,6.3065772 4.0625722,6.1271974 4.2554302,3.8324686 4.2554302,3.8324686 4.2702092,3.6560668 4.4949973,3.5229312 4.7784939,3.5229312 l 1.7791029,0 c 0.2855348,0 0.5062585,0.1348853 0.5134578,0.3137438 0.032647,0.8080882 1.0281199,1.230002 2.5130468,1.6138144 0.5203016,0.09013 1.8768036,0.5137937 2.1881426,0.6997438 0.916496,0.4884793 1.463081,1.1396994 1.538817,1.8346236 0.06889,0.6320371 -0.262251,1.2645141 -0.932461,1.7809342 -0.980947,0.755888 -2.6017409,1.207231 -4.3357153,1.207231 -1.7339775,0 -3.3547686,-0.451343 -4.335839,-1.207231 C 3.0949262,9.2942161 2.7657049,8.7256791 2.7657049,8.1491756 c 0,-0.054746 0.00325,-0.1095756 0.00891,-0.1643188 l -1.77e-5,0 z m 5.2683003,2.6746862 c 2.8879953,0 5.0994263,-1.2666152 4.9394343,-2.7348586 C 12.913304,7.2916833 12.406687,6.6159402 11.567726,6.1706417 11.410615,6.0522219 9.9916991,5.5915934 9.4826825,5.5106609 8.0719286,5.14682 6.7817977,4.6746319 6.7413518,3.6795405 6.7395891,3.6318917 6.6583004,3.5941419 6.5575968,3.5941419 l -1.7788654,0 c -0.1029784,0 -0.1898828,0.039587 -0.193963,0.088469 L 4.3687344,6.2535048 C 3.6209884,6.686803 3.1679005,7.3335532 3.1035681,7.924689 2.9434584,9.3929324 5.1548853,10.659548 8.0428847,10.659548 l 0,0 z"
     id="path9001"
     style="fill:url(#radialGradient2923);fill-opacity:1"
     inkscape:connector-curvature="0" />
  <path
     d="m 8.0429236,8.8000784 c 1.0445539,0 1.8453105,-0.3933384 1.8621885,-0.9150643 1.33e-4,-0.00566 2.63e-4,-0.011189 2.63e-4,-0.016736 0,-0.18879 -0.104953,-0.3683396 -0.304387,-0.5203649 C 9.2636214,7.0909394 8.681147,6.9375521 8.0427947,6.9375521 c -0.6382234,0 -1.2206941,0.1533873 -1.5580609,0.4103607 C 6.2794096,7.504216 6.1741907,7.6899926 6.180607,7.8849111 6.1977516,8.4066379 6.9985033,8.8000738 8.0429236,8.8000738 l 0,9e-7 z m 0,-1.5706271 c 0.9814805,0 1.4815092,0.3898353 1.4697315,0.7457263 C 9.5012721,8.3255255 8.8432857,8.605454 8.0429236,8.605454 7.2425625,8.605454 6.5845829,8.3254271 6.5731958,7.9751776 6.5615618,7.6191882 7.0614478,7.2294513 8.0429236,7.2294513 l 0,0 z"
     id="path9003"
     style="display:inline;overflow:visible;visibility:visible;fill:url(#radialGradient2920);fill-opacity:1;fill-rule:nonzero;stroke-width:1;stroke-linecap:butt;stroke-linejoin:miter;stroke-miterlimit:4;stroke-dasharray:none;stroke-dashoffset:0;stroke-opacity:1;marker:none;enable-background:accumulate"
     inkscape:connector-curvature="0" />
  <path
     d="m 13.625507,10.854839 c 0.01289,0.184784 0.205891,0.335477 0.430907,0.335477 0.224913,0 0.39521,-0.150693 0.380175,-0.335477 -0.01494,-0.183806 -0.207833,-0.332219 -0.430599,-0.332219 -0.222868,8.7e-5 -0.393165,0.148413 -0.380483,0.332219 z"
     id="path9007"
     style="fill:#e1e1e1;fill-opacity:1"
     inkscape:connector-curvature="0" />
  <path
     d="m 13.771053,10.724883 c -0.02056,0.02345 -0.04409,0.06102 -0.04409,0.110957 0,0.0036 2.05e-4,0.0071 4.09e-4,0.01097 0.0089,0.127351 0.159558,0.234943 0.328933,0.234943 0.09645,0 0.184616,-0.03528 0.235756,-0.09456 0.02199,-0.0253 0.04705,-0.06721 0.04255,-0.123009 -0.01032,-0.126265 -0.160783,-0.232987 -0.328727,-0.232987 -0.09573,8.6e-5 -0.183593,0.03507 -0.234835,0.09369 l -10e-7,0 z"
     id="path9009"
     style="fill:url(#radialGradient2965);fill-opacity:1"
     inkscape:connector-curvature="0" />
  <path
     d="m 12.819125,3.5172831 c -0.02198,0.077281 -0.163315,0.1195228 -0.315489,0.093898 -0.152106,-0.025615 -0.256461,-0.1092268 -0.233032,-0.1862637 0.02329,-0.076631 0.164395,-0.1179132 0.315049,-0.092542 0.150715,0.02542 0.25524,0.1080225 0.233472,0.184911 z"
     id="path9019"
     style="fill:#f0f0f0;fill-opacity:1"
     inkscape:connector-curvature="0" />
  <path
     d="m 12.730021,3.4453256 c 0.01222,0.012339 0.02544,0.031024 0.02185,0.052306 -2.57e-4,0.00148 -6.53e-4,0.00306 -10e-4,0.00464 -0.01516,0.053262 -0.124765,0.081957 -0.239312,0.062669 -0.06523,-0.010984 -0.12232,-0.036061 -0.152651,-0.06715 -0.01305,-0.013285 -0.027,-0.034002 -0.01995,-0.057269 0.01605,-0.052631 0.125456,-0.080983 0.239034,-0.061862 0.06474,0.010938 0.121643,0.035857 0.152091,0.066677 l 0,0 z"
     id="path9021"
     style="fill:url(#radialGradient2959);fill-opacity:1"
     inkscape:connector-curvature="0" />
  <path
     d="M 4.034624,3.4287385 C 4.0380566,3.5090067 3.9171356,3.5935231 3.7646167,3.6170107 3.6121665,3.6404919 3.4868257,3.5939007 3.4848617,3.5134014 3.4829135,3.4333373 3.6038808,3.3498053 3.7548754,3.3265523 3.9059443,3.303331 4.0311301,3.3489017 4.034624,3.4287385 Z"
     id="path9025"
     style="fill:#e1e1e1;fill-opacity:1"
     inkscape:connector-curvature="0" />
  <path
     d="m 3.9274234,3.3884225 c 0.015475,0.00789 0.03389,0.021459 0.037175,0.042787 2.356e-4,0.00148 3.414e-4,0.00306 4.351e-4,0.00473 0.00232,0.055321 -0.0927,0.1170068 -0.2075015,0.1346868 -0.065378,0.010066 -0.127456,0.00417 -0.1660185,-0.015781 -0.01657,-0.00854 -0.036312,-0.023797 -0.036933,-0.048103 -0.0013,-0.055015 0.093656,-0.1162998 0.2074913,-0.1338304 0.064896,-0.00995 0.1267481,-0.00417 0.1653375,0.015512 l 0,0 z"
     id="path9027"
     style="fill:url(#radialGradient2953);fill-opacity:1"
     inkscape:connector-curvature="0" />
  <path
     d="m 13.164789,11.593862 -5.7427808,0 0,1.552103 5.5875678,0 0.155213,-1.552103 z"
     id="rect8993"
     style="display:inline;overflow:visible;visibility:visible;fill:url(#linearGradient2908);fill-opacity:1;fill-rule:evenodd;stroke:none;stroke-width:2.40899992;marker:none"
     inkscape:connector-curvature="0" />
  <path
     d="m 13.009577,13.145963 c 0,0 0.12417,-1.119321 0.12417,-1.119321 -0.581909,0.887097 -2.754367,1.119321 -4.2256818,1.119321 0,0 4.1015118,0 4.1015118,0 z"
     id="path8995"
     style="opacity:0.81142853;fill:url(#linearGradient2905);fill-opacity:1;fill-rule:evenodd;stroke:none"
     inkscape:connector-curvature="0" />
  <path
     d="m 12.107317,3.5229312 0.03206,0.1182732 0.478591,1.7603596 0.08119,0.2943104 -0.23716,-0.063263 -4.0338425,-1.1002249 -0.012812,-0.00547 -0.010688,-0.00547 C 8.1910441,4.4114408 8.076904,4.1891492 8.0499856,3.9850793 8.0365148,3.8830435 8.0405505,3.7831275 8.0756098,3.6907699 8.1087117,3.6035807 8.194897,3.5260057 8.2849938,3.5284865 l 0,-0.00547 0.014964,0 3.7112192,0 0.09615,0 -1.1e-5,0 z m -0.136534,0.1087638 -3.7177639,0 c -0.00176,0.014862 -0.00594,0.02311 -0.00204,0.051221 0.011662,0.088479 0.061834,0.4050058 0.1878789,0.4740558 l 3.910074,1.0670655 -0.377966,-1.59234 -1.21e-4,0 z"
     id="path9039"
     style="display:inline;overflow:visible;visibility:visible;fill:url(#radialGradient2902);fill-opacity:1;fill-rule:nonzero;stroke:none;stroke-width:1;marker:none;enable-background:accumulate"
     inkscape:connector-curvature="0" />
  <path
     d="m 2.4546201,10.854839 c -0.012886,0.184784 -0.2058901,0.335477 -0.4309064,0.335477 -0.2249144,0 -0.3952107,-0.150693 -0.3801748,-0.335477 0.014937,-0.183806 0.2078328,-0.332219 0.4305985,-0.332219 0.2228686,8.7e-5 0.3931649,0.148413 0.3804827,0.332219 z"
     id="path9091"
     style="fill:#e1e1e1;fill-opacity:1"
     inkscape:connector-curvature="0" />
  <path
     d="m 2.309075,10.724883 c 0.020559,0.02345 0.044086,0.06102 0.044086,0.110957 0,0.0036 -2.05e-4,0.0071 -4.036e-4,0.01097 -0.00891,0.127351 -0.1595567,0.234943 -0.3289327,0.234943 -0.09645,0 -0.1846151,-0.03528 -0.235755,-0.09456 -0.021987,-0.0253 -0.047046,-0.06721 -0.042546,-0.123009 0.010335,-0.126265 0.1607842,-0.232987 0.3287287,-0.232987 0.095734,8.6e-5 0.1835927,0.03507 0.2348347,0.09369 l 9e-7,0 z"
     id="path9093"
     style="fill:url(#radialGradient2947);fill-opacity:1"
     inkscape:connector-curvature="0" />
  <rect
     width="13.037658"
     height="1.5521021"
     x="-14.56168"
     y="11.593863"
     id="rect6300-3"
     style="opacity:0.3;fill:url(#radialGradient2896);fill-opacity:1;stroke:none"
     transform="scale(-1,1)" />
</svg>
