<?xml version="1.0" encoding="UTF-8" standalone="no"?>
<!-- Created with Inkscape (http://www.inkscape.org/) -->

<svg
   xmlns:dc="http://purl.org/dc/elements/1.1/"
   xmlns:cc="http://creativecommons.org/ns#"
   xmlns:rdf="http://www.w3.org/1999/02/22-rdf-syntax-ns#"
   xmlns:svg="http://www.w3.org/2000/svg"
   xmlns="http://www.w3.org/2000/svg"
   xmlns:xlink="http://www.w3.org/1999/xlink"
   xmlns:sodipodi="http://sodipodi.sourceforge.net/DTD/sodipodi-0.dtd"
   xmlns:inkscape="http://www.inkscape.org/namespaces/inkscape"
   version="1.0"
   width="32"
   height="32"
   id="svg3786"
   inkscape:version="0.91 r13725"
   sodipodi:docname="drive-harddisk.svg">
  <metadata
     id="metadata4321">
    <rdf:RDF>
      <cc:Work
         rdf:about="">
        <dc:format>image/svg+xml</dc:format>
        <dc:type
           rdf:resource="http://purl.org/dc/dcmitype/StillImage" />
      </cc:Work>
    </rdf:RDF>
  </metadata>
  <sodipodi:namedview
     pagecolor="#ffffff"
     bordercolor="#666666"
     borderopacity="1"
     objecttolerance="10"
     gridtolerance="10"
     guidetolerance="10"
     inkscape:pageopacity="0"
     inkscape:pageshadow="2"
     inkscape:window-width="1920"
     inkscape:window-height="1019"
     id="namedview4319"
     showgrid="false"
     inkscape:zoom="10.067759"
     inkscape:cx="-0.6347082"
     inkscape:cy="20.410756"
     inkscape:window-x="0"
     inkscape:window-y="13"
     inkscape:window-maximized="1"
     inkscape:current-layer="svg3786" />
  <defs
     id="defs3788">
    <radialGradient
       cx="113.0654"
       cy="97.587898"
       r="2.5631001"
       fx="113.667"
       fy="98"
       id="radialGradient4241"
       gradientUnits="userSpaceOnUse">
      <stop
         id="stop4243"
         style="stop-color:#eee;stop-opacity:1"
         offset="0" />
      <stop
         id="stop4245"
         style="stop-color:#cecece;stop-opacity:1"
         offset="0.16" />
      <stop
         id="stop4247"
         style="stop-color:#888;stop-opacity:1"
         offset="0.4675" />
      <stop
         id="stop4249"
         style="stop-color:#555;stop-opacity:1"
         offset="1" />
    </radialGradient>
    <linearGradient
       id="linearGradient4035">
      <stop
         id="stop4037"
         style="stop-color:#f5f5f5;stop-opacity:1"
         offset="0" />
      <stop
         id="stop4039"
         style="stop-color:#e7e7e7;stop-opacity:1"
         offset="0.47025558" />
      <stop
         id="stop4041"
         style="stop-color:#8c8c8c;stop-opacity:1"
         offset="0.69348532" />
      <stop
         id="stop4043"
         style="stop-color:#ddd;stop-opacity:1"
         offset="0.83542866" />
      <stop
         id="stop4045"
         style="stop-color:#a8a8a8;stop-opacity:1"
         offset="1" />
    </linearGradient>
    <linearGradient
       id="linearGradient5060">
      <stop
         id="stop5062"
         style="stop-color:black;stop-opacity:1"
         offset="0" />
      <stop
         id="stop5064"
         style="stop-color:black;stop-opacity:0"
         offset="1" />
    </linearGradient>
    <linearGradient
       id="linearGradient5048">
      <stop
         id="stop5050"
         style="stop-color:black;stop-opacity:0"
         offset="0" />
      <stop
         id="stop5056"
         style="stop-color:black;stop-opacity:1"
         offset="0.5" />
      <stop
         id="stop5052"
         style="stop-color:black;stop-opacity:0"
         offset="1" />
    </linearGradient>
    <linearGradient
       id="linearGradient2215">
      <stop
         id="stop2223"
         style="stop-color:#7a7a7a;stop-opacity:1"
         offset="0" />
      <stop
         id="stop2219"
         style="stop-color:#474747;stop-opacity:1"
         offset="1" />
    </linearGradient>
    <linearGradient
       id="linearGradient7609">
      <stop
         id="stop7611"
         style="stop-color:white;stop-opacity:1"
         offset="0" />
      <stop
         id="stop7677"
         style="stop-color:#e7e7e7;stop-opacity:1"
         offset="0.47025558" />
      <stop
         id="stop7613"
         style="stop-color:#8c8c8c;stop-opacity:1"
         offset="0.67183787" />
      <stop
         id="stop7617"
         style="stop-color:#ddd;stop-opacity:1"
         offset="0.83542866" />
      <stop
         id="stop7615"
         style="stop-color:#a8a8a8;stop-opacity:1"
         offset="1" />
    </linearGradient>
    <linearGradient
       id="linearGradient4236">
      <stop
         id="stop4238"
         style="stop-color:#eee;stop-opacity:1"
         offset="0" />
      <stop
         id="stop4240"
         style="stop-color:#eee;stop-opacity:0"
         offset="1" />
    </linearGradient>
    <linearGradient
       id="linearGradient7056">
      <stop
         id="stop7064"
         style="stop-color:#e6e6e6;stop-opacity:1"
         offset="0" />
      <stop
         id="stop7060"
         style="stop-color:#c8c8c8;stop-opacity:1"
         offset="1" />
    </linearGradient>
    <linearGradient
       id="linearGradient3484">
      <stop
         id="stop3486"
         style="stop-color:#969696;stop-opacity:1"
         offset="0" />
      <stop
         id="stop3488"
         style="stop-color:#b4b4b4;stop-opacity:1"
         offset="1" />
    </linearGradient>
    <linearGradient
       id="linearGradient6310-8">
      <stop
         id="stop6312-6"
         style="stop-color:white;stop-opacity:1"
         offset="0" />
      <stop
         id="stop6314-6"
         style="stop-color:white;stop-opacity:0"
         offset="1" />
    </linearGradient>
    <radialGradient
       cx="24"
       cy="42"
       r="21"
       fx="24"
       fy="42"
       id="radialGradient2896"
       xlink:href="#linearGradient6310-8"
       gradientUnits="userSpaceOnUse"
       gradientTransform="matrix(0.65352097,0,1.8176133e-8,0.23340032,0.51968773,14.041736)" />
    <radialGradient
       cx="127.31733"
       cy="143.82751"
       r="78.728165"
       fx="127.31733"
       fy="143.82751"
       id="radialGradient2902"
       xlink:href="#linearGradient4035"
       gradientUnits="userSpaceOnUse"
       gradientTransform="matrix(0.12452334,-0.01637452,0.00404759,0.06583216,-4.3406626,0.92470922)" />
    <linearGradient
       x1="12.277412"
       y1="37.205811"
       x2="12.221823"
       y2="33.758667"
       id="linearGradient2905"
       xlink:href="#linearGradient4236"
       gradientUnits="userSpaceOnUse"
       gradientTransform="matrix(0.66742571,0,0,0.5874346,0.5032325,3.8979532)" />
    <linearGradient
       x1="7.0625"
       y1="35.28125"
       x2="24.6875"
       y2="35.28125"
       id="linearGradient2908"
       xlink:href="#linearGradient5060"
       gradientUnits="userSpaceOnUse"
       gradientTransform="matrix(0.66742571,0,0,0.5874346,1.0341649,3.1191198)" />
    <radialGradient
       cx="142.62215"
       cy="191.85428"
       r="78.728165"
       fx="142.62215"
       fy="191.85428"
       id="radialGradient2920"
       xlink:href="#linearGradient7609"
       gradientUnits="userSpaceOnUse"
       gradientTransform="matrix(0.12087027,0,0,-0.08544333,-1.5135294,27.470568)" />
    <radialGradient
       cx="141.74666"
       cy="206.42612"
       r="78.728165"
       fx="141.74666"
       fy="206.42612"
       id="radialGradient2923"
       xlink:href="#linearGradient4035"
       gradientUnits="userSpaceOnUse"
       gradientTransform="matrix(0.22978373,-0.00328355,0.00170064,0.18892819,-17.141287,-18.449722)" />
    <radialGradient
       cx="11.734284"
       cy="8.4900017"
       r="23.047892"
       fx="11.734284"
       fy="8.4900017"
       id="radialGradient2927"
       xlink:href="#linearGradient7056"
       gradientUnits="userSpaceOnUse"
       gradientTransform="matrix(0.89970738,0.45563109,-0.30591871,0.60407938,0.48756222,-3.8899851)" />
    <linearGradient
       x1="17.813944"
       y1="29.796696"
       x2="18.072828"
       y2="10.000001"
       id="linearGradient2929"
       xlink:href="#linearGradient3484"
       gradientUnits="userSpaceOnUse"
       gradientTransform="matrix(0.653521,0,0,0.653521,0.51968703,-2.6231471)" />
    <linearGradient
       x1="29.9375"
       y1="41"
       x2="30"
       y2="49.999996"
       id="linearGradient2933"
       xlink:href="#linearGradient2215"
       gradientUnits="userSpaceOnUse"
       gradientTransform="matrix(0.6546648,0,0,0.49644089,-2.7811806,1.256494)" />
    <radialGradient
       cx="605.71429"
       cy="486.64789"
       r="117.14286"
       fx="605.71429"
       fy="486.64789"
       id="radialGradient2936"
       xlink:href="#linearGradient5060"
       gradientUnits="userSpaceOnUse"
       gradientTransform="matrix(-0.02930876,0,0,0.01345485,21.831745,19.238123)" />
    <radialGradient
       cx="605.71429"
       cy="486.64789"
       r="117.14286"
       fx="605.71429"
       fy="486.64789"
       id="radialGradient2939"
       xlink:href="#linearGradient5060"
       gradientUnits="userSpaceOnUse"
       gradientTransform="matrix(0.02930876,0,0,0.01345485,10.576643,19.238123)" />
    <linearGradient
       x1="302.85715"
       y1="366.64789"
       x2="302.85715"
       y2="609.50507"
       id="linearGradient2942"
       xlink:href="#linearGradient5048"
       gradientUnits="userSpaceOnUse"
       gradientTransform="matrix(0.0499006,0,0,0.01345485,-1.8313079,19.238123)" />
    <radialGradient
       cx="113.0654"
       cy="97.587898"
       r="2.5631001"
       fx="113.667"
       fy="98"
       id="radialGradient2947"
       xlink:href="#radialGradient4241"
       gradientUnits="userSpaceOnUse"
       gradientTransform="matrix(0.2153278,0,0,0.22856664,4.4767067,-1.6468051)" />
    <radialGradient
       cx="113.0654"
       cy="97.587898"
       r="2.5631001"
       fx="113.667"
       fy="98"
       id="radialGradient2953"
       xlink:href="#radialGradient4241"
       gradientUnits="userSpaceOnUse"
       gradientTransform="matrix(0.14595221,0.02247657,-0.01503472,0.09762845,10.186204,-6.9570981)" />
    <radialGradient
       cx="113.0654"
       cy="97.587898"
       r="2.5631001"
       fx="113.667"
       fy="98"
       id="radialGradient2959"
       xlink:href="#radialGradient4241"
       gradientUnits="userSpaceOnUse"
       gradientTransform="matrix(0.14562258,-0.0245216,0.01640267,0.09740796,-11.339051,-1.6216741)" />
    <radialGradient
       cx="113.0654"
       cy="97.587898"
       r="2.5631001"
       fx="113.667"
       fy="98"
       id="radialGradient2965"
       xlink:href="#radialGradient4241"
       gradientUnits="userSpaceOnUse"
       gradientTransform="matrix(-0.2153278,0,0,0.22856664,27.943416,-1.6468051)" />
  </defs>
  <g
     id="g4208"
     transform="matrix(1.0422186,0,0,1.0422186,-0.88830852,-0.33728593)">
    <rect
       style="display:inline;overflow:visible;visibility:visible;opacity:0.3;fill:url(#linearGradient2942);fill-opacity:1;fill-rule:nonzero;stroke:none;stroke-width:0.5;marker:none"
       id="rect2723"
       y="24.17131"
       x="4.1567488"
       height="3.2676051"
       width="24.094862" />
    <path
       inkscape:connector-curvature="0"
       style="display:inline;overflow:visible;visibility:visible;opacity:0.3;fill:url(#radialGradient2939);fill-opacity:1;fill-rule:nonzero;stroke:none;stroke-width:0.5;marker:none"
       id="path2725"
       d="m 28.239872,24.171424 c 0,0 0,3.267423 0,3.267423 1.509326,0.0062 3.648823,-0.732064 3.648823,-1.633921 0,-0.901857 -1.684293,-1.633502 -3.648823,-1.633502 z" />
    <path
       inkscape:connector-curvature="0"
       style="display:inline;overflow:visible;visibility:visible;opacity:0.3;fill:url(#radialGradient2936);fill-opacity:1;fill-rule:nonzero;stroke:none;stroke-width:1;marker:none"
       id="path2727"
       d="m 4.1685105,24.171424 c 0,0 0,3.267423 0,3.267423 -1.509333,0.0062 -3.64882347,-0.732064 -3.64882347,-1.633921 0,-0.901857 1.68430007,-1.633502 3.64882347,-1.633502 z" />
    <path
       inkscape:connector-curvature="0"
       style="display:inline;fill:url(#linearGradient2933);fill-opacity:1;fill-rule:evenodd;stroke:#353537;stroke-width:0.60646677;stroke-linecap:round;stroke-linejoin:round;stroke-miterlimit:4;stroke-dasharray:none;stroke-dashoffset:0;stroke-opacity:1;enable-background:new"
       id="rect6431"
       d="m 1.4763462,21.86046 29.4554988,0 -0.588954,3.96818 -28.2121222,0 -0.6544226,-3.96818 z" />
    <rect
       style="display:inline;fill:#d2d2d3;fill-opacity:1;fill-rule:evenodd;stroke:none;enable-background:new"
       id="rect6381"
       y="21.557131"
       x="1.4999685"
       height="0.653521"
       width="29.408445" />
    <path
       inkscape:connector-curvature="0"
       style="display:inline;overflow:visible;visibility:visible;fill:url(#radialGradient2927);fill-opacity:1;fill-rule:nonzero;stroke:url(#linearGradient2929);stroke-width:0.65076542;stroke-linecap:round;stroke-linejoin:round;stroke-miterlimit:4;stroke-dasharray:none;stroke-dashoffset:0;stroke-opacity:1;marker:none;enable-background:accumulate"
       id="path6345"
       d="M 30.94109,21.950621 26.490852,5.1065502 C 26.365014,4.626883 25.705842,4.2374461 25.151678,4.2374461 l -18.0484314,0 c -0.8513677,0 -1.3392322,0.1297713 -1.5187563,0.8691041 L 1.4672925,21.934219" />
    <path
       inkscape:connector-curvature="0"
       style="display:inline;overflow:visible;visibility:visible;opacity:0.4;fill:none;stroke:#ffffff;stroke-width:0.653521;stroke-linecap:round;stroke-linejoin:miter;stroke-miterlimit:4;stroke-dasharray:none;stroke-dashoffset:0;stroke-opacity:1;marker:none;enable-background:accumulate"
       id="path7046"
       d="M 30.254894,21.883891 2.1534896,21.868176" />
    <path
       inkscape:connector-curvature="0"
       style="fill:url(#radialGradient2923);fill-opacity:1"
       id="path9001"
       d="m 27.295356,14.61279 c -0.142259,-1.305719 -1.095634,-2.550773 -2.679698,-3.533243 -0.03186,-0.377645 -0.437895,-5.2086863 -0.437895,-5.2086863 -0.03112,-0.3713725 -0.504354,-0.65166 -1.101193,-0.65166 l -3.745504,0 c -0.601131,0 -1.065816,0.2839704 -1.080972,0.6605162 -0.06873,1.7012496 -2.164478,2.5894961 -5.29066,3.3975262 -1.09538,0.1897432 -3.9511915,1.0816799 -4.6066458,1.4731559 -1.9294803,1.028384 -3.0801927,2.399383 -3.2396371,3.862391 -0.1450422,1.330614 0.5521116,2.662151 1.9630891,3.74936 2.0651649,1.591353 5.4773858,2.541555 9.1278828,2.541555 3.650503,0 7.062716,-0.950202 9.128143,-2.541555 1.28868,-0.992796 1.981782,-2.189724 1.981782,-3.403424 0,-0.115255 -0.0067,-0.230687 -0.01873,-0.345936 l 3.7e-5,0 z m -11.091233,5.630956 c -6.080031,0 -10.7357048,-2.666578 -10.398877,-5.757637 C 5.9505418,13.153467 7.0171098,11.730841 8.7833552,10.793364 9.1141165,10.544057 12.101328,9.5743073 13.172949,9.4039216 16.142977,8.6379359 18.85906,7.6438487 18.94421,5.5489062 18.94791,5.4485899 19.119065,5.3691175 19.331066,5.3691175 l 3.745003,0 c 0.216799,0 0.399757,0.083344 0.408346,0.1862435 l 0.454812,5.412443 c 1.574212,0.912214 2.528088,2.273802 2.663526,3.518305 0.337074,3.091059 -4.318592,5.757637 -10.39863,5.757637 l 0,0 z" />
    <path
       inkscape:connector-curvature="0"
       style="display:inline;overflow:visible;visibility:visible;fill:url(#radialGradient2920);fill-opacity:1;fill-rule:nonzero;stroke-width:1;stroke-linecap:butt;stroke-linejoin:miter;stroke-miterlimit:4;stroke-dasharray:none;stroke-dashoffset:0;stroke-opacity:1;marker:none;enable-background:accumulate"
       id="path9003"
       d="m 16.20404,16.329058 c -2.199074,0 -3.884889,-0.828086 -3.920422,-1.926466 -2.8e-4,-0.01188 -5.53e-4,-0.02355 -5.53e-4,-0.03523 0,-0.397456 0.220954,-0.775458 0.640819,-1.095512 0.710249,-0.541 1.936519,-0.863923 3.280428,-0.863923 1.343637,0 2.5699,0.322923 3.280149,0.863923 0.432266,0.329061 0.653779,0.720172 0.640273,1.130531 -0.0361,1.098379 -1.7219,1.926669 -3.920694,1.926669 l 0,2e-6 z m 0,-3.306607 c -2.066288,0 -3.118988,0.820712 -3.094191,1.569962 0.02397,0.737579 1.409209,1.326905 3.094191,1.326905 1.684982,0 3.070212,-0.589534 3.094185,-1.326905 0.0245,-0.749457 -1.027905,-1.569962 -3.094185,-1.569962 l 0,0 z" />
    <path
       inkscape:connector-curvature="0"
       style="fill:#e1e1e1;fill-opacity:1"
       id="path9007"
       d="m 4.4511537,20.654899 c -0.027132,0.389021 -0.4334551,0.70627 -0.9071767,0.70627 -0.4735059,0 -0.8320267,-0.317249 -0.8003735,-0.70627 0.031438,-0.386964 0.4375464,-0.699415 0.9065304,-0.699415 0.4691996,1.84e-4 0.8277203,0.312451 0.8010198,0.699415 z" />
    <path
       inkscape:connector-curvature="0"
       style="fill:url(#radialGradient2965);fill-opacity:1"
       id="path9009"
       d="m 4.1447416,20.381304 c 0.043281,0.04937 0.092807,0.128455 0.092807,0.233595 0,0.0076 -4.314e-4,0.01508 -8.662e-4,0.02309 -0.018734,0.268108 -0.3359116,0.494618 -0.6924944,0.494618 -0.2030542,0 -0.3886665,-0.07428 -0.4963307,-0.199081 -0.046295,-0.05326 -0.099051,-0.141483 -0.089576,-0.258966 0.021748,-0.265823 0.3384948,-0.490505 0.6920639,-0.490505 0.2015467,1.84e-4 0.3865129,0.07383 0.4943921,0.197253 l 1.7e-6,0 z" />
    <path
       inkscape:connector-curvature="0"
       style="fill:#f0f0f0;fill-opacity:1"
       id="path9019"
       d="M 6.1488132,5.2073089 C 6.195078,5.3700077 6.4926356,5.4589372 6.8130062,5.4049902 7.1332298,5.3510687 7.3529252,5.1750364 7.3036008,5.0128526 7.2545671,4.8515212 6.957503,4.7646118 6.6403374,4.8180205 6.3230388,4.8715322 6.1029861,5.0454376 6.1488132,5.2073089 Z" />
    <path
       inkscape:connector-curvature="0"
       style="fill:url(#radialGradient2959);fill-opacity:1"
       id="path9021"
       d="m 6.3364008,5.0558174 c -0.025731,0.025971 -0.053542,0.065314 -0.046002,0.1101199 5.414e-4,0.00317 0.00139,0.00642 0.00224,0.00974 0.031911,0.1121261 0.2626671,0.1725372 0.5038182,0.131929 0.137322,-0.023125 0.2575178,-0.075917 0.3213729,-0.1413645 0.027487,-0.027974 0.05683,-0.071578 0.041996,-0.120564 C 7.1260387,4.934866 6.8957098,4.8751849 6.6565974,4.9154497 6.5203079,4.9384816 6.4005034,4.990926 6.3364039,5.0558143 l -1.5e-6,8e-7 z" />
    <path
       inkscape:connector-curvature="0"
       style="fill:#e1e1e1;fill-opacity:1"
       id="path9025"
       d="m 24.642623,5.0208983 c -0.0072,0.1689959 0.247344,0.3469168 0.568439,0.3963658 0.320949,0.049428 0.584828,-0.048662 0.588961,-0.218127 0.0041,-0.1685666 -0.250568,-0.3444148 -0.568452,-0.3933688 -0.318042,-0.048894 -0.581593,0.047062 -0.588948,0.21513 z" />
    <path
       inkscape:connector-curvature="0"
       style="fill:url(#radialGradient2953);fill-opacity:1"
       id="path9027"
       d="m 24.868309,4.9360207 c -0.03258,0.016566 -0.07135,0.045182 -0.07827,0.09009 -4.96e-4,0.00317 -7.18e-4,0.0065 -9.28e-4,0.00995 -0.0049,0.1164734 0.195151,0.2463313 0.436848,0.283552 0.137632,0.021191 0.268329,0.00884 0.349515,-0.033225 0.03489,-0.017912 0.07644,-0.050093 0.07775,-0.1012637 0.0027,-0.1158114 -0.197172,-0.2448433 -0.436826,-0.2817493 -0.136623,-0.020959 -0.26684,-0.00881 -0.348081,0.032653 l -1e-6,-8e-7 z" />
    <path
       inkscape:connector-curvature="0"
       style="display:inline;overflow:visible;visibility:visible;fill:url(#linearGradient2908);fill-opacity:1;fill-rule:evenodd;stroke:none;stroke-width:2.40899992;marker:none"
       id="rect8993"
       d="m 5.4210946,22.210746 12.0901444,0 0,3.267606 -11.7633778,0 -0.3267666,-3.267606 z" />
    <path
       inkscape:connector-curvature="0"
       style="opacity:0.81142853;fill:url(#linearGradient2905);fill-opacity:1;fill-rule:evenodd;stroke:none"
       id="path8995"
       d="m 5.7478604,25.478349 c 0,0 -0.2614134,-2.356483 -0.2614134,-2.356483 1.2250781,1.867587 5.798704,2.356483 8.896231,2.356483 0,0 -8.6348176,0 -8.6348176,0 z" />
    <path
       inkscape:connector-curvature="0"
       style="display:inline;overflow:visible;visibility:visible;fill:url(#radialGradient2902);fill-opacity:1;fill-rule:nonzero;stroke:none;stroke-width:1;marker:none;enable-background:accumulate"
       id="path9039"
       d="M 7.6473652,5.2192007 7.5798705,5.4681979 6.5723044,9.1742431 6.4013727,9.793848 6.9006611,9.6606637 15.393019,7.3443855 l 0.02697,-0.011578 0.02249,-0.011578 c 0.44971,-0.2315771 0.690006,-0.6995614 0.746679,-1.1291857 0.02836,-0.2148137 0.01986,-0.4251641 -0.05394,-0.6196025 C 16.065528,5.388883 15.884086,5.2255678 15.694407,5.230789 l 0,-0.011578 -0.03151,0 -7.813145,0 -0.2024145,0 2.16e-5,8e-7 z m 0.2874422,0.2289778 7.8269236,0 c 0.0036,0.031284 0.01246,0.048639 0.0044,0.1078314 -0.02456,0.1862667 -0.130178,0.8526476 -0.395538,0.9980184 L 7.1388042,8.8004971 7.9345264,5.44818 l 2.56e-4,0 z" />
    <path
       inkscape:connector-curvature="0"
       style="fill:#e1e1e1;fill-opacity:1"
       id="path9091"
       d="m 27.968969,20.654899 c 0.02713,0.389021 0.433455,0.70627 0.907177,0.70627 0.473506,0 0.832027,-0.317249 0.800373,-0.70627 -0.03144,-0.386964 -0.437546,-0.699415 -0.90653,-0.699415 -0.4692,1.84e-4 -0.82772,0.312451 -0.80102,0.699415 z" />
    <path
       inkscape:connector-curvature="0"
       style="fill:url(#radialGradient2947);fill-opacity:1"
       id="path9093"
       d="m 28.275382,20.381304 c -0.04328,0.04937 -0.09281,0.128455 -0.09281,0.233595 0,0.0076 4.32e-4,0.01508 8.51e-4,0.02309 0.01874,0.268108 0.335911,0.494618 0.692495,0.494618 0.203054,0 0.388666,-0.07428 0.49633,-0.199081 0.0463,-0.05326 0.09905,-0.141483 0.08958,-0.258966 -0.02175,-0.265823 -0.338495,-0.490505 -0.692065,-0.490505 -0.201546,1.84e-4 -0.386512,0.07383 -0.494391,0.197253 l -2e-6,0 z" />
    <rect
       style="opacity:0.3;fill:url(#radialGradient2896);fill-opacity:1;stroke:none"
       id="rect6300-3"
       y="22.210747"
       x="2.4802501"
       height="3.2676051"
       width="27.447882" />
  </g>
</svg>
