<?xml version="1.0" encoding="UTF-8" standalone="no"?>
<svg
   xmlns:dc="http://purl.org/dc/elements/1.1/"
   xmlns:cc="http://creativecommons.org/ns#"
   xmlns:rdf="http://www.w3.org/1999/02/22-rdf-syntax-ns#"
   xmlns:svg="http://www.w3.org/2000/svg"
   xmlns="http://www.w3.org/2000/svg"
   xmlns:xlink="http://www.w3.org/1999/xlink"
   xmlns:sodipodi="http://sodipodi.sourceforge.net/DTD/sodipodi-0.dtd"
   xmlns:inkscape="http://www.inkscape.org/namespaces/inkscape"
   version="1.1"
   width="32"
   height="32"
   id="svg2"
   inkscape:version="0.91 r13725"
   sodipodi:docname="folder-videos.svg">
  <sodipodi:namedview
     pagecolor="#ffffff"
     bordercolor="#666666"
     borderopacity="1"
     objecttolerance="10"
     gridtolerance="10"
     guidetolerance="10"
     inkscape:pageopacity="0"
     inkscape:pageshadow="2"
     inkscape:window-width="1920"
     inkscape:window-height="1019"
     id="namedview57"
     showgrid="false"
     inkscape:zoom="24.37207"
     inkscape:cx="16"
     inkscape:cy="16"
     inkscape:window-x="0"
     inkscape:window-y="13"
     inkscape:window-maximized="1"
     inkscape:current-layer="svg2" />
  <metadata
     id="metadata8">
    <rdf:RDF>
      <cc:Work
         rdf:about="">
        <dc:format>image/svg+xml</dc:format>
        <dc:type
           rdf:resource="http://purl.org/dc/dcmitype/StillImage" />
      </cc:Work>
    </rdf:RDF>
  </metadata>
  <defs
     id="defs6">
    <linearGradient
       id="linearGradient3937-5-3">
      <stop
         id="stop3939-6-7"
         stop-color="#9c9d9e" />
      <stop
         id="stop3941-3-2"
         offset="1"
         stop-color="#bbbcbd" />
    </linearGradient>
    <linearGradient
       inkscape:collect="always"
       xlink:href="#linearGradient3937-5-3"
       id="linearGradient4156"
       y1="14"
       x2="0"
       y2="23"
       gradientUnits="userSpaceOnUse" />
    <linearGradient
       id="linearGradient3788-9">
      <stop
         id="stop3790-5"
         stop-opacity="0.51" />
      <stop
         offset="1"
         id="stop3792-0"
         stop-opacity="0.392" />
    </linearGradient>
    <linearGradient
       x2="20"
       x1="18"
       gradientTransform="matrix(-1,0,0,1,33,27)"
       gradientUnits="userSpaceOnUse"
       id="linearGradient3094-0"
       xlink:href="#linearGradient3930-65"
       inkscape:collect="always" />
    <linearGradient
       x2="7"
       x1="5"
       gradientTransform="translate(-1,27)"
       gradientUnits="userSpaceOnUse"
       id="linearGradient3092-4"
       xlink:href="#linearGradient3930-65"
       inkscape:collect="always" />
    <linearGradient
       id="linearGradient3930-65"
       inkscape:collect="always">
      <stop
         id="stop3932-85"
         stop-color="#ffffff" />
      <stop
         id="stop3934-5"
         offset="1"
         stop-color="#ffffff"
         stop-opacity="0" />
    </linearGradient>
    <linearGradient
       y2="13.1"
       x2="0"
       y1="11.03"
       gradientTransform="matrix(0.66666665,0,0,0.64516133,0.3333342,17.548387)"
       gradientUnits="userSpaceOnUse"
       id="linearGradient3975"
       xlink:href="#linearGradient3788-9"
       inkscape:collect="always" />
    <linearGradient
       y2="52"
       x2="0"
       y1="27"
       gradientTransform="matrix(0.71794137,0,0,0.72,-3.0253029,5.5600007)"
       gradientUnits="userSpaceOnUse"
       id="linearGradient3972"
       xlink:href="#linearGradient3782"
       inkscape:collect="always" />
    <linearGradient
       y2="39"
       x2="0"
       y1="16"
       gradientTransform="matrix(0.70270274,0,0,0.69565213,-0.513513,14.869565)"
       gradientUnits="userSpaceOnUse"
       id="linearGradient3969"
       xlink:href="#linearGradient3927-2"
       inkscape:collect="always" />
    <linearGradient
       y2="9"
       x2="0"
       y1="11"
       gradientTransform="matrix(0.65,0,0,1,0.40000056,13.000001)"
       gradientUnits="userSpaceOnUse"
       id="linearGradient3966-6"
       xlink:href="#linearGradient3829-2"
       inkscape:collect="always" />
    <linearGradient
       inkscape:collect="always"
       id="linearGradient3829-2">
      <stop
         id="stop3831-42" />
      <stop
         offset="1"
         id="stop3833-3"
         stop-opacity="0" />
    </linearGradient>
    <linearGradient
       id="linearGradient3782">
      <stop
         id="stop3784"
         stop-color="#ffffff" />
      <stop
         id="stop3786"
         offset="1"
         stop-color="#e4e5e7" />
    </linearGradient>
    <linearGradient
       id="linearGradient3927-2">
      <stop
         id="stop3929-8"
         stop-color="#f1f2f3" />
      <stop
         offset="1"
         id="stop3931-8"
         stop-color="#e4e5e7" />
    </linearGradient>
  </defs>
  <g
     id="g4185"
     transform="matrix(1.0674267,0,0,1.0674267,-1.0788273,-0.8428591)">
    <g
       id="layer4"
       inkscape:label="Ebene#1"
       transform="translate(0,-16)">
      <rect
         transform="matrix(0.62131645,0,0,0.65055761,1.0014209,17.325535)"
         id="rect3915-0-7"
         width="46"
         height="30"
         x="1.14"
         y="11.86"
         rx="2.0769999"
         ry="1.474"
         style="opacity:0.18000004;stroke:#000000;stroke-width:0" />
      <path
         inkscape:connector-curvature="0"
         d="M 7,3 C 5.892,3 5,3.892 5,5 3.892,5 3,5.892 3,7 l 0,5 c 0,1.108 0.892,2 2,2 l 22,0 c 1.108,0 2,-0.892 2,-2 L 29,7 C 29,5.892 28.108,5 27,5 L 14,5 C 14,3.892 13.108,3 12,3 L 7,3 Z"
         transform="translate(0,16)"
         id="rect3967-0"
         style="fill-opacity:0.65899999;stroke:#000000;stroke-width:0" />
      <rect
         rx="1"
         id="rect3969-8"
         width="24"
         height="7"
         x="4"
         y="22"
         style="fill:#8b8b8d;stroke:#000000;stroke-width:0" />
      <path
         sodipodi:nodetypes="sssccccss"
         inkscape:connector-curvature="0"
         id="rect3945-0"
         d="m 7,20 5,0 c 0.526969,0 1,0.468145 1,1 l 0,1 0,0 -7,0 0,0 0,-1 c 0,-0.536986 0.4603177,-1 1,-1 z"
         style="fill:#8b8b8d;stroke:#000000;stroke-width:0" />
      <rect
         id="rect3915-1"
         width="30"
         height="20"
         x="1"
         y="24"
         rx="2"
         style="fill:url(#linearGradient3975);stroke:#000000;stroke-width:0" />
      <rect
         rx="1"
         id="rect3957-2"
         width="28"
         height="18"
         x="2"
         y="25"
         style="fill:url(#linearGradient3972);stroke:#000000;stroke-width:0" />
      <rect
         id="rect3925-4"
         width="26"
         height="16"
         x="3"
         y="26"
         rx="0"
         style="fill:url(#linearGradient3969);stroke:#000000;stroke-width:0" />
      <rect
         rx="0"
         y="22"
         x="3"
         height="2"
         width="26"
         id="rect3827-0"
         style="opacity:0.17300002;fill:url(#linearGradient3966-6);stroke:#102b68;stroke-width:0" />
      <path
         d="m 7,20 c -0.554,0 -1,0.446 -1,1 l 0,1 c 0,-0.554 0.446,-1 1,-1 l 5,0 c 0.554,0 1,0.446 1,1 l 0,-1 c 0,-0.554 -0.446,-1 -1,-1 z"
         id="rect3011-4"
         inkscape:connector-curvature="0"
         sodipodi:nodetypes="sscsscsss"
         style="opacity:0.15;fill:#ffffff;stroke:#767779;stroke-width:0" />
      <path
         d="m 5,22 c -0.554,0 -1,0.446 -1,1 l 0,1 c 0,-0.554 0.446,-1 1,-1 l 1,0 0,-1 z"
         id="rect3891-8-7"
         inkscape:connector-curvature="0"
         sodipodi:nodetypes="sscsccs"
         style="opacity:0.15;fill:url(#linearGradient3092-4);stroke:#767779;stroke-width:0" />
      <path
         d="m 27,22 c 0.554,0 1,0.446 1,1 l 0,1 c 0,-0.554 -0.446,-1 -1,-1 l -14,0 0,-1 z"
         id="rect3891-8-0-0"
         inkscape:connector-curvature="0"
         sodipodi:nodetypes="sscsccs"
         style="opacity:0.15;fill:url(#linearGradient3094-0);stroke:#767779;stroke-width:0" />
    </g>
    <rect
       y="13"
       x="14"
       height="11"
       width="4"
       id="rect4682"
       style="fill:url(#linearGradient4156);stroke:#4b4b4b;stroke-width:0;stroke-linejoin:round" />
    <rect
       y="13"
       x="13"
       height="10.471"
       width="1"
       id="rect4651"
       style="fill:#767779;stroke:#4b4b4b;stroke-width:0;stroke-linejoin:round" />
    <rect
       y="13"
       x="18"
       height="10"
       width="1"
       id="rect4653"
       style="fill:#767779;stroke:#4b4b4b;stroke-width:0;stroke-linejoin:round" />
    <rect
       y="18"
       x="13"
       height="1"
       width="5"
       id="rect4657"
       style="fill:#767779;stroke:#4b4b4b;stroke-width:0;stroke-linejoin:round" />
    <path
       sodipodi:nodetypes="cccccccccc"
       inkscape:connector-curvature="0"
       id="rect4661"
       d="m 11,13 0,11 10,0 0,-11 z m 1,1 8,0 0,9 -8,0 z"
       style="fill:#767779;stroke:#767779;stroke-width:0;stroke-linejoin:round" />
    <rect
       y="15"
       x="12"
       height="1"
       width="1"
       id="rect4666"
       style="fill:#767779;stroke:#4b4b4b;stroke-width:0;stroke-linejoin:round" />
    <rect
       y="21"
       x="12"
       height="1"
       width="1"
       id="rect4668"
       style="fill:#767779;stroke:#4b4b4b;stroke-width:0;stroke-linejoin:round" />
    <rect
       y="17"
       x="12"
       height="1"
       width="1"
       id="rect4670"
       style="fill:#767779;stroke:#4b4b4b;stroke-width:0;stroke-linejoin:round" />
    <rect
       y="19"
       x="12"
       height="1"
       width="1"
       id="rect4672"
       style="fill:#767779;stroke:#4b4b4b;stroke-width:0;stroke-linejoin:round" />
    <rect
       y="21"
       x="19"
       height="1"
       width="1"
       id="rect4674"
       style="fill:#767779;stroke:#4b4b4b;stroke-width:0;stroke-linejoin:round" />
    <rect
       y="19"
       x="19"
       height="1"
       width="1"
       id="rect4676"
       style="fill:#767779;stroke:#4b4b4b;stroke-width:0;stroke-linejoin:round" />
    <rect
       y="17"
       x="19"
       height="1"
       width="1"
       id="rect4678"
       style="fill:#767779;stroke:#4b4b4b;stroke-width:0;stroke-linejoin:round" />
    <rect
       y="15"
       x="19"
       height="1"
       width="1"
       id="rect4680"
       style="fill:#767779;stroke:#4b4b4b;stroke-width:0;stroke-linejoin:round" />
    <rect
       y="24"
       x="11"
       height="1"
       width="10"
       id="rect4158"
       style="fill:#ffffff;stroke:#767779;stroke-width:0" />
  </g>
</svg>
