<?xml version="1.0" encoding="UTF-8" standalone="no"?>
<svg
   xmlns:dc="http://purl.org/dc/elements/1.1/"
   xmlns:cc="http://creativecommons.org/ns#"
   xmlns:rdf="http://www.w3.org/1999/02/22-rdf-syntax-ns#"
   xmlns:svg="http://www.w3.org/2000/svg"
   xmlns="http://www.w3.org/2000/svg"
   xmlns:xlink="http://www.w3.org/1999/xlink"
   xmlns:sodipodi="http://sodipodi.sourceforge.net/DTD/sodipodi-0.dtd"
   xmlns:inkscape="http://www.inkscape.org/namespaces/inkscape"
   version="1.1"
   width="32"
   height="32"
   id="svg2"
   inkscape:version="0.91 r13725"
   sodipodi:docname="user-bookmarks.svg">
  <sodipodi:namedview
     pagecolor="#ffffff"
     bordercolor="#666666"
     borderopacity="1"
     objecttolerance="10"
     gridtolerance="10"
     guidetolerance="10"
     inkscape:pageopacity="0"
     inkscape:pageshadow="2"
     inkscape:window-width="1920"
     inkscape:window-height="1019"
     id="namedview51"
     showgrid="false"
     inkscape:zoom="24.37207"
     inkscape:cx="16"
     inkscape:cy="16"
     inkscape:window-x="0"
     inkscape:window-y="13"
     inkscape:window-maximized="1"
     inkscape:current-layer="layer4" />
  <metadata
     id="metadata8">
    <rdf:RDF>
      <cc:Work
         rdf:about="">
        <dc:format>image/svg+xml</dc:format>
        <dc:type
           rdf:resource="http://purl.org/dc/dcmitype/StillImage" />
      </cc:Work>
    </rdf:RDF>
  </metadata>
  <defs
     id="defs6">
    <linearGradient
       id="linearGradient3927-2">
      <stop
         id="stop3929-8"
         stop-color="#f1f2f3" />
      <stop
         id="stop3931-8"
         offset="1"
         stop-color="#e4e5e7" />
    </linearGradient>
    <linearGradient
       id="linearGradient3782">
      <stop
         id="stop3784"
         stop-color="#ffffff" />
      <stop
         offset="1"
         id="stop3786"
         stop-color="#e4e5e7" />
    </linearGradient>
    <linearGradient
       id="linearGradient3829"
       inkscape:collect="always">
      <stop
         id="stop3831" />
      <stop
         id="stop3833"
         offset="1"
         stop-opacity="0" />
    </linearGradient>
    <linearGradient
       inkscape:collect="always"
       xlink:href="#linearGradient3829"
       id="linearGradient3966"
       gradientUnits="userSpaceOnUse"
       gradientTransform="matrix(0.65,0,0,1,0.40000056,13.000001)"
       y1="11"
       x2="0"
       y2="9" />
    <linearGradient
       inkscape:collect="always"
       xlink:href="#linearGradient3927-2"
       id="linearGradient3969"
       gradientUnits="userSpaceOnUse"
       gradientTransform="matrix(0.70270274,0,0,0.69565213,-0.513513,14.869565)"
       y1="16"
       x2="0"
       y2="39" />
    <linearGradient
       inkscape:collect="always"
       xlink:href="#linearGradient3782"
       id="linearGradient3972"
       gradientUnits="userSpaceOnUse"
       gradientTransform="matrix(0.71794137,0,0,0.72,-3.0253029,5.5600007)"
       y1="27"
       x2="0"
       y2="52" />
    <linearGradient
       inkscape:collect="always"
       xlink:href="#linearGradient3788-9"
       id="linearGradient3975"
       gradientUnits="userSpaceOnUse"
       gradientTransform="matrix(0.66666665,0,0,0.64516133,0.3333342,17.548387)"
       y1="11.03"
       x2="0"
       y2="13.1" />
    <linearGradient
       inkscape:collect="always"
       id="linearGradient3930-4">
      <stop
         id="stop3932-8"
         stop-color="#ffffff" />
      <stop
         offset="1"
         id="stop3934-2"
         stop-color="#ffffff"
         stop-opacity="0" />
    </linearGradient>
    <linearGradient
       inkscape:collect="always"
       xlink:href="#linearGradient3930-4"
       id="linearGradient3092"
       gradientUnits="userSpaceOnUse"
       gradientTransform="translate(-1,27)"
       x1="5"
       x2="7" />
    <linearGradient
       inkscape:collect="always"
       xlink:href="#linearGradient3930-4"
       id="linearGradient3094"
       gradientUnits="userSpaceOnUse"
       gradientTransform="matrix(-1,0,0,1,33,27)"
       x1="18"
       x2="20" />
    <linearGradient
       id="linearGradient3788-9">
      <stop
         id="stop3790-5"
         stop-opacity="0.51" />
      <stop
         id="stop3792-0"
         offset="1"
         stop-opacity="0.392" />
    </linearGradient>
    <linearGradient
       inkscape:collect="always"
       xlink:href="#linearGradient3927-2"
       id="linearGradient3933-0"
       y1="16"
       x2="0"
       y2="39"
       gradientUnits="userSpaceOnUse"
       gradientTransform="matrix(1.1351352,0,0,1.1304347,-2.6756757,-5.0869566)" />
    <linearGradient
       inkscape:collect="always"
       xlink:href="#linearGradient3782"
       id="linearGradient3965-8"
       y1="27"
       x2="0"
       y2="52"
       gradientUnits="userSpaceOnUse"
       gradientTransform="matrix(1.1282051,0,0,1.12,-5.8974358,-18.24)" />
    <linearGradient
       inkscape:collect="always"
       xlink:href="#linearGradient3829"
       id="linearGradient3794-1"
       y1="11.03"
       x2="0"
       y2="13.1"
       gradientUnits="userSpaceOnUse"
       gradientTransform="matrix(1.0222222,0,0,0.96774194,-0.02222222,1.3225806)" />
    <linearGradient
       inkscape:collect="always"
       xlink:href="#linearGradient3829"
       id="linearGradient3835-5"
       y1="11"
       x2="0"
       y2="9"
       gradientUnits="userSpaceOnUse"
       gradientTransform="matrix(1.05,0,0,1,-1.1999999,0)" />
    <linearGradient
       gradientTransform="translate(-1,13)"
       x2="8"
       x1="5"
       gradientUnits="userSpaceOnUse"
       id="linearGradient3987"
       xlink:href="#linearGradient3930-4"
       inkscape:collect="always" />
    <linearGradient
       x2="29"
       x1="26"
       gradientTransform="matrix(-1,0,0,1,49,13)"
       gradientUnits="userSpaceOnUse"
       id="linearGradient3064"
       xlink:href="#linearGradient3930-4"
       inkscape:collect="always" />
    <linearGradient
       id="linearGradient3937-5">
      <stop
         id="stop3939-6"
         stop-color="#9c9d9e" />
      <stop
         id="stop3941-3"
         offset="1"
         stop-color="#bbbcbd" />
    </linearGradient>
    <linearGradient
       gradientTransform="matrix(0.38307822,0.06063026,-0.06063027,0.38307819,27.674726,34.841723)"
       inkscape:collect="always"
       xlink:href="#linearGradient3937-5"
       id="linearGradient3994-1-7"
       x1="-31.784"
       y1="-8.261"
       x2="-28.761"
       y2="10.838"
       gradientUnits="userSpaceOnUse" />
  </defs>
  <g
     inkscape:groupmode="layer"
     id="layer4"
     inkscape:label="Ebene#1"
     transform="translate(0,-16)">
    <g
       id="g4179"
       transform="matrix(1.0642159,0,0,1.0642159,-1.0274546,-2.0407135)">
      <rect
         ry="1.474"
         rx="2.0769999"
         y="11.86"
         x="1.14"
         height="30"
         width="46"
         id="rect3915-0"
         transform="matrix(0.62131645,0,0,0.65055761,1.0014209,17.325535)"
         style="opacity:0.18000004;stroke:#000000;stroke-width:0" />
      <path
         id="rect3967"
         transform="translate(0,16)"
         d="M 7,3 C 5.892,3 5,3.892 5,5 3.892,5 3,5.892 3,7 l 0,5 c 0,1.108 0.892,2 2,2 l 22,0 c 1.108,0 2,-0.892 2,-2 L 29,7 C 29,5.892 28.108,5 27,5 L 14,5 C 14,3.892 13.108,3 12,3 L 7,3 Z"
         inkscape:connector-curvature="0"
         style="fill-opacity:0.65899999;stroke:#000000;stroke-width:0" />
      <rect
         rx="1"
         y="22"
         x="4"
         height="7"
         width="24"
         id="rect3969"
         style="fill:#8b8b8d;stroke:#000000;stroke-width:0" />
      <path
         d="m 7,20 5,0 c 0.526969,0 1,0.468145 1,1 l 0,1 0,0 -7,0 0,0 0,-1 c 0,-0.536986 0.4603177,-1 1,-1 z"
         id="rect3945"
         inkscape:connector-curvature="0"
         sodipodi:nodetypes="sssccccss"
         style="fill:#8b8b8d;stroke:#000000;stroke-width:0" />
      <rect
         rx="2"
         y="24"
         x="1"
         height="20"
         width="30"
         id="rect3915"
         style="fill:url(#linearGradient3975);stroke:#000000;stroke-width:0" />
      <rect
         y="25"
         x="2"
         height="18"
         width="28"
         id="rect3957"
         rx="1"
         style="fill:url(#linearGradient3972);stroke:#000000;stroke-width:0" />
      <rect
         rx="0"
         y="26"
         x="3"
         height="16"
         width="26"
         id="rect3925"
         style="fill:url(#linearGradient3969);stroke:#000000;stroke-width:0" />
      <rect
         rx="0"
         id="rect3827"
         width="26"
         height="2"
         x="3"
         y="22"
         style="opacity:0.17300002;fill:url(#linearGradient3966);stroke:#102b68;stroke-width:0" />
      <path
         sodipodi:nodetypes="sscsscsss"
         inkscape:connector-curvature="0"
         id="rect3011"
         d="m 7,20 c -0.554,0 -1,0.446 -1,1 l 0,1 c 0,-0.554 0.446,-1 1,-1 l 5,0 c 0.554,0 1,0.446 1,1 l 0,-1 c 0,-0.554 -0.446,-1 -1,-1 z"
         style="opacity:0.15;fill:#ffffff;stroke:#767779;stroke-width:0" />
      <path
         sodipodi:nodetypes="sscsccs"
         inkscape:connector-curvature="0"
         id="rect3891-8"
         d="m 5,22 c -0.554,0 -1,0.446 -1,1 l 0,1 c 0,-0.554 0.446,-1 1,-1 l 1,0 0,-1 z"
         style="opacity:0.15;fill:url(#linearGradient3092);stroke:#767779;stroke-width:0" />
      <path
         sodipodi:nodetypes="sscsccs"
         inkscape:connector-curvature="0"
         id="rect3891-8-0"
         d="m 27,22 c 0.554,0 1,0.446 1,1 l 0,1 c 0,-0.554 -0.446,-1 -1,-1 l -14,0 0,-1 z"
         style="opacity:0.15;fill:url(#linearGradient3094);stroke:#767779;stroke-width:0" />
      <path
         sodipodi:nodetypes="ccccccccccc"
         inkscape:connector-curvature="0"
         id="path3092-8-0-9"
         d="m 19.749998,39.999478 -3.749305,-1.97022 -3.749192,1.970794 1.248499,-3.750285 -3.249998,-2.749999 3.999998,0 1.75,-3.999999 1.749999,3.999999 3.999999,0 -3.249999,2.749999 z"
         inkscape:transform-center-y="-0.84427813"
         inkscape:transform-center-x="0.00029759694"
         style="fill:#ffffff;stroke:#ffffff;stroke-linecap:round;stroke-linejoin:round" />
      <path
         sodipodi:nodetypes="ccccccccccc"
         inkscape:connector-curvature="0"
         id="path3092-8-0"
         d="m 19.749998,38.999634 -3.749305,-1.97022 -3.749192,1.970794 1.248499,-3.750285 -3.249998,-2.749999 3.999998,0 1.75,-3.999999 1.749999,3.999999 3.999999,0 -3.249999,2.749999 z"
         inkscape:transform-center-y="-0.84427813"
         inkscape:transform-center-x="0.00029759694"
         style="fill:url(#linearGradient3994-1-7);stroke:#767779;stroke-linecap:round;stroke-linejoin:round" />
    </g>
  </g>
</svg>
