<?xml version="1.0" encoding="UTF-8" standalone="no"?>
<!-- Created with Inkscape (http://www.inkscape.org/) -->

<svg
   xmlns:dc="http://purl.org/dc/elements/1.1/"
   xmlns:cc="http://creativecommons.org/ns#"
   xmlns:rdf="http://www.w3.org/1999/02/22-rdf-syntax-ns#"
   xmlns:svg="http://www.w3.org/2000/svg"
   xmlns="http://www.w3.org/2000/svg"
   xmlns:xlink="http://www.w3.org/1999/xlink"
   xmlns:sodipodi="http://sodipodi.sourceforge.net/DTD/sodipodi-0.dtd"
   xmlns:inkscape="http://www.inkscape.org/namespaces/inkscape"
   version="1.0"
   width="24"
   height="24"
   id="svg3786"
   inkscape:version="0.91 r13725"
   sodipodi:docname="drive-harddisk.svg">
  <metadata
     id="metadata4321">
    <rdf:RDF>
      <cc:Work
         rdf:about="">
        <dc:format>image/svg+xml</dc:format>
        <dc:type
           rdf:resource="http://purl.org/dc/dcmitype/StillImage" />
      </cc:Work>
    </rdf:RDF>
  </metadata>
  <sodipodi:namedview
     pagecolor="#ffffff"
     bordercolor="#666666"
     borderopacity="1"
     objecttolerance="10"
     gridtolerance="10"
     guidetolerance="10"
     inkscape:pageopacity="0"
     inkscape:pageshadow="2"
     inkscape:window-width="1920"
     inkscape:window-height="1019"
     id="namedview4319"
     showgrid="false"
     inkscape:zoom="13.423679"
     inkscape:cx="-23.880964"
     inkscape:cy="9.6463904"
     inkscape:window-x="0"
     inkscape:window-y="13"
     inkscape:window-maximized="1"
     inkscape:current-layer="svg3786" />
  <defs
     id="defs3788">
    <radialGradient
       cx="113.0654"
       cy="97.587898"
       r="2.5631001"
       fx="113.667"
       fy="98"
       id="radialGradient4241"
       gradientUnits="userSpaceOnUse">
      <stop
         id="stop4243"
         style="stop-color:#eee;stop-opacity:1"
         offset="0" />
      <stop
         id="stop4245"
         style="stop-color:#cecece;stop-opacity:1"
         offset="0.16" />
      <stop
         id="stop4247"
         style="stop-color:#888;stop-opacity:1"
         offset="0.4675" />
      <stop
         id="stop4249"
         style="stop-color:#555;stop-opacity:1"
         offset="1" />
    </radialGradient>
    <linearGradient
       id="linearGradient4035">
      <stop
         id="stop4037"
         style="stop-color:#f5f5f5;stop-opacity:1"
         offset="0" />
      <stop
         id="stop4039"
         style="stop-color:#e7e7e7;stop-opacity:1"
         offset="0.47025558" />
      <stop
         id="stop4041"
         style="stop-color:#8c8c8c;stop-opacity:1"
         offset="0.69348532" />
      <stop
         id="stop4043"
         style="stop-color:#ddd;stop-opacity:1"
         offset="0.83542866" />
      <stop
         id="stop4045"
         style="stop-color:#a8a8a8;stop-opacity:1"
         offset="1" />
    </linearGradient>
    <linearGradient
       id="linearGradient5060">
      <stop
         id="stop5062"
         style="stop-color:black;stop-opacity:1"
         offset="0" />
      <stop
         id="stop5064"
         style="stop-color:black;stop-opacity:0"
         offset="1" />
    </linearGradient>
    <linearGradient
       id="linearGradient5048">
      <stop
         id="stop5050"
         style="stop-color:black;stop-opacity:0"
         offset="0" />
      <stop
         id="stop5056"
         style="stop-color:black;stop-opacity:1"
         offset="0.5" />
      <stop
         id="stop5052"
         style="stop-color:black;stop-opacity:0"
         offset="1" />
    </linearGradient>
    <linearGradient
       id="linearGradient2215">
      <stop
         id="stop2223"
         style="stop-color:#7a7a7a;stop-opacity:1"
         offset="0" />
      <stop
         id="stop2219"
         style="stop-color:#474747;stop-opacity:1"
         offset="1" />
    </linearGradient>
    <linearGradient
       id="linearGradient7609">
      <stop
         id="stop7611"
         style="stop-color:white;stop-opacity:1"
         offset="0" />
      <stop
         id="stop7677"
         style="stop-color:#e7e7e7;stop-opacity:1"
         offset="0.47025558" />
      <stop
         id="stop7613"
         style="stop-color:#8c8c8c;stop-opacity:1"
         offset="0.67183787" />
      <stop
         id="stop7617"
         style="stop-color:#ddd;stop-opacity:1"
         offset="0.83542866" />
      <stop
         id="stop7615"
         style="stop-color:#a8a8a8;stop-opacity:1"
         offset="1" />
    </linearGradient>
    <linearGradient
       id="linearGradient4236">
      <stop
         id="stop4238"
         style="stop-color:#eee;stop-opacity:1"
         offset="0" />
      <stop
         id="stop4240"
         style="stop-color:#eee;stop-opacity:0"
         offset="1" />
    </linearGradient>
    <linearGradient
       id="linearGradient7056">
      <stop
         id="stop7064"
         style="stop-color:#e6e6e6;stop-opacity:1"
         offset="0" />
      <stop
         id="stop7060"
         style="stop-color:#c8c8c8;stop-opacity:1"
         offset="1" />
    </linearGradient>
    <linearGradient
       id="linearGradient3484">
      <stop
         id="stop3486"
         style="stop-color:#969696;stop-opacity:1"
         offset="0" />
      <stop
         id="stop3488"
         style="stop-color:#b4b4b4;stop-opacity:1"
         offset="1" />
    </linearGradient>
    <linearGradient
       id="linearGradient6310-8">
      <stop
         id="stop6312-6"
         style="stop-color:white;stop-opacity:1"
         offset="0" />
      <stop
         id="stop6314-6"
         style="stop-color:white;stop-opacity:0"
         offset="1" />
    </linearGradient>
    <radialGradient
       cx="24"
       cy="42"
       r="21"
       fx="24"
       fy="42"
       id="radialGradient2896"
       xlink:href="#linearGradient6310-8"
       gradientUnits="userSpaceOnUse"
       gradientTransform="matrix(0.45600688,0,1.2682748e-8,0.16285958,1.5666884,10.192926)" />
    <radialGradient
       cx="127.31733"
       cy="143.82751"
       r="78.728165"
       fx="127.31733"
       fy="143.82751"
       id="radialGradient2902"
       xlink:href="#linearGradient4035"
       gradientUnits="userSpaceOnUse"
       gradientTransform="matrix(0.08688857,-0.01142564,0.00282428,0.04593566,-1.8247151,1.0402674)" />
    <linearGradient
       x1="12.277412"
       y1="37.205811"
       x2="12.221823"
       y2="33.758667"
       id="linearGradient2905"
       xlink:href="#linearGradient4236"
       gradientUnits="userSpaceOnUse"
       gradientTransform="matrix(0.46570919,0,0,0.40989384,1.5552063,3.1149058)" />
    <linearGradient
       x1="7.0625"
       y1="35.28125"
       x2="24.6875"
       y2="35.28125"
       id="linearGradient2908"
       xlink:href="#linearGradient5060"
       gradientUnits="userSpaceOnUse"
       gradientTransform="matrix(0.46570919,0,0,0.40989384,1.9256746,2.5714601)" />
    <radialGradient
       cx="142.62215"
       cy="191.85428"
       r="78.728165"
       fx="142.62215"
       fy="191.85428"
       id="radialGradient2920"
       xlink:href="#linearGradient7609"
       gradientUnits="userSpaceOnUse"
       gradientTransform="matrix(0.08433956,0,0,-0.05961974,0.14797176,19.563154)" />
    <radialGradient
       cx="141.74666"
       cy="206.42612"
       r="78.728165"
       fx="141.74666"
       fy="206.42612"
       id="radialGradient2923"
       xlink:href="#linearGradient4035"
       gradientUnits="userSpaceOnUse"
       gradientTransform="matrix(0.16033603,-0.00229116,0.00118665,0.13182829,-10.756598,-12.478616)" />
    <radialGradient
       cx="11.734284"
       cy="8.4900017"
       r="23.047892"
       fx="11.734284"
       fy="8.4900017"
       id="radialGradient2927"
       xlink:href="#linearGradient7056"
       gradientUnits="userSpaceOnUse"
       gradientTransform="matrix(0.62778822,0.31792539,-0.21346069,0.42150806,1.5442721,-2.3192784)" />
    <linearGradient
       x1="17.813944"
       y1="29.796696"
       x2="18.072828"
       y2="10.000001"
       id="linearGradient2929"
       xlink:href="#linearGradient3484"
       gradientUnits="userSpaceOnUse"
       gradientTransform="matrix(0.45600691,0,0,0.45600691,1.5666878,-1.4353175)" />
    <linearGradient
       x1="29.9375"
       y1="41"
       x2="30"
       y2="49.999996"
       id="linearGradient2933"
       xlink:href="#linearGradient2215"
       gradientUnits="userSpaceOnUse"
       gradientTransform="matrix(0.45680501,0,0,0.34640122,-0.73655629,1.2717768)" />
    <radialGradient
       cx="605.71429"
       cy="486.64789"
       r="117.14286"
       fx="605.71429"
       fy="486.64789"
       id="radialGradient2936"
       xlink:href="#linearGradient5060"
       gradientUnits="userSpaceOnUse"
       gradientTransform="matrix(-0.02045076,0,0,0.00938838,16.437589,13.818805)" />
    <radialGradient
       cx="605.71429"
       cy="486.64789"
       r="117.14286"
       fx="605.71429"
       fy="486.64789"
       id="radialGradient2939"
       xlink:href="#linearGradient5060"
       gradientUnits="userSpaceOnUse"
       gradientTransform="matrix(0.02045076,0,0,0.00938838,8.5841235,13.818805)" />
    <linearGradient
       x1="302.85715"
       y1="366.64789"
       x2="302.85715"
       y2="609.50507"
       id="linearGradient2942"
       xlink:href="#linearGradient5048"
       gradientUnits="userSpaceOnUse"
       gradientTransform="matrix(0.03481911,0,0,0.00938838,-0.07376431,13.818805)" />
    <radialGradient
       cx="113.0654"
       cy="97.587898"
       r="2.5631001"
       fx="113.667"
       fy="98"
       id="radialGradient2947"
       xlink:href="#radialGradient4241"
       gradientUnits="userSpaceOnUse"
       gradientTransform="matrix(0.15024913,0,0,0.15948679,4.3277744,-0.75405637)" />
    <radialGradient
       cx="113.0654"
       cy="97.587898"
       r="2.5631001"
       fx="113.667"
       fy="98"
       id="radialGradient2953"
       xlink:href="#radialGradient4241"
       gradientUnits="userSpaceOnUse"
       gradientTransform="matrix(0.10184098,0.01568346,-0.01049077,0.06812213,8.3116868,-4.4594161)" />
    <radialGradient
       cx="113.0654"
       cy="97.587898"
       r="2.5631001"
       fx="113.667"
       fy="98"
       id="radialGradient2959"
       xlink:href="#radialGradient4241"
       gradientUnits="userSpaceOnUse"
       gradientTransform="matrix(0.10161097,-0.01711042,0.01144528,0.06796829,-6.7079759,-0.73652078)" />
    <radialGradient
       cx="113.0654"
       cy="97.587898"
       r="2.5631001"
       fx="113.667"
       fy="98"
       id="radialGradient2965"
       xlink:href="#radialGradient4241"
       gradientUnits="userSpaceOnUse"
       gradientTransform="matrix(-0.15024913,0,0,0.15948679,20.702124,-0.75405637)" />
  </defs>
  <g
     id="g4208"
     transform="matrix(1.1361369,0,0,1.1361369,-2.2140418,-0.87573577)">
    <rect
       style="display:inline;overflow:visible;visibility:visible;opacity:0.3;fill:url(#linearGradient2942);fill-opacity:1;fill-rule:nonzero;stroke:none;stroke-width:0.5;marker:none"
       id="rect2723"
       y="17.261032"
       x="4.1045179"
       height="2.2800345"
       width="16.812656" />
    <path
       inkscape:connector-curvature="0"
       style="display:inline;overflow:visible;visibility:visible;opacity:0.3;fill:url(#radialGradient2939);fill-opacity:1;fill-rule:nonzero;stroke:none;stroke-width:0.5;marker:none"
       id="path2725"
       d="m 20.908983,17.261111 c 0,0 0,2.279908 0,2.279908 1.053161,0.0043 2.546036,-0.510812 2.546036,-1.1401 0,-0.629288 -1.175248,-1.139808 -2.546036,-1.139808 z" />
    <path
       inkscape:connector-curvature="0"
       style="display:inline;overflow:visible;visibility:visible;opacity:0.3;fill:url(#radialGradient2936);fill-opacity:1;fill-rule:nonzero;stroke:none;stroke-width:1;marker:none"
       id="path2727"
       d="m 4.1127248,17.261111 c 0,0 0,2.279908 0,2.279908 -1.0531661,0.0043 -2.546037,-0.510812 -2.546037,-1.1401 0,-0.629288 1.1752531,-1.139808 2.546037,-1.139808 z" />
    <path
       inkscape:connector-curvature="0"
       style="display:inline;fill:url(#linearGradient2933);fill-opacity:1;fill-rule:evenodd;stroke:#353537;stroke-width:0.4231739;stroke-linecap:round;stroke-linejoin:round;stroke-miterlimit:4;stroke-dasharray:none;stroke-dashoffset:0;stroke-opacity:1;enable-background:new"
       id="rect6431"
       d="m 2.2342151,15.648592 20.5531439,0 -0.410955,2.768874 -19.6855526,0 -0.4566363,-2.768874 z" />
    <rect
       style="display:inline;fill:#d2d2d3;fill-opacity:1;fill-rule:evenodd;stroke:none;enable-background:new"
       id="rect6381"
       y="15.43694"
       x="2.2506983"
       height="0.45600691"
       width="20.520311" />
    <path
       inkscape:connector-curvature="0"
       style="display:inline;overflow:visible;visibility:visible;fill:url(#radialGradient2927);fill-opacity:1;fill-rule:nonzero;stroke:url(#linearGradient2929);stroke-width:0.45408413;stroke-linecap:round;stroke-linejoin:round;stroke-miterlimit:4;stroke-dasharray:none;stroke-dashoffset:0;stroke-opacity:1;marker:none;enable-background:accumulate"
       id="path6345"
       d="M 22.79381,15.711503 19.68857,3.9582273 C 19.600765,3.6235306 19.140814,3.3517934 18.754136,3.3517934 l -12.5936422,0 c -0.5940587,0 -0.9344757,0.090551 -1.0597413,0.6064339 L 2.2278978,15.700059" />
    <path
       inkscape:connector-curvature="0"
       style="display:inline;overflow:visible;visibility:visible;opacity:0.4;fill:none;stroke:#ffffff;stroke-width:0.45600691;stroke-linecap:round;stroke-linejoin:miter;stroke-miterlimit:4;stroke-dasharray:none;stroke-dashoffset:0;stroke-opacity:1;marker:none;enable-background:accumulate"
       id="path7046"
       d="M 22.315003,15.664942 2.7067051,15.653974" />
    <path
       inkscape:connector-curvature="0"
       style="fill:url(#radialGradient2923);fill-opacity:1"
       id="path9001"
       d="M 20.249928,10.59139 C 20.150665,9.6803001 19.485428,8.81154 18.380117,8.1260017 18.357883,7.8624928 18.074568,4.4915404 18.074568,4.4915404 18.052855,4.2324075 17.722645,4.0368318 17.306189,4.0368318 l -2.613498,0 c -0.41945,0 -0.743694,0.198146 -0.754269,0.4608878 C 13.890468,5.6848 12.428116,6.3045908 10.246762,6.8684095 9.4824393,7.0008065 7.4897412,7.6231722 7.0323856,7.8963327 5.6860533,8.6139069 4.8831211,9.5705482 4.7718664,10.59139 c -0.1012064,0.928462 0.385246,1.857568 1.3697831,2.616188 1.4410089,1.110398 3.821952,1.773419 6.3691565,1.773419 2.54721,0 4.928148,-0.663021 6.369338,-1.773419 0.899202,-0.692742 1.382827,-1.527921 1.382827,-2.374805 0,-0.08042 -0.0047,-0.160966 -0.01307,-0.241383 l 2.6e-5,0 z m -7.739122,3.929109 c -4.242459,0 -7.4910454,-1.860657 -7.2560173,-4.017502 C 5.3561718,9.5731193 6.10039,8.5804546 7.3328221,7.9263118 7.5636169,7.7523533 9.6480018,7.0756913 10.395746,6.9568021 12.468141,6.4223207 14.36334,5.7286769 14.422755,4.2668899 c 0.0026,-0.070001 0.122008,-0.1254507 0.269936,-0.1254507 l 2.613149,0 c 0.151275,0 0.278938,0.058159 0.284931,0.1299549 l 0.317353,3.7766374 c 1.098438,0.6365139 1.764023,1.5865891 1.858528,2.4549655 0.235199,2.156845 -3.013381,4.017502 -7.255846,4.017502 l 0,0 z" />
    <path
       inkscape:connector-curvature="0"
       style="display:inline;overflow:visible;visibility:visible;fill:url(#radialGradient2920);fill-opacity:1;fill-rule:nonzero;stroke-width:1;stroke-linecap:butt;stroke-linejoin:miter;stroke-miterlimit:4;stroke-dasharray:none;stroke-dashoffset:0;stroke-opacity:1;marker:none;enable-background:accumulate"
       id="path9003"
       d="m 12.510748,11.788949 c -1.534446,0 -2.7107561,-0.577813 -2.7355498,-1.344229 -1.957e-4,-0.0083 -3.862e-4,-0.01643 -3.862e-4,-0.02458 0,-0.277332 0.1541751,-0.54109 0.447143,-0.7644143 0.495591,-0.3774933 1.351244,-0.602819 2.288983,-0.602819 0.937549,0 1.793198,0.2253257 2.288788,0.602819 0.301621,0.229609 0.456187,0.5025143 0.446763,0.7888503 -0.02519,0.766414 -1.201489,1.34437 -2.735741,1.34437 l 0,1e-6 z m 0,-2.3072486 c -1.441791,0 -2.176334,0.5726676 -2.159031,1.0954706 0.01672,0.514661 0.983303,0.925874 2.159031,0.925874 1.17573,0 2.1423,-0.411358 2.159028,-0.925874 0.01709,-0.522947 -0.717241,-1.0954706 -2.159028,-1.0954706 l 0,0 z" />
    <path
       inkscape:connector-curvature="0"
       style="fill:#e1e1e1;fill-opacity:1"
       id="path9007"
       d="m 4.3099445,14.807388 c -0.018929,0.271447 -0.3024515,0.492814 -0.6329999,0.492814 -0.3303981,0 -0.580563,-0.221367 -0.5584762,-0.492814 0.02194,-0.270011 0.3053063,-0.48803 0.6325492,-0.48803 0.3273931,1.28e-4 0.577558,0.218019 0.5589269,0.48803 z" />
    <path
       inkscape:connector-curvature="0"
       style="fill:url(#radialGradient2965);fill-opacity:1"
       id="path9009"
       d="m 4.0961398,14.616482 c 0.030202,0.03444 0.064759,0.08963 0.064759,0.162996 0,0.0052 -3.012e-4,0.01052 -6.016e-4,0.01611 -0.013072,0.187077 -0.2343893,0.345129 -0.4832015,0.345129 -0.1416853,0 -0.2711994,-0.05183 -0.3463246,-0.138913 -0.032304,-0.03716 -0.069114,-0.09872 -0.062506,-0.180698 0.015173,-0.185484 0.2361912,-0.342259 0.4829011,-0.342259 0.140633,1.28e-4 0.2696965,0.05151 0.3449719,0.137637 l 8e-7,0 z" />
    <path
       inkscape:connector-curvature="0"
       style="fill:#f0f0f0;fill-opacity:1"
       id="path9019"
       d="M 5.4945197,4.0285343 C 5.5268006,4.1420605 5.7344283,4.2041126 5.9579726,4.1664703 6.1814153,4.1288409 6.3347118,4.0060151 6.3002946,3.8928485 6.2660791,3.7802768 6.0587981,3.7196335 5.8374896,3.7569003 5.6160884,3.7942414 5.4625431,3.9155855 5.4945197,4.0285343 Z" />
    <path
       inkscape:connector-curvature="0"
       style="fill:url(#radialGradient2959);fill-opacity:1"
       id="path9021"
       d="m 5.6254123,3.9228284 c -0.01795,0.018124 -0.037364,0.045572 -0.032099,0.076838 3.785e-4,0.0022 9.862e-4,0.00448 0.00159,0.00683 0.022267,0.078238 0.1832809,0.1203905 0.3515488,0.092055 C 6.0422746,4.0824134 6.1261433,4.045573 6.1707,3.9999102 6.1898789,3.98039 6.210355,3.9499678 6.1999994,3.9157843 6.1764203,3.838465 6.0157057,3.7968215 5.8488596,3.8249176 5.7537611,3.840986 5.6701655,3.8775836 5.6254389,3.9228595 l -8e-7,0 z" />
    <path
       inkscape:connector-curvature="0"
       style="fill:#e1e1e1;fill-opacity:1"
       id="path9025"
       d="m 18.398932,3.8984626 c -0.005,0.1179203 0.17259,0.2420677 0.39664,0.2765714 0.223949,0.034489 0.408074,-0.033958 0.41096,-0.1522017 0.0029,-0.1176207 -0.17484,-0.2403221 -0.39665,-0.2744806 -0.221919,-0.034117 -0.405817,0.032835 -0.41095,0.1501109 z" />
    <path
       inkscape:connector-curvature="0"
       style="fill:url(#radialGradient2953);fill-opacity:1"
       id="path9027"
       d="m 18.55641,3.8392373 c -0.02274,0.011562 -0.04979,0.031522 -0.05462,0.062862 -3.47e-4,0.0022 -5.02e-4,0.00455 -6.38e-4,0.00698 -0.0035,0.081272 0.13617,0.1718821 0.304818,0.197854 0.09604,0.014786 0.187232,0.00615 0.243881,-0.023185 0.02434,-0.012495 0.05334,-0.034951 0.05425,-0.070661 0.0019,-0.08081 -0.13758,-0.1708442 -0.304803,-0.1965961 -0.09533,-0.014627 -0.186194,-0.00615 -0.242881,0.022782 l 0,0 z" />
    <path
       inkscape:connector-curvature="0"
       style="display:inline;overflow:visible;visibility:visible;fill:url(#linearGradient2908);fill-opacity:1;fill-rule:evenodd;stroke:none;stroke-width:2.40899992;marker:none"
       id="rect8993"
       d="m 4.98674,15.893011 8.436132,0 0,2.280035 -8.2081245,0 L 4.98674,15.893011 Z" />
    <path
       inkscape:connector-curvature="0"
       style="opacity:0.81142853;fill:url(#linearGradient2905);fill-opacity:1;fill-rule:evenodd;stroke:none"
       id="path8995"
       d="m 5.2147468,18.173044 c 0,0 -0.1824062,-1.644282 -0.1824062,-1.644282 0.854822,1.303145 4.0461579,1.644282 6.2075184,1.644282 0,0 -6.0251122,0 -6.0251122,0 z" />
    <path
       inkscape:connector-curvature="0"
       style="display:inline;overflow:visible;visibility:visible;fill:url(#radialGradient2902);fill-opacity:1;fill-rule:nonzero;stroke:none;stroke-width:1;marker:none;enable-background:accumulate"
       id="path9039"
       d="M 6.5401629,4.0368318 6.4930655,4.2105748 5.7900174,6.7965389 5.6707459,7.22888 6.019134,7.1359483 l 5.925707,-1.6162275 0.01882,-0.00808 0.0157,-0.00808 c 0.313794,-0.1615878 0.481466,-0.4881328 0.52101,-0.7879115 0.01979,-0.1498901 0.01386,-0.2966667 -0.03764,-0.4323396 -0.04863,-0.128081 -0.175232,-0.2420374 -0.307584,-0.2383943 l 0,-0.00808 -0.02199,0 -5.4517723,0 -0.1412392,0 1.52e-5,8e-7 z m 0.2005684,0.1597739 5.4613867,0 c 0.0026,0.021826 0.0087,0.033942 0.003,0.075244 -0.01713,0.1299716 -0.09083,0.5949516 -0.275994,0.6963863 l -5.7438897,1.5675172 0.5552299,-2.3391441 1.783e-4,0 z" />
    <path
       inkscape:connector-curvature="0"
       style="fill:#e1e1e1;fill-opacity:1"
       id="path9091"
       d="m 20.719955,14.807388 c 0.01893,0.271447 0.302452,0.492814 0.633,0.492814 0.330398,0 0.580563,-0.221367 0.558476,-0.492814 -0.02194,-0.270011 -0.305306,-0.48803 -0.632549,-0.48803 -0.327393,1.28e-4 -0.577557,0.218019 -0.558927,0.48803 z" />
    <path
       inkscape:connector-curvature="0"
       style="fill:url(#radialGradient2947);fill-opacity:1"
       id="path9093"
       d="m 20.93376,14.616482 c -0.0302,0.03444 -0.06476,0.08963 -0.06476,0.162996 0,0.0052 3.01e-4,0.01052 5.92e-4,0.01611 0.01307,0.187077 0.234389,0.345129 0.483202,0.345129 0.141685,0 0.271199,-0.05183 0.346323,-0.138913 0.0323,-0.03716 0.06911,-0.09872 0.06251,-0.180698 -0.01517,-0.185484 -0.236192,-0.342259 -0.482901,-0.342259 -0.140633,1.28e-4 -0.269697,0.05151 -0.344972,0.137637 l -1e-6,0 z" />
    <rect
       style="opacity:0.3;fill:url(#radialGradient2896);fill-opacity:1;stroke:none"
       id="rect6300-3"
       y="15.893013"
       x="2.9347084"
       height="2.2800345"
       width="19.15229" />
  </g>
</svg>
