<?xml version="1.0" encoding="UTF-8" standalone="no"?>
<svg
   xmlns:dc="http://purl.org/dc/elements/1.1/"
   xmlns:cc="http://creativecommons.org/ns#"
   xmlns:rdf="http://www.w3.org/1999/02/22-rdf-syntax-ns#"
   xmlns:svg="http://www.w3.org/2000/svg"
   xmlns="http://www.w3.org/2000/svg"
   xmlns:xlink="http://www.w3.org/1999/xlink"
   xmlns:sodipodi="http://sodipodi.sourceforge.net/DTD/sodipodi-0.dtd"
   xmlns:inkscape="http://www.inkscape.org/namespaces/inkscape"
   version="1.1"
   width="24"
   height="24"
   id="svg2"
   inkscape:version="0.91 r13725"
   sodipodi:docname="folder.svg">
  <sodipodi:namedview
     pagecolor="#ffffff"
     bordercolor="#666666"
     borderopacity="1"
     objecttolerance="10"
     gridtolerance="10"
     guidetolerance="10"
     inkscape:pageopacity="0"
     inkscape:pageshadow="2"
     inkscape:window-width="1920"
     inkscape:window-height="1019"
     id="namedview34"
     showgrid="false"
     inkscape:zoom="32.496094"
     inkscape:cx="12"
     inkscape:cy="12"
     inkscape:window-x="0"
     inkscape:window-y="13"
     inkscape:window-maximized="1"
     inkscape:current-layer="svg2" />
  <defs
     id="defs10996">
    <linearGradient
       inkscape:collect="always"
       id="linearGradient3829">
      <stop
         id="stop3831" />
      <stop
         offset="1"
         id="stop3833"
         stop-opacity="0" />
    </linearGradient>
    <linearGradient
       id="linearGradient3782">
      <stop
         id="stop3784"
         stop-color="#ffffff" />
      <stop
         id="stop3786"
         offset="1"
         stop-color="#e4e5e7" />
    </linearGradient>
    <linearGradient
       id="linearGradient3927-2">
      <stop
         id="stop3929-8"
         stop-color="#f1f2f3" />
      <stop
         offset="1"
         id="stop3931-8"
         stop-color="#e4e5e7" />
    </linearGradient>
    <linearGradient
       id="linearGradient3788-9">
      <stop
         id="stop3790-5"
         stop-opacity="0.51" />
      <stop
         id="stop3792-0"
         offset="1"
         stop-opacity="0.392" />
    </linearGradient>
    <linearGradient
       inkscape:collect="always"
       xlink:href="#linearGradient3788-9"
       id="linearGradient4211"
       gradientUnits="userSpaceOnUse"
       gradientTransform="matrix(0.48888887,0,0,0.48387095,0.5111116,1.1612907)"
       y1="11.03"
       x2="0"
       y2="13.1" />
    <linearGradient
       inkscape:collect="always"
       xlink:href="#linearGradient3782"
       id="linearGradient4213"
       gradientUnits="userSpaceOnUse"
       gradientTransform="matrix(0.5128205,0,0,0.52,-1.5897432,-7.0399993)"
       y1="27"
       x2="0"
       y2="52" />
    <linearGradient
       inkscape:collect="always"
       xlink:href="#linearGradient3927-2"
       id="linearGradient4215"
       gradientUnits="userSpaceOnUse"
       gradientTransform="matrix(0.48648651,0,0,0.47826084,0.5675679,0.347826)"
       y1="16"
       x2="0"
       y2="39" />
    <linearGradient
       inkscape:collect="always"
       xlink:href="#linearGradient3829"
       id="linearGradient4217"
       gradientUnits="userSpaceOnUse"
       gradientTransform="matrix(0.44999999,0,0,0.5,1.2000007,0.50000037)"
       y1="11"
       x2="0"
       y2="9" />
  </defs>
  <metadata
     id="metadata10999">
    <rdf:RDF>
      <cc:Work
         rdf:about="">
        <dc:format>image/svg+xml</dc:format>
        <dc:type
           rdf:resource="http://purl.org/dc/dcmitype/StillImage" />
      </cc:Work>
    </rdf:RDF>
  </metadata>
  <g
     id="g3067"
     transform="matrix(1.0867237,0,0,1.0867237,-1.040684,-1.0276755)">
    <rect
       rx="2"
       y="5.6999998"
       x="1"
       height="16"
       width="22"
       id="rect3915-0-6"
       style="opacity:0.12999998;stroke:#000000;stroke-width:0" />
    <path
       id="rect3967-9"
       d="M 6,2 C 4.892,2 4,2.892 4,4 2.892,4 3,4.892 3,6 l 0,5 c 0,1.108 0.892,2 2,2 l 14,0 c 1.108,0 2,-0.892 2,-2 L 21,6 C 21,4.892 20.108,4 19,4 L 11,4 C 11,2.892 10.108,2 9,2 Z"
       inkscape:connector-curvature="0"
       sodipodi:nodetypes="scssssssscss"
       style="fill-opacity:0.65899999;stroke:#000000;stroke-width:0" />
    <rect
       y="5"
       x="4"
       height="7"
       width="16"
       id="rect3969-1"
       rx="1"
       style="fill:#8b8b8d;stroke:#000000;stroke-width:0" />
    <path
       sodipodi:nodetypes="ccscssc"
       inkscape:connector-curvature="0"
       id="rect3011-5-3"
       d="m 10,5 0,1 9,0 c 0.554,0 1,0.446 1,1 L 20,6 C 20,5.446 19.554,5 19,5 Z"
       style="opacity:0.15;fill:#ffffff;stroke:#767779;stroke-width:0" />
    <rect
       rx="1"
       y="3"
       x="5"
       height="3"
       width="5"
       id="rect3101-7"
       style="fill:#8b8b8d;stroke:#767779;stroke-width:0" />
    <path
       sodipodi:nodetypes="ccscc"
       inkscape:connector-curvature="0"
       id="rect3011-5-0-2"
       d="M 5,6 C 4.446,6 4,6.446 4,7 L 4,6 C 4,5.446 4.446,5 5,5 Z"
       style="opacity:0.15;fill:#ffffff;stroke:#767779;stroke-width:0" />
    <rect
       rx="2"
       y="6"
       x="1"
       height="15"
       width="22"
       id="rect3915-5"
       style="fill:url(#linearGradient4211);stroke:#000000;stroke-width:0" />
    <rect
       y="7"
       x="2"
       height="13"
       width="20"
       id="rect3957-8"
       rx="1"
       style="fill:url(#linearGradient4213);stroke:#000000;stroke-width:0" />
    <rect
       rx="0"
       y="8"
       x="3"
       height="11"
       width="18"
       id="rect3925-0"
       style="fill:url(#linearGradient4215);stroke:#000000;stroke-width:0" />
    <rect
       id="rect3827-0"
       width="18"
       height="1"
       x="3"
       y="5"
       rx="0"
       style="opacity:0.17300002;fill:url(#linearGradient4217);stroke:#102b68;stroke-width:0" />
    <path
       sodipodi:nodetypes="sscsscsss"
       inkscape:connector-curvature="0"
       id="rect3011-2"
       d="M 6,3 C 5.446,3 5,3.446 5,4 L 5,5 C 5,4.446 5.446,4 6,4 l 3,0 c 0.554,0 1,0.446 1,1 L 10,4 C 10,3.446 9.554,3 9,3 Z"
       style="opacity:0.15;fill:#ffffff;stroke:#767779;stroke-width:0" />
  </g>
</svg>
