<?xml version="1.0" encoding="UTF-8" standalone="no"?>
<svg
   xmlns:dc="http://purl.org/dc/elements/1.1/"
   xmlns:cc="http://creativecommons.org/ns#"
   xmlns:rdf="http://www.w3.org/1999/02/22-rdf-syntax-ns#"
   xmlns:svg="http://www.w3.org/2000/svg"
   xmlns="http://www.w3.org/2000/svg"
   xmlns:xlink="http://www.w3.org/1999/xlink"
   xmlns:sodipodi="http://sodipodi.sourceforge.net/DTD/sodipodi-0.dtd"
   xmlns:inkscape="http://www.inkscape.org/namespaces/inkscape"
   version="1.1"
   width="24"
   height="24"
   id="svg2"
   inkscape:version="0.91 r13725"
   sodipodi:docname="folder-pictures.svg">
  <sodipodi:namedview
     pagecolor="#ffffff"
     bordercolor="#666666"
     borderopacity="1"
     objecttolerance="10"
     gridtolerance="10"
     guidetolerance="10"
     inkscape:pageopacity="0"
     inkscape:pageshadow="2"
     inkscape:window-width="1920"
     inkscape:window-height="1019"
     id="namedview48"
     showgrid="false"
     inkscape:zoom="14.237962"
     inkscape:cx="22.995128"
     inkscape:cy="25.555902"
     inkscape:window-x="0"
     inkscape:window-y="13"
     inkscape:window-maximized="1"
     inkscape:current-layer="svg2" />
  <metadata
     id="metadata8">
    <rdf:RDF>
      <cc:Work
         rdf:about="">
        <dc:format>image/svg+xml</dc:format>
        <dc:type
           rdf:resource="http://purl.org/dc/dcmitype/StillImage" />
      </cc:Work>
    </rdf:RDF>
  </metadata>
  <defs
     id="defs6">
    <linearGradient
       id="linearGradient3937-0">
      <stop
         id="stop3939-8"
         stop-color="#9c9d9e" />
      <stop
         id="stop3941-2"
         offset="1"
         stop-color="#bbbcbd" />
    </linearGradient>
    <linearGradient
       inkscape:collect="always"
       xlink:href="#linearGradient3937-0"
       id="linearGradient4229"
       gradientUnits="userSpaceOnUse"
       gradientTransform="translate(35,-6)"
       y1="20"
       x2="0"
       y2="32" />
    <linearGradient
       id="linearGradient3788-9">
      <stop
         id="stop3790-5"
         stop-opacity="0.51" />
      <stop
         offset="1"
         id="stop3792-0"
         stop-opacity="0.392" />
    </linearGradient>
    <linearGradient
       x2="20"
       x1="18"
       gradientTransform="matrix(-1,0,0,1,33,27)"
       gradientUnits="userSpaceOnUse"
       id="linearGradient3094-1"
       xlink:href="#linearGradient3930-0"
       inkscape:collect="always" />
    <linearGradient
       x2="7"
       x1="5"
       gradientTransform="translate(-1,27)"
       gradientUnits="userSpaceOnUse"
       id="linearGradient3092-9"
       xlink:href="#linearGradient3930-0"
       inkscape:collect="always" />
    <linearGradient
       id="linearGradient3930-0"
       inkscape:collect="always">
      <stop
         id="stop3932-0"
         stop-color="#ffffff" />
      <stop
         id="stop3934-0"
         offset="1"
         stop-color="#ffffff"
         stop-opacity="0" />
    </linearGradient>
    <linearGradient
       y2="13.1"
       x2="0"
       y1="11.03"
       gradientTransform="matrix(0.66666665,0,0,0.64516133,0.3333342,17.548387)"
       gradientUnits="userSpaceOnUse"
       id="linearGradient3975"
       xlink:href="#linearGradient3788-9"
       inkscape:collect="always" />
    <linearGradient
       y2="52"
       x2="0"
       y1="27"
       gradientTransform="matrix(0.71794137,0,0,0.72,-3.0253029,5.5600007)"
       gradientUnits="userSpaceOnUse"
       id="linearGradient3972"
       xlink:href="#linearGradient3782-9"
       inkscape:collect="always" />
    <linearGradient
       y2="39"
       x2="0"
       y1="16"
       gradientTransform="matrix(0.70270274,0,0,0.69565213,-0.513513,14.869565)"
       gradientUnits="userSpaceOnUse"
       id="linearGradient3969"
       xlink:href="#linearGradient3927-2"
       inkscape:collect="always" />
    <linearGradient
       y2="9"
       x2="0"
       y1="11"
       gradientTransform="matrix(0.65,0,0,1,0.40000056,13.000001)"
       gradientUnits="userSpaceOnUse"
       id="linearGradient3966-87"
       xlink:href="#linearGradient3829-1"
       inkscape:collect="always" />
    <linearGradient
       inkscape:collect="always"
       id="linearGradient3829-1">
      <stop
         id="stop3831-2" />
      <stop
         offset="1"
         id="stop3833-7"
         stop-opacity="0" />
    </linearGradient>
    <linearGradient
       id="linearGradient3782-9">
      <stop
         id="stop3784-5"
         stop-color="#ffffff" />
      <stop
         id="stop3786-75"
         offset="1"
         stop-color="#e4e5e7" />
    </linearGradient>
    <linearGradient
       id="linearGradient3927-2">
      <stop
         id="stop3929-8"
         stop-color="#f1f2f3" />
      <stop
         offset="1"
         id="stop3931-8"
         stop-color="#e4e5e7" />
    </linearGradient>
  </defs>
  <g
     id="g4176"
     transform="matrix(0.80767489,0,0,0.80767489,-0.9227982,-0.74425121)">
    <g
       id="layer4"
       inkscape:label="Ebene#1"
       transform="matrix(0.99357841,0,0,0.99357841,0.10274546,-15.795929)">
      <rect
         style="opacity:0.18000004;stroke:#000000;stroke-width:0"
         transform="matrix(0.62131645,0,0,0.65055761,1.0014209,17.325535)"
         id="rect3915-0-6"
         width="46"
         height="30"
         x="1.14"
         y="11.86"
         rx="2.0769999"
         ry="1.474" />
      <path
         style="fill-opacity:0.65899999;stroke:#000000;stroke-width:0"
         inkscape:connector-curvature="0"
         d="M 7,3 C 5.892,3 5,3.892 5,5 3.892,5 3,5.892 3,7 l 0,5 c 0,1.108 0.892,2 2,2 l 22,0 c 1.108,0 2,-0.892 2,-2 L 29,7 C 29,5.892 28.108,5 27,5 L 14,5 C 14,3.892 13.108,3 12,3 L 7,3 Z"
         transform="translate(0,16)"
         id="rect3967-6" />
      <rect
         style="fill:#8b8b8d;stroke:#000000;stroke-width:0"
         rx="1"
         id="rect3969-5"
         width="24"
         height="7"
         x="4"
         y="22" />
      <path
         style="fill:#8b8b8d;stroke:#000000;stroke-width:0"
         sodipodi:nodetypes="sssccccss"
         inkscape:connector-curvature="0"
         id="rect3945-2"
         d="m 7,20 5,0 c 0.526969,0 1,0.468145 1,1 l 0,1 0,0 -7,0 0,0 0,-1 c 0,-0.536986 0.4603177,-1 1,-1 z" />
      <rect
         style="fill:url(#linearGradient3975);stroke:#000000;stroke-width:0"
         id="rect3915-5"
         width="30"
         height="20"
         x="1"
         y="24"
         rx="2" />
      <rect
         style="fill:url(#linearGradient3972);stroke:#000000;stroke-width:0"
         rx="1"
         id="rect3957-0"
         width="28"
         height="18"
         x="2"
         y="25" />
      <rect
         style="fill:url(#linearGradient3969);stroke:#000000;stroke-width:0"
         id="rect3925-1"
         width="26"
         height="16"
         x="3"
         y="26"
         rx="0" />
      <rect
         style="opacity:0.17300002;fill:url(#linearGradient3966-87);stroke:#102b68;stroke-width:0"
         rx="0"
         y="22"
         x="3"
         height="2"
         width="26"
         id="rect3827-6" />
      <path
         style="opacity:0.15;fill:#ffffff;stroke:#767779;stroke-width:0"
         d="m 7,20 c -0.554,0 -1,0.446 -1,1 l 0,1 c 0,-0.554 0.446,-1 1,-1 l 5,0 c 0.554,0 1,0.446 1,1 l 0,-1 c 0,-0.554 -0.446,-1 -1,-1 z"
         id="rect3011-7"
         inkscape:connector-curvature="0"
         sodipodi:nodetypes="sscsscsss" />
      <path
         style="opacity:0.15;fill:url(#linearGradient3092-9);stroke:#767779;stroke-width:0"
         d="m 5,22 c -0.554,0 -1,0.446 -1,1 l 0,1 c 0,-0.554 0.446,-1 1,-1 l 1,0 0,-1 z"
         id="rect3891-8-9"
         inkscape:connector-curvature="0"
         sodipodi:nodetypes="sscsccs" />
      <path
         style="opacity:0.15;fill:url(#linearGradient3094-1);stroke:#767779;stroke-width:0"
         d="m 27,22 c 0.554,0 1,0.446 1,1 l 0,1 c 0,-0.554 -0.446,-1 -1,-1 l -14,0 0,-1 z"
         id="rect3891-8-0-1"
         inkscape:connector-curvature="0"
         sodipodi:nodetypes="sscsccs" />
    </g>
    <path
       style="fill:#ffffff;stroke:#102b68;stroke-width:0"
       d="m 10.03853,15.99858 c -0.5504429,0 -0.9935789,0.443136 -0.9935789,0.993579 l 0,5.96147 c 0,0.550443 0.443136,0.993579 0.9935789,0.993579 l 11.92294,0 c 0.550443,0 0.993579,-0.443136 0.993579,-0.993579 l 0,-5.96147 c 0,-0.550443 -0.443136,-0.993579 -0.993579,-0.993579 l -1.987156,0 -0.993579,-1.987156 -2.980735,0 -2.980735,0 -0.993579,1.987156 z m 0,0.993579 2.483946,0 0.993578,-1.987157 2.483946,0 2.483946,0 0.993578,1.987157 2.483946,0 0,5.96147 -11.92294,0 z"
       id="rect3990-3"
       inkscape:connector-curvature="0"
       sodipodi:nodetypes="sssssssscccccscccccccccc" />
    <g
       transform="matrix(0.99357841,0,0,0.99357841,-42.621126,-1.8858309)"
       id="g4223">
      <path
         style="fill:url(#linearGradient4229);stroke:#102b68;stroke-width:0"
         sodipodi:nodetypes="cccccccccsssss"
         d="m 56.5,15 -1,2 -2.5,0 0,7 12,0 0,-7 -2.5,0 -1,-2 z m 2.5,3 c 1,0 2,0.59375 2,2 0,1 -1,2.0625 -2,2.0625 -1,0 -2,-1.03125 -2,-2.03125 C 57,18.59375 58,18 59,18 Z"
         id="rect3995"
         inkscape:connector-curvature="0" />
      <path
         style="fill:#767779;stroke:#102b68;stroke-width:0"
         d="m 53,16 c -0.554,0 -1,0.446 -1,1 l 0,7 c 0,0.554 0.446,1 1,1 l 12,0 c 0.554,0 1,-0.446 1,-1 l 0,-7 c 0,-0.554 -0.446,-1 -1,-1 l -2,0 -1,-2 -3,0 -3,0 -1,2 z m 0,1 2.5,0 1,-2 2.5,0 2.5,0 1,2 2.5,0 0,7 -12,0 z"
         id="rect3990"
         inkscape:connector-curvature="0"
         sodipodi:nodetypes="sssssssscccccscccccccccc" />
    </g>
    <path
       style="fill:#767779;stroke:#102b68;stroke-width:0"
       inkscape:connector-curvature="0"
       id="path4287"
       d="m 16,15.005002 c -1.646214,0 -2.980735,1.334521 -2.980735,2.980735 0,1.646215 1.334521,2.980735 2.980735,2.980735 1.646214,0 2.980735,-1.33452 2.980735,-2.980735 0,-1.646214 -1.334521,-2.980735 -2.980735,-2.980735 z m 0,0.993578 c 1.097476,0 1.987157,0.889681 1.987157,1.987157 0,1.097476 -0.889681,1.987157 -1.987157,1.987157 -1.097476,0 -1.987157,-0.889681 -1.987157,-1.987157 0,-1.097476 0.889681,-1.987157 1.987157,-1.987157 z" />
  </g>
</svg>
