<?xml version="1.0" encoding="UTF-8" standalone="no"?>
<svg
   xmlns:dc="http://purl.org/dc/elements/1.1/"
   xmlns:cc="http://creativecommons.org/ns#"
   xmlns:rdf="http://www.w3.org/1999/02/22-rdf-syntax-ns#"
   xmlns:svg="http://www.w3.org/2000/svg"
   xmlns="http://www.w3.org/2000/svg"
   xmlns:xlink="http://www.w3.org/1999/xlink"
   xmlns:sodipodi="http://sodipodi.sourceforge.net/DTD/sodipodi-0.dtd"
   xmlns:inkscape="http://www.inkscape.org/namespaces/inkscape"
   version="1.1"
   width="24"
   height="24"
   id="svg2"
   inkscape:version="0.91 r13725"
   sodipodi:docname="gtk-network.svg">
  <sodipodi:namedview
     pagecolor="#ffffff"
     bordercolor="#666666"
     borderopacity="1"
     objecttolerance="10"
     gridtolerance="10"
     guidetolerance="10"
     inkscape:pageopacity="0"
     inkscape:pageshadow="2"
     inkscape:window-width="1920"
     inkscape:window-height="1019"
     id="namedview45"
     showgrid="false"
     inkscape:zoom="32.496094"
     inkscape:cx="12"
     inkscape:cy="16.923669"
     inkscape:window-x="0"
     inkscape:window-y="13"
     inkscape:window-maximized="1"
     inkscape:current-layer="svg2" />
  <metadata
     id="metadata8">
    <rdf:RDF>
      <cc:Work
         rdf:about="">
        <dc:format>image/svg+xml</dc:format>
        <dc:type
           rdf:resource="http://purl.org/dc/dcmitype/StillImage" />
      </cc:Work>
    </rdf:RDF>
  </metadata>
  <defs
     id="defs6">
    <linearGradient
       id="linearGradient3788-9">
      <stop
         id="stop3790-5"
         stop-opacity="0.51" />
      <stop
         offset="1"
         id="stop3792-0"
         stop-opacity="0.392" />
    </linearGradient>
    <linearGradient
       x2="20"
       x1="18"
       gradientTransform="matrix(-1,0,0,1,33,27)"
       gradientUnits="userSpaceOnUse"
       id="linearGradient3094-7"
       xlink:href="#linearGradient3930-68"
       inkscape:collect="always" />
    <linearGradient
       x2="7"
       x1="5"
       gradientTransform="translate(-1,27)"
       gradientUnits="userSpaceOnUse"
       id="linearGradient3092-8"
       xlink:href="#linearGradient3930-68"
       inkscape:collect="always" />
    <linearGradient
       id="linearGradient3930-68"
       inkscape:collect="always">
      <stop
         id="stop3932-4"
         stop-color="#ffffff" />
      <stop
         id="stop3934-5"
         offset="1"
         stop-color="#ffffff"
         stop-opacity="0" />
    </linearGradient>
    <linearGradient
       y2="13.1"
       x2="0"
       y1="11.03"
       gradientTransform="matrix(0.66666665,0,0,0.64516133,0.3333342,17.548387)"
       gradientUnits="userSpaceOnUse"
       id="linearGradient3975"
       xlink:href="#linearGradient3788-9"
       inkscape:collect="always" />
    <linearGradient
       y2="52"
       x2="0"
       y1="27"
       gradientTransform="matrix(0.71794137,0,0,0.72,-3.0253029,5.5600007)"
       gradientUnits="userSpaceOnUse"
       id="linearGradient3972"
       xlink:href="#linearGradient3782"
       inkscape:collect="always" />
    <linearGradient
       y2="39"
       x2="0"
       y1="16"
       gradientTransform="matrix(0.70270274,0,0,0.69565213,-0.513513,14.869565)"
       gradientUnits="userSpaceOnUse"
       id="linearGradient3969"
       xlink:href="#linearGradient3927-2"
       inkscape:collect="always" />
    <linearGradient
       y2="9"
       x2="0"
       y1="11"
       gradientTransform="matrix(0.65,0,0,1,0.40000056,13.000001)"
       gradientUnits="userSpaceOnUse"
       id="linearGradient3966-3"
       xlink:href="#linearGradient3829-1"
       inkscape:collect="always" />
    <linearGradient
       inkscape:collect="always"
       id="linearGradient3829-1">
      <stop
         id="stop3831-8" />
      <stop
         offset="1"
         id="stop3833-0"
         stop-opacity="0" />
    </linearGradient>
    <linearGradient
       id="linearGradient3782">
      <stop
         id="stop3784"
         stop-color="#ffffff" />
      <stop
         id="stop3786"
         offset="1"
         stop-color="#e4e5e7" />
    </linearGradient>
    <linearGradient
       id="linearGradient3927-2">
      <stop
         id="stop3929-8"
         stop-color="#f1f2f3" />
      <stop
         offset="1"
         id="stop3931-8"
         stop-color="#e4e5e7" />
    </linearGradient>
  </defs>
  <g
     id="g4173"
     transform="matrix(0.80510485,0,0,0.80510485,-0.88167759,-0.70369893)">
    <g
       id="layer4"
       inkscape:label="Ebene#1"
       transform="translate(0,-16)">
      <rect
         transform="matrix(0.62131645,0,0,0.65055761,1.0014209,17.325535)"
         id="rect3915-0"
         width="46"
         height="30"
         x="1.14"
         y="11.86"
         rx="2.0769999"
         ry="1.474"
         style="opacity:0.18000004;stroke:#000000;stroke-width:0" />
      <path
         inkscape:connector-curvature="0"
         d="M 7,3 C 5.892,3 5,3.892 5,5 3.892,5 3,5.892 3,7 l 0,5 c 0,1.108 0.892,2 2,2 l 22,0 c 1.108,0 2,-0.892 2,-2 L 29,7 C 29,5.892 28.108,5 27,5 L 14,5 C 14,3.892 13.108,3 12,3 L 7,3 Z"
         transform="translate(0,16)"
         id="rect3967"
         style="fill-opacity:0.65899999;stroke:#000000;stroke-width:0" />
      <rect
         rx="1"
         id="rect3969"
         width="24"
         height="7"
         x="4"
         y="22"
         style="fill:#8b8b8d;stroke:#000000;stroke-width:0" />
      <path
         sodipodi:nodetypes="sssccccss"
         inkscape:connector-curvature="0"
         id="rect3945"
         d="m 7,20 5,0 c 0.526969,0 1,0.468145 1,1 l 0,1 0,0 -7,0 0,0 0,-1 c 0,-0.536986 0.4603177,-1 1,-1 z"
         style="fill:#8b8b8d;stroke:#000000;stroke-width:0" />
      <rect
         id="rect3915"
         width="30"
         height="20"
         x="1"
         y="24"
         rx="2"
         style="fill:url(#linearGradient3975);stroke:#000000;stroke-width:0" />
      <rect
         rx="1"
         id="rect3957"
         width="28"
         height="18"
         x="2"
         y="25"
         style="fill:url(#linearGradient3972);stroke:#000000;stroke-width:0" />
      <rect
         id="rect3925"
         width="26"
         height="16"
         x="3"
         y="26"
         rx="0"
         style="fill:url(#linearGradient3969);stroke:#000000;stroke-width:0" />
      <rect
         rx="0"
         y="22"
         x="3"
         height="2"
         width="26"
         id="rect3827"
         style="opacity:0.17300002;fill:url(#linearGradient3966-3);stroke:#102b68;stroke-width:0" />
      <path
         d="m 7,20 c -0.554,0 -1,0.446 -1,1 l 0,1 c 0,-0.554 0.446,-1 1,-1 l 5,0 c 0.554,0 1,0.446 1,1 l 0,-1 c 0,-0.554 -0.446,-1 -1,-1 z"
         id="rect3011"
         inkscape:connector-curvature="0"
         sodipodi:nodetypes="sscsscsss"
         style="opacity:0.15;fill:#ffffff;stroke:#767779;stroke-width:0" />
      <path
         d="m 5,22 c -0.554,0 -1,0.446 -1,1 l 0,1 c 0,-0.554 0.446,-1 1,-1 l 1,0 0,-1 z"
         id="rect3891-8"
         inkscape:connector-curvature="0"
         sodipodi:nodetypes="sscsccs"
         style="opacity:0.15;fill:url(#linearGradient3092-8);stroke:#767779;stroke-width:0" />
      <path
         d="m 27,22 c 0.554,0 1,0.446 1,1 l 0,1 c 0,-0.554 -0.446,-1 -1,-1 l -14,0 0,-1 z"
         id="rect3891-8-0"
         inkscape:connector-curvature="0"
         sodipodi:nodetypes="sscsccs"
         style="opacity:0.15;fill:url(#linearGradient3094-7);stroke:#767779;stroke-width:0" />
    </g>
    <g
       transform="matrix(0.59999997,0,0,0.62698778,11.2,14.746024)"
       id="layer1-0-71-1-3"
       style="color:#000000;fill:#ffffff;stroke-width:1.70000005">
      <g
         transform="translate(-0.02867384,-0.7867384)"
         id="layer1-6-9-8-7"
         style="opacity:0.9">
        <path
           inkscape:connector-curvature="0"
           d="m 8.0286738,10.786738 c -0.8837844,0 -1.7582785,0.463138 -2.1184755,0.860829 l 2.1184755,2.303665 2.1390372,-2.283103 C 9.8075138,11.249876 8.9124582,10.786738 8.0286738,10.786738 Z m 0,-3.9999996 c -1.847888,0 -3.5041267,0.736481 -4.8649357,1.861156 l 1.3245282,1.4137196 c 0.90637,-0.6491716 2.3168195,-1.2748756 3.4869315,-1.2748756 1.198417,0 2.6760272,0.639835 3.5952572,1.3180686 L 12.935091,8.6271534 C 11.574282,7.5024784 9.8765618,6.7867384 8.0286738,6.7867384 Z m 0,-3.999999 c -2.853422,0 -5.468321,1.09634 -7.49999996,2.922777 l 1.29591676,1.459363 c 1.8117159,-1.588448 3.7176605,-2.382141 6.2040832,-2.382141 2.4864232,0 4.3343812,0.747499 6.2328602,2.414286 l 1.26714,-1.491508 C 13.496995,3.8830794 10.882095,2.7867394 8.0286738,2.7867394 Z"
           id="path4112-19-69-3-1-46-5-5" />
      </g>
    </g>
    <g
       transform="matrix(0.59999997,0,0,0.62698778,11.2,13.746024)"
       id="layer1-0-71-1"
       style="color:#000000;fill:#767779;stroke-width:1.70000005">
      <g
         transform="translate(-0.02867384,-0.7867384)"
         id="layer1-6-9-8"
         style="opacity:0.9">
        <path
           inkscape:connector-curvature="0"
           d="m 8.0286738,10.786738 c -0.8837844,0 -1.7582785,0.463138 -2.1184755,0.860829 l 2.1184755,2.303665 2.1390372,-2.283103 C 9.8075138,11.249876 8.9124582,10.786738 8.0286738,10.786738 Z m 0,-3.9999996 c -1.847888,0 -3.5041267,0.736481 -4.8649357,1.861156 l 1.3245282,1.4137196 c 0.90637,-0.6491716 2.3168195,-1.2748756 3.4869315,-1.2748756 1.198417,0 2.6760272,0.639835 3.5952572,1.3180686 L 12.935091,8.6271534 C 11.574282,7.5024784 9.8765618,6.7867384 8.0286738,6.7867384 Z m 0,-3.999999 c -2.853422,0 -5.468321,1.09634 -7.49999996,2.922777 l 1.29591676,1.459363 c 1.8117159,-1.588448 3.7176605,-2.382141 6.2040832,-2.382141 2.4864232,0 4.3343812,0.747499 6.2328602,2.414286 l 1.26714,-1.491508 C 13.496995,3.8830794 10.882095,2.7867394 8.0286738,2.7867394 Z"
           id="path4112-19-69-3-1-46-5" />
      </g>
    </g>
  </g>
</svg>
