<?xml version="1.0" encoding="UTF-8" standalone="no"?>
<svg
   xmlns:dc="http://purl.org/dc/elements/1.1/"
   xmlns:cc="http://creativecommons.org/ns#"
   xmlns:rdf="http://www.w3.org/1999/02/22-rdf-syntax-ns#"
   xmlns:svg="http://www.w3.org/2000/svg"
   xmlns="http://www.w3.org/2000/svg"
   xmlns:sodipodi="http://sodipodi.sourceforge.net/DTD/sodipodi-0.dtd"
   xmlns:inkscape="http://www.inkscape.org/namespaces/inkscape"
   width="48"
   height="48"
   viewBox="0 0 48 48"
   id="svg2"
   version="1.1"
   inkscape:version="0.91 r13725"
   sodipodi:docname="list-add-user.svg">
  <metadata
     id="metadata12">
    <rdf:RDF>
      <cc:Work
         rdf:about="">
        <dc:format>image/svg+xml</dc:format>
        <dc:type
           rdf:resource="http://purl.org/dc/dcmitype/StillImage" />
        <dc:title />
      </cc:Work>
    </rdf:RDF>
  </metadata>
  <defs
     id="defs10" />
  <sodipodi:namedview
     pagecolor="#d9d9d6"
     bordercolor="#666666"
     borderopacity="1"
     objecttolerance="10"
     gridtolerance="10"
     guidetolerance="10"
     inkscape:pageopacity="0"
     inkscape:pageshadow="2"
     inkscape:window-width="1916"
     inkscape:window-height="1019"
     id="namedview8"
     showgrid="false"
     inkscape:zoom="13.439547"
     inkscape:cx="24.125559"
     inkscape:cy="34.087981"
     inkscape:window-x="0"
     inkscape:window-y="13"
     inkscape:window-maximized="1"
     inkscape:current-layer="svg2" />
  <path
     style="fill:#aaaaaa;fill-opacity:1"
     d="m 8.8479706,5.9532601 c -1.597657,5.6601559 -1.632813,13.4921869 1.2109374,17.3554689 1.195313,1.835937 2.828125,4.246094 1.550782,6.4375 -2.3632824,3.421875 -6.3046884,5.269531 -9.8945324,7.132812 -1.21875002,0.125 -0.78125002,1.253906 -0.85937502,2.089844 -0.003906,0.660156 -0.203125,1.527344 0.77343802,1.214844 l 34.4140624,0 c 0.976563,0.3125 0.777344,-0.554688 0.773438,-1.214844 -0.07813,-0.835938 0.359375,-1.964844 -0.859375,-2.089844 -3.589844,-1.863281 -7.53125,-3.710937 -9.894532,-7.132812 -1.277343,-2.191406 0.355469,-4.601563 1.550782,-6.4375 3.003906,-4.203125 3.394531,-13.3554689 1.203125,-17.4804689 -1.980469,-3.578125 -3.980469,-5.44140603 -9.980469,-5.57812503 -6.007812,0.242188 -8,2.00000003 -9.9882814,5.70312503 z"
     id="path4"
     inkscape:connector-curvature="0" />
  <path
     style="fill:#aaaaaa;fill-opacity:1"
     d="m 47.934284,22.508395 -6.442679,0 0,-6.442679 -6.442678,0 0,6.442679 -6.442679,0 0,6.442678 6.442679,0 0,6.442679 6.442678,0 0,-6.442679 6.442679,0 z"
     id="path6"
     inkscape:connector-curvature="0" />
</svg>
