<?xml version="1.0" encoding="UTF-8" standalone="no"?>
<svg
   xmlns:dc="http://purl.org/dc/elements/1.1/"
   xmlns:cc="http://creativecommons.org/ns#"
   xmlns:rdf="http://www.w3.org/1999/02/22-rdf-syntax-ns#"
   xmlns:svg="http://www.w3.org/2000/svg"
   xmlns="http://www.w3.org/2000/svg"
   xmlns:sodipodi="http://sodipodi.sourceforge.net/DTD/sodipodi-0.dtd"
   xmlns:inkscape="http://www.inkscape.org/namespaces/inkscape"
   width="48"
   height="48"
   viewBox="0 0 48 48"
   id="svg2"
   version="1.1"
   inkscape:version="0.91 r13725"
   sodipodi:docname="document-revert.svg">
  <metadata
     id="metadata12">
    <rdf:RDF>
      <cc:Work
         rdf:about="">
        <dc:format>image/svg+xml</dc:format>
        <dc:type
           rdf:resource="http://purl.org/dc/dcmitype/StillImage" />
      </cc:Work>
    </rdf:RDF>
  </metadata>
  <defs
     id="defs10" />
  <sodipodi:namedview
     pagecolor="#ffffff"
     bordercolor="#666666"
     borderopacity="1"
     objecttolerance="10"
     gridtolerance="10"
     guidetolerance="10"
     inkscape:pageopacity="0"
     inkscape:pageshadow="2"
     inkscape:window-width="1916"
     inkscape:window-height="1019"
     id="namedview8"
     showgrid="false"
     inkscape:zoom="16.248047"
     inkscape:cx="24"
     inkscape:cy="24"
     inkscape:window-x="0"
     inkscape:window-y="13"
     inkscape:window-maximized="1"
     inkscape:current-layer="svg2" />
  <path
     style="fill:#fff;fill-rule:evenodd"
     d="M 10 4 L 30 4 C 34 4 34 4 34 8 L 34 36 C 34 40 34 40 30 40 L 10 40 C 6 40 6 40 6 36 L 6 8 C 6 4 6 4 10 4 Z "
     id="path4" />
  <path
     style="fill:#aaaaaa;fill-opacity:1"
     d="M 26 40 C 30 40 32 40 34 40 C 34 40 40 40.511719 40 32.691406 C 40 24.867188 34 24 34 24 C 34 30 34 30 26 30 C 26 28 26 26 24 26 L 14 34 C 13.347656 34.523438 13.347656 35.476562 14 36 L 24 44 C 26 44 26 41.945312 26 40 Z "
     id="path6" />
</svg>
