<?xml version="1.0" encoding="UTF-8" standalone="no"?>
<svg
   xmlns:dc="http://purl.org/dc/elements/1.1/"
   xmlns:cc="http://creativecommons.org/ns#"
   xmlns:rdf="http://www.w3.org/1999/02/22-rdf-syntax-ns#"
   xmlns:svg="http://www.w3.org/2000/svg"
   xmlns="http://www.w3.org/2000/svg"
   xmlns:sodipodi="http://sodipodi.sourceforge.net/DTD/sodipodi-0.dtd"
   xmlns:inkscape="http://www.inkscape.org/namespaces/inkscape"
   width="48"
   height="48"
   viewBox="0 0 48 48"
   id="svg2"
   version="1.1"
   inkscape:version="0.91 r13725"
   sodipodi:docname="document-properties.svg">
  <metadata
     id="metadata16">
    <rdf:RDF>
      <cc:Work
         rdf:about="">
        <dc:format>image/svg+xml</dc:format>
        <dc:type
           rdf:resource="http://purl.org/dc/dcmitype/StillImage" />
      </cc:Work>
    </rdf:RDF>
  </metadata>
  <defs
     id="defs14" />
  <sodipodi:namedview
     pagecolor="#ffffff"
     bordercolor="#666666"
     borderopacity="1"
     objecttolerance="10"
     gridtolerance="10"
     guidetolerance="10"
     inkscape:pageopacity="0"
     inkscape:pageshadow="2"
     inkscape:window-width="1920"
     inkscape:window-height="1019"
     id="namedview12"
     showgrid="false"
     inkscape:zoom="16.248047"
     inkscape:cx="24"
     inkscape:cy="24"
     inkscape:window-x="0"
     inkscape:window-y="13"
     inkscape:window-maximized="1"
     inkscape:current-layer="svg2" />
  <path
     style="fill:#d5d5d5;fill-rule:evenodd;fill-opacity:1"
     d="M 10 4 L 30 4 C 34 4 34 4 34 8 L 34 36 C 34 40 34 40 30 40 L 10 40 C 6 40 6 40 6 36 L 6 8 C 6 4 6 4 10 4 Z "
     id="path4" />
  <g
     style="fill:#268bd2"
     id="g6">
    <path
       d="M 36 44 L 28 44 L 28 32 L 36 32 L 36 44 "
       id="path8" />
    <path
       style="fill-rule:evenodd"
       d="M 36 24 C 36 26.210938 34.210938 28 32 28 C 29.789062 28 28 26.210938 28 24 C 28 21.789062 29.789062 20 32 20 C 34.210938 20 36 21.789062 36 24 Z "
       id="path10" />
  </g>
</svg>
