<?xml version="1.0" encoding="UTF-8" standalone="no"?>
<svg
   xmlns:dc="http://purl.org/dc/elements/1.1/"
   xmlns:cc="http://creativecommons.org/ns#"
   xmlns:rdf="http://www.w3.org/1999/02/22-rdf-syntax-ns#"
   xmlns:svg="http://www.w3.org/2000/svg"
   xmlns="http://www.w3.org/2000/svg"
   xmlns:sodipodi="http://sodipodi.sourceforge.net/DTD/sodipodi-0.dtd"
   xmlns:inkscape="http://www.inkscape.org/namespaces/inkscape"
   height="512"
   viewBox="0 0 512 512"
   width="512"
   version="1.1"
   id="svg2"
   inkscape:version="0.91 r13725"
   sodipodi:docname="edit-find-replace.svg">
  <defs
     id="defs17" />
  <sodipodi:namedview
     pagecolor="#ffffff"
     bordercolor="#666666"
     borderopacity="1"
     objecttolerance="10"
     gridtolerance="10"
     guidetolerance="10"
     inkscape:pageopacity="0"
     inkscape:pageshadow="2"
     inkscape:window-width="1680"
     inkscape:window-height="1021"
     id="namedview15"
     showgrid="false"
     inkscape:zoom="1.3650952"
     inkscape:cx="300.55163"
     inkscape:cy="269.28807"
     inkscape:window-x="1920"
     inkscape:window-y="0"
     inkscape:window-maximized="1"
     inkscape:current-layer="svg2" />
  <metadata
     id="metadata28">
    <rdf:RDF>
      <cc:Work
         rdf:about="">
        <dc:format>image/svg+xml</dc:format>
        <dc:type
           rdf:resource="http://purl.org/dc/dcmitype/StillImage" />
        <dc:title />
      </cc:Work>
    </rdf:RDF>
  </metadata>
  <path
     style="fill:#aaaaaa;fill-opacity:1;fill-rule:evenodd"
     d="m 231.72624,78.836003 c -79.91177,0 -144.63924,64.696977 -144.63924,144.728987 0,79.96136 64.72747,144.72899 144.63924,144.72899 22.0702,0 42.79854,-4.8761 61.5847,-13.56835 l 54.23971,54.27339 c 25.49549,25.68798 25.74268,25.68798 51.41474,0 25.49548,-25.51132 25.49548,-25.75864 0,-51.44664 l -49.71975,-49.75059 c 16.98523,-23.88594 27.11986,-52.75399 27.11986,-84.2368 0,-80.03201 -64.72747,-144.728987 -144.63926,-144.728987 z m -2.25998,72.364497 c 19.56302,-0.60071 38.56105,6.74884 52.61535,20.38785 14.05431,13.63902 21.96426,32.40148 21.96426,51.97664 0,39.96302 -32.38138,72.32917 -72.31963,72.32917 -39.93823,0 -72.31961,-32.36615 -72.31961,-72.32917 -0.0352,-39.07964 31.00421,-71.12779 70.05963,-72.36449 z"
     id="path6-3"
     inkscape:connector-curvature="0" />
  <path
     inkscape:connector-curvature="0"
     d="m 191.82384,246.1013 0,19.73005 19.73005,0 49.8311,-49.83111 -19.73005,-19.73005 z m 87.0147,-47.49135 c 2.08686,-2.08679 2.08686,-5.37516 0,-7.46196 l -12.33128,-12.33134 c -2.08686,-2.0868 -5.37517,-2.0868 -7.46203,0 l -10.30767,10.37092 19.72997,19.73012 z"
     id="path4-0-6"
     sodipodi:nodetypes="cccccccsscccc"
     style="display:inline;fill:#aaaaaa;fill-opacity:1;stroke:none;enable-background:new" />
</svg>
