<?xml version="1.0" encoding="UTF-8" standalone="no"?>
<svg
   xmlns:dc="http://purl.org/dc/elements/1.1/"
   xmlns:cc="http://creativecommons.org/ns#"
   xmlns:rdf="http://www.w3.org/1999/02/22-rdf-syntax-ns#"
   xmlns:svg="http://www.w3.org/2000/svg"
   xmlns="http://www.w3.org/2000/svg"
   xmlns:sodipodi="http://sodipodi.sourceforge.net/DTD/sodipodi-0.dtd"
   xmlns:inkscape="http://www.inkscape.org/namespaces/inkscape"
   width="48"
   height="48"
   viewBox="0 0 48 48"
   id="svg2"
   version="1.1"
   inkscape:version="0.91 r13725"
   sodipodi:docname="edit-paste.svg">
  <sodipodi:namedview
     pagecolor="#ffffff"
     bordercolor="#666666"
     borderopacity="1"
     objecttolerance="10"
     gridtolerance="10"
     guidetolerance="10"
     inkscape:pageopacity="0"
     inkscape:pageshadow="2"
     inkscape:window-width="1920"
     inkscape:window-height="1019"
     id="namedview16"
     showgrid="false"
     inkscape:zoom="4.1073886"
     inkscape:cx="-113.57328"
     inkscape:cy="-37.588728"
     inkscape:window-x="0"
     inkscape:window-y="0"
     inkscape:window-maximized="1"
     inkscape:current-layer="svg2" />
  <metadata
     id="metadata20">
    <rdf:RDF>
      <cc:Work
         rdf:about="">
        <dc:format>image/svg+xml</dc:format>
        <dc:type
           rdf:resource="http://purl.org/dc/dcmitype/StillImage" />
        <dc:title></dc:title>
      </cc:Work>
    </rdf:RDF>
  </metadata>
  <defs
     id="defs18" />
  <path
     style="fill:#bcbcbc;fill-rule:evenodd"
     d="m 10.244056,7.1434322 c -3.9998318,0 -3.9998318,0 -3.9998318,3.9998308 l 0,27.998817 c 0,3.99983 0,3.99983 3.9998318,3.99983 l 27.998816,0 c 3.999832,0 3.999832,0 3.999832,-3.99983 l 0,-27.998817 c 0,-4.398252 0,-3.9998308 -3.999832,-3.9998308 l -1.999915,0 0,27.9988158 -23.998986,0 0,-27.9988158 -1.999915,0 z"
     id="path4"
     inkscape:connector-curvature="0" />
  <path
     inkscape:connector-curvature="0"
     id="path6-3"
     d="m 34.656214,6.2607196 -20.64843,0 0,24.0898344 20.64843,0 z"
     style="fill:#ffffff" />
  <path
     id="path8"
     d="m 17.360654,4.2142905 0,6.8828095 13.76562,0 0,-6.8828095 z"
     style="fill:#aaaaaa"
     inkscape:connector-curvature="0" />
  <g
     id="g10"
     style="fill:#888888"
     transform="matrix(0.86035124,0,0,0.86035124,3.595034,2.7728851)">
    <path
       id="path12"
       d="m 16,16 0,4 16,0 0,-4 z"
       inkscape:connector-curvature="0" />
    <path
       id="path14"
       d="m 16,24 0,4 16,0 0,-4 z"
       inkscape:connector-curvature="0" />
  </g>
</svg>
