<?xml version="1.0" encoding="UTF-8" standalone="no"?>
<svg
   xmlns:dc="http://purl.org/dc/elements/1.1/"
   xmlns:cc="http://creativecommons.org/ns#"
   xmlns:rdf="http://www.w3.org/1999/02/22-rdf-syntax-ns#"
   xmlns:svg="http://www.w3.org/2000/svg"
   xmlns="http://www.w3.org/2000/svg"
   xmlns:sodipodi="http://sodipodi.sourceforge.net/DTD/sodipodi-0.dtd"
   xmlns:inkscape="http://www.inkscape.org/namespaces/inkscape"
   width="48"
   height="48"
   viewBox="0 0 48 48"
   id="svg2"
   version="1.1"
   inkscape:version="0.91 r13725"
   sodipodi:docname="games-config-options.svg">
  <metadata
     id="metadata10">
    <rdf:RDF>
      <cc:Work
         rdf:about="">
        <dc:format>image/svg+xml</dc:format>
        <dc:type
           rdf:resource="http://purl.org/dc/dcmitype/StillImage" />
      </cc:Work>
    </rdf:RDF>
  </metadata>
  <sodipodi:namedview
     pagecolor="#ffffff"
     bordercolor="#666666"
     borderopacity="1"
     objecttolerance="10"
     gridtolerance="10"
     guidetolerance="10"
     inkscape:pageopacity="0"
     inkscape:pageshadow="2"
     inkscape:window-width="1920"
     inkscape:window-height="1019"
     id="namedview8"
     showgrid="false"
     inkscape:zoom="16.248047"
     inkscape:cx="24"
     inkscape:cy="24"
     inkscape:window-x="0"
     inkscape:window-y="13"
     inkscape:window-maximized="1"
     inkscape:current-layer="svg2" />
  <defs
     id="defs3051">
    <style
       type="text/css"
       id="current-color-scheme">
      .ColorScheme-Text {
        color:#4d4d4d;
      }
      </style>
  </defs>
  <path
     style="color:#4d4d4d;fill:#aaaaaa;fill-opacity:1;stroke:none"
     d="m 24.44771,3 c -3.062887,0 -5.59917,2.123512 -6.180016,4.9618945 l -15.267694,0 0,2.4809475 15.267694,0 c 0.580846,2.838382 3.117129,4.961894 6.180016,4.961894 3.062887,0 5.59917,-2.123512 6.180016,-4.961894 l 12.744434,0 0,-2.4809475 -12.744434,0 C 30.04688,5.123512 27.510597,3 24.44771,3 Z M 9.30815,30.29042 C 5.8134347,30.29042 3,33.056676 3,36.492788 c 0,3.436112 2.8134347,6.202368 6.30815,6.202368 3.062885,0 5.59917,-2.123513 6.180016,-4.961895 l 27.883994,0 0,-2.480947 -27.883994,0 C 14.90732,32.413932 12.371035,30.29042 9.30815,30.29042 Z m 0,2.480947 c 2.096829,0 3.78489,1.659753 3.78489,3.721421 0,2.061667 -1.688061,3.72142 -3.78489,3.72142 -2.0968293,0 -3.78489,-1.659753 -3.78489,-3.72142 0,-2.061668 1.6880607,-3.721421 3.78489,-3.721421 z"
     class="ColorScheme-Text"
     id="path6"
     inkscape:connector-curvature="0" />
</svg>
