<?xml version="1.0" encoding="UTF-8" standalone="no"?>
<svg
   xmlns:dc="http://purl.org/dc/elements/1.1/"
   xmlns:cc="http://creativecommons.org/ns#"
   xmlns:rdf="http://www.w3.org/1999/02/22-rdf-syntax-ns#"
   xmlns:svg="http://www.w3.org/2000/svg"
   xmlns="http://www.w3.org/2000/svg"
   xmlns:sodipodi="http://sodipodi.sourceforge.net/DTD/sodipodi-0.dtd"
   xmlns:inkscape="http://www.inkscape.org/namespaces/inkscape"
   width="48"
   height="48"
   viewBox="0 0 48 48"
   id="svg2"
   version="1.1"
   inkscape:version="0.91 r13725"
   sodipodi:docname="list-remove-user.svg">
  <metadata
     id="metadata12">
    <rdf:RDF>
      <cc:Work
         rdf:about="">
        <dc:format>image/svg+xml</dc:format>
        <dc:type
           rdf:resource="http://purl.org/dc/dcmitype/StillImage" />
        <dc:title />
      </cc:Work>
    </rdf:RDF>
  </metadata>
  <defs
     id="defs10" />
  <sodipodi:namedview
     pagecolor="#ffffff"
     bordercolor="#666666"
     borderopacity="1"
     objecttolerance="10"
     gridtolerance="10"
     guidetolerance="10"
     inkscape:pageopacity="0"
     inkscape:pageshadow="2"
     inkscape:window-width="1916"
     inkscape:window-height="1019"
     id="namedview8"
     showgrid="false"
     inkscape:zoom="2.7334671"
     inkscape:cx="-157.18228"
     inkscape:cy="23.351751"
     inkscape:window-x="0"
     inkscape:window-y="13"
     inkscape:window-maximized="1"
     inkscape:current-layer="svg2" />
  <path
     style="fill:#aaaaaa;fill-opacity:1"
     d="m 9.4780708,9.703125 c -1.597657,5.660156 -1.632813,13.492187 1.2109372,17.355469 1.195313,1.835937 2.828125,4.246094 1.550782,6.4375 -2.3632822,3.421875 -6.3046882,5.269531 -9.8945322,7.132812 -1.21875,0.125 -0.78125,1.253906 -0.859375,2.089844 -0.00391,0.660156 -0.203125,1.527344 0.773438,1.214844 l 34.4140622,0 c 0.976563,0.3125 0.777344,-0.554688 0.773438,-1.214844 -0.07813,-0.835938 0.359375,-1.964844 -0.859375,-2.089844 -3.589844,-1.863281 -7.53125,-3.710937 -9.894532,-7.132812 -1.277343,-2.191406 0.355469,-4.601563 1.550782,-6.4375 C 31.247602,22.855469 31.638227,13.703125 29.446821,9.578125 27.466352,6 25.466352,4.136719 19.466352,4 c -6.007812,0.242188 -8,2 -9.9882812,5.703125 z"
     id="path4"
     inkscape:connector-curvature="0" />
  <path
     inkscape:connector-curvature="0"
     style="fill:#aaaaaa;fill-opacity:1"
     d="m 29.253837,26.156631 19.164108,0 0,6.388036 -19.164108,0 z"
     id="path12" />
</svg>
