<?xml version="1.0" encoding="UTF-8" standalone="no"?>
<svg
   xmlns:dc="http://purl.org/dc/elements/1.1/"
   xmlns:cc="http://creativecommons.org/ns#"
   xmlns:rdf="http://www.w3.org/1999/02/22-rdf-syntax-ns#"
   xmlns:svg="http://www.w3.org/2000/svg"
   xmlns="http://www.w3.org/2000/svg"
   xmlns:sodipodi="http://sodipodi.sourceforge.net/DTD/sodipodi-0.dtd"
   xmlns:inkscape="http://www.inkscape.org/namespaces/inkscape"
   width="48"
   height="48"
   viewBox="0 0 48 48"
   id="svg2"
   version="1.1"
   inkscape:version="0.91 r13725"
   sodipodi:docname="mail-mark-junk.svg">
  <metadata
     id="metadata22">
    <rdf:RDF>
      <cc:Work
         rdf:about="">
        <dc:format>image/svg+xml</dc:format>
        <dc:type
           rdf:resource="http://purl.org/dc/dcmitype/StillImage" />
      </cc:Work>
    </rdf:RDF>
  </metadata>
  <defs
     id="defs20" />
  <sodipodi:namedview
     pagecolor="#ffffff"
     bordercolor="#666666"
     borderopacity="1"
     objecttolerance="10"
     gridtolerance="10"
     guidetolerance="10"
     inkscape:pageopacity="0"
     inkscape:pageshadow="2"
     inkscape:window-width="1920"
     inkscape:window-height="1019"
     id="namedview18"
     showgrid="false"
     inkscape:zoom="9.5031948"
     inkscape:cx="-15.409852"
     inkscape:cy="21.763696"
     inkscape:window-x="0"
     inkscape:window-y="13"
     inkscape:window-maximized="1"
     inkscape:current-layer="svg2" />
  <path
     style="fill:#ffffff;fill-opacity:0.10199998"
     d="M 2 18 L 24 30 L 46 18 C 46 14 46 14 42 14 L 6 14 C 2 14 2 14 2 18 Z "
     id="path14" />
  <g
     style="fill:#aaaaaa;fill-opacity:1"
     id="g4">
    <path
       d="M 6 14 C 2 14 2 14 2 18 L 2 42 C 2 46 2 46 6 46 L 42 46 C 46 46 46 46 46 42 C 46 33.148438 46 23.117188 46 18 C 46 14 46 14 42 14 Z "
       id="path6"
       style="fill:#aaaaaa;fill-opacity:1" />
    <path
       d="M 6 46 L 42 46 C 46 46 46 46 46 42 L 46 18 L 2 42 C 2 46 2 46 6 46 Z "
       id="path8"
       style="fill:#aaaaaa;fill-opacity:1" />
  </g>
  <path
     style="fill:#000;fill-opacity:.102"
     d="M 6 46 L 42 46 C 46 46 46 46 46 42 L 46 18 L 2 42 C 2 46 2 46 6 46 Z "
     id="path10" />
  <path
     style="fill:#aaaaaa;fill-opacity:0.80000001"
     d="M 42 46 L 6 46 C 2 46 2 46 2 42 L 2 18 L 46 42 C 46 46 46 46 42 46 Z "
     id="path12" />
  <path
     style="fill:#cb4b16"
     d="M 22 10 C 16 34 28 32 38 40 C 40 34 38 34 38 32 C 38 32 40 28 44 34 C 44 30 52 20 38 8 C 38 14 34 14 34 14 C 32 12 32 10 32 8 C 32 6 32 2 32 2 C 28 4 26 8 26 12 L 26 16 C 26 16 24 16 22 10 Z "
     id="path16" />
</svg>
