<?xml version="1.0" encoding="UTF-8" standalone="no"?>
<svg
   xmlns:dc="http://purl.org/dc/elements/1.1/"
   xmlns:cc="http://creativecommons.org/ns#"
   xmlns:rdf="http://www.w3.org/1999/02/22-rdf-syntax-ns#"
   xmlns:svg="http://www.w3.org/2000/svg"
   xmlns="http://www.w3.org/2000/svg"
   xmlns:sodipodi="http://sodipodi.sourceforge.net/DTD/sodipodi-0.dtd"
   xmlns:inkscape="http://www.inkscape.org/namespaces/inkscape"
   width="48"
   height="48"
   viewBox="0 0 48 48"
   id="svg2"
   version="1.1"
   inkscape:version="0.91 r13725"
   sodipodi:docname="media-playlist-repeat.svg">
  <metadata
     id="metadata12">
    <rdf:RDF>
      <cc:Work
         rdf:about="">
        <dc:format>image/svg+xml</dc:format>
        <dc:type
           rdf:resource="http://purl.org/dc/dcmitype/StillImage" />
      </cc:Work>
    </rdf:RDF>
  </metadata>
  <defs
     id="defs10" />
  <sodipodi:namedview
     pagecolor="#ffffff"
     bordercolor="#666666"
     borderopacity="1"
     objecttolerance="10"
     gridtolerance="10"
     guidetolerance="10"
     inkscape:pageopacity="0"
     inkscape:pageshadow="2"
     inkscape:window-width="1916"
     inkscape:window-height="1019"
     id="namedview8"
     showgrid="false"
     inkscape:zoom="19.484962"
     inkscape:cx="-3.9843205"
     inkscape:cy="24"
     inkscape:window-x="0"
     inkscape:window-y="13"
     inkscape:window-maximized="1"
     inkscape:current-layer="svg2" />
  <g
     id="g4"
     style="stroke:none;stroke-opacity:1;fill:#aaaaaa;fill-opacity:1">
    <path
       d="M 10 10 L 38 10 C 45.9375 10 46 10 46 18 L 46 30 C 46 38 46 38 38 38 C 34 38 34 38 30.921875 38 C 31.957031 38.882812 32.699219 40.191406 32.160156 41.621094 C 31.585938 43.695312 28.589844 44.214844 27.304688 42.511719 C 24.910156 40.097656 23.582031 37.734375 21.25 35.257812 C 23.722656 32.644531 25.179688 30.128906 27.722656 27.589844 C 29.394531 26.046875 32.492188 27.433594 32.359375 29.734375 C 32.414062 30.933594 31.667969 31.238281 30.890625 32 C 34 32 34 32 38 32 C 40 32 40 32 40 30 L 40 18 C 40 16 40 16 38 16 C 31.695312 16 10 16 10 16 C 8 16 8 16 8 18 L 8 30 C 8 32 8 32 10 32 L 14 32 C 16 32 16 32 16.023438 34.058594 C 16 34.703125 16.011719 35.378906 16 36 C 16 38 16 38 14 38 L 10 38 C 2 38 2 38 2 30 L 2 18 C 2 10 1.9375 10 10 10 Z "
       fill="#268bd1"
       id="path6"
       style="stroke:none;stroke-opacity:1;fill:#aaaaaa;fill-opacity:1" />
  </g>
</svg>
