<?xml version="1.0" encoding="UTF-8" standalone="no"?>
<svg
   xmlns:dc="http://purl.org/dc/elements/1.1/"
   xmlns:cc="http://creativecommons.org/ns#"
   xmlns:rdf="http://www.w3.org/1999/02/22-rdf-syntax-ns#"
   xmlns:svg="http://www.w3.org/2000/svg"
   xmlns="http://www.w3.org/2000/svg"
   xmlns:sodipodi="http://sodipodi.sourceforge.net/DTD/sodipodi-0.dtd"
   xmlns:inkscape="http://www.inkscape.org/namespaces/inkscape"
   width="48"
   height="48"
   viewBox="0 0 48 48"
   id="svg2"
   version="1.1"
   inkscape:version="0.91 r13725"
   sodipodi:docname="dynamic-amarok.svg">
  <metadata
     id="metadata16">
    <rdf:RDF>
      <cc:Work
         rdf:about="">
        <dc:format>image/svg+xml</dc:format>
        <dc:type
           rdf:resource="http://purl.org/dc/dcmitype/StillImage" />
      </cc:Work>
    </rdf:RDF>
  </metadata>
  <defs
     id="defs14" />
  <sodipodi:namedview
     pagecolor="#ffffff"
     bordercolor="#666666"
     borderopacity="1"
     objecttolerance="10"
     gridtolerance="10"
     guidetolerance="10"
     inkscape:pageopacity="0"
     inkscape:pageshadow="2"
     inkscape:window-width="1916"
     inkscape:window-height="1019"
     id="namedview12"
     showgrid="false"
     inkscape:zoom="16.248047"
     inkscape:cx="24"
     inkscape:cy="24"
     inkscape:window-x="0"
     inkscape:window-y="13"
     inkscape:window-maximized="1"
     inkscape:current-layer="svg2" />
  <g
     id="g4"
     style="fill:#aaaaaa;fill-opacity:1">
    <path
       d="M 2 38 C 2 36.164062 2 33.835938 2 32 C 4.9375 31.96875 9.0625 32.117188 12 32 C 15.96875 32 17.121094 32 18 30 L 22 18 C 24.75 9.75 24.734375 10 28 10 C 31.09375 10 32.90625 10 36 10 C 34.96875 9.117188 34.554688 8.0625 35.09375 6.632812 C 35.664062 4.5625 38.664062 4.039062 39.945312 5.742188 C 42.34375 8.15625 43.671875 10.523438 46 13 C 43.53125 15.609375 42.070312 18.125 39.523438 20.664062 C 37.851562 22.210938 34.757812 20.820312 34.890625 18.523438 C 34.835938 17.320312 35.21875 16.757812 36 16 C 32.546875 16.03125 35.445312 15.875 32 16 C 28 16 28.945312 16 28 18 L 24 30 C 21.25 38.25 21.5 38 16 38 C 13.421875 38 4.578125 38 2 38 Z "
       fill="#268bd0"
       id="path6"
       style="fill:#aaaaaa;fill-opacity:1" />
    <path
       d="M 2 38 C 2 36.164062 2 33.835938 2 32 C 4.9375 31.96875 9.0625 32.117188 12 32 C 15.96875 32 17.121094 32 18 30 L 22 18 C 24.75 9.75 24.734375 10 28 10 C 31.09375 10 32.90625 10 36 10 C 34.96875 9.117188 34.554688 8.0625 35.09375 6.632812 C 35.664062 4.5625 38.664062 4.039062 39.945312 5.742188 C 42.34375 8.15625 43.671875 10.523438 46 13 C 43.53125 15.609375 42.070312 18.125 39.523438 20.664062 C 37.851562 22.210938 34.757812 20.820312 34.890625 18.523438 C 34.835938 17.320312 35.21875 16.757812 36 16 C 32.546875 16.03125 35.445312 15.875 32 16 C 28 16 28.945312 16 28 18 L 24 30 C 21.25 38.25 21.5 38 16 38 C 13.421875 38 4.578125 38 2 38 Z "
       fill-opacity="0.102"
       id="path8"
       style="fill:#aaaaaa;fill-opacity:1" />
    <path
       d="M 2 10 C 2 11.835938 2 14.164062 2 16 C 4.9375 16.03125 9.0625 15.882812 12 16 C 15.96875 16 17.121094 16 18 18 L 22 30 C 24.75 38.25 24.734375 38 28 38 C 31.09375 38 32.90625 38 36 38 C 34.96875 38.882812 34.554688 39.9375 35.09375 41.367188 C 35.664062 43.4375 38.664062 43.960938 39.945312 42.257812 C 42.34375 39.84375 43.671875 37.476562 46 35 C 43.53125 32.390625 42.070312 29.875 39.523438 27.335938 C 37.851562 25.789062 34.757812 27.179688 34.890625 29.476562 C 34.835938 30.679688 35.21875 31.242188 36 32 C 32.546875 31.96875 35.445312 32.125 32 32 C 28 32 28.945312 32 28 30 L 24 18 C 21.25 9.75 21.5 10 16 10 C 13.421875 10 4.578125 10 2 10 Z "
       fill="#268bd0"
       id="path10"
       style="fill:#aaaaaa;fill-opacity:1" />
  </g>
</svg>
