<?xml version="1.0" encoding="UTF-8" standalone="no"?>
<svg
   xmlns:dc="http://purl.org/dc/elements/1.1/"
   xmlns:cc="http://creativecommons.org/ns#"
   xmlns:rdf="http://www.w3.org/1999/02/22-rdf-syntax-ns#"
   xmlns:svg="http://www.w3.org/2000/svg"
   xmlns="http://www.w3.org/2000/svg"
   xmlns:sodipodi="http://sodipodi.sourceforge.net/DTD/sodipodi-0.dtd"
   xmlns:inkscape="http://www.inkscape.org/namespaces/inkscape"
   width="48"
   height="48"
   viewBox="0 0 48 48"
   id="svg2"
   version="1.1"
   inkscape:version="0.91 r13725"
   sodipodi:docname="view-process-system.svg">
  <metadata
     id="metadata10">
    <rdf:RDF>
      <cc:Work
         rdf:about="">
        <dc:format>image/svg+xml</dc:format>
        <dc:type
           rdf:resource="http://purl.org/dc/dcmitype/StillImage" />
        <dc:title />
      </cc:Work>
    </rdf:RDF>
  </metadata>
  <defs
     id="defs8" />
  <sodipodi:namedview
     pagecolor="#ffffff"
     bordercolor="#666666"
     borderopacity="1"
     objecttolerance="10"
     gridtolerance="10"
     guidetolerance="10"
     inkscape:pageopacity="0"
     inkscape:pageshadow="2"
     inkscape:window-width="1920"
     inkscape:window-height="1020"
     id="namedview6"
     showgrid="false"
     inkscape:zoom="13.234375"
     inkscape:cx="-11.602146"
     inkscape:cy="-1.7939513"
     inkscape:window-x="0"
     inkscape:window-y="0"
     inkscape:window-maximized="1"
     inkscape:current-layer="svg2" />
  <rect
     ry="2"
     rx="2"
     y="19.049999"
     x="35.900002"
     height="10"
     width="10"
     id="rect4189"
     style="opacity:1;fill:#b4b4b4;fill-opacity:1;stroke:none;stroke-width:0.5;stroke-linecap:round;stroke-linejoin:round;stroke-miterlimit:4;stroke-dasharray:none;stroke-opacity:1" />
  <rect
     style="opacity:1;fill:#b4b4b4;fill-opacity:1;stroke:none;stroke-width:0.5;stroke-linecap:round;stroke-linejoin:round;stroke-miterlimit:4;stroke-dasharray:none;stroke-opacity:1"
     id="rect4187"
     width="10"
     height="10"
     x="2"
     y="19.049999"
     rx="2"
     ry="2" />
  <rect
     ry="2"
     rx="2"
     y="-4.9292908"
     x="11.991124"
     height="10"
     width="10"
     id="rect4193"
     style="opacity:1;fill:#b4b4b4;fill-opacity:1;stroke:none;stroke-width:0.5;stroke-linecap:round;stroke-linejoin:round;stroke-miterlimit:4;stroke-dasharray:none;stroke-opacity:1"
     transform="matrix(0.70710678,0.70710678,-0.70710678,0.70710678,0,0)" />
  <rect
     transform="matrix(0,1,-1,0,0,0)"
     style="opacity:1;fill:#b4b4b4;fill-opacity:1;stroke:none;stroke-width:0.5;stroke-linecap:round;stroke-linejoin:round;stroke-miterlimit:4;stroke-dasharray:none;stroke-opacity:1"
     id="rect4201"
     width="10"
     height="10"
     x="2.0999982"
     y="-28.950001"
     rx="2"
     ry="2" />
  <rect
     ry="2"
     rx="2"
     y="-38.941124"
     x="-21.879292"
     height="10"
     width="10"
     id="rect4207"
     style="opacity:1;fill:#b4b4b4;fill-opacity:1;stroke:none;stroke-width:0.5;stroke-linecap:round;stroke-linejoin:round;stroke-miterlimit:4;stroke-dasharray:none;stroke-opacity:1"
     transform="matrix(-0.70710678,0.70710678,-0.70710678,-0.70710678,0,0)" />
  <rect
     style="opacity:1;fill:#b4b4b4;fill-opacity:1;stroke:none;stroke-width:0.5;stroke-linecap:round;stroke-linejoin:round;stroke-miterlimit:4;stroke-dasharray:none;stroke-opacity:1"
     id="rect4191"
     width="10"
     height="10"
     x="45.891125"
     y="-4.9292908"
     rx="2"
     ry="2"
     transform="matrix(0.70710678,0.70710678,-0.70710678,0.70710678,0,0)" />
  <rect
     transform="matrix(0,1,-1,0,0,0)"
     ry="2"
     rx="2"
     y="-28.950001"
     x="36"
     height="10"
     width="10"
     id="rect4199"
     style="opacity:1;fill:#b4b4b4;fill-opacity:1;stroke:none;stroke-width:0.5;stroke-linecap:round;stroke-linejoin:round;stroke-miterlimit:4;stroke-dasharray:none;stroke-opacity:1" />
  <rect
     style="opacity:1;fill:#b4b4b4;fill-opacity:1;stroke:none;stroke-width:0.5;stroke-linecap:round;stroke-linejoin:round;stroke-miterlimit:4;stroke-dasharray:none;stroke-opacity:1"
     id="rect4205"
     width="10"
     height="10"
     x="12.020711"
     y="-38.941124"
     rx="2"
     ry="2"
     transform="matrix(-0.70710678,0.70710678,-0.70710678,-0.70710678,0,0)" />
  <g
     id="g4196"
     transform="matrix(2.75,0,0,2.75,2,2.0499992)">
    <path
       id="path4152"
       d="M 8,1.5 A 6.5,6.5 0 0 0 1.5,8 6.5,6.5 0 0 0 8,14.5 6.5,6.5 0 0 0 14.5,8 6.5,6.5 0 0 0 8,1.5 Z M 8,5 A 3,3 0 0 1 11,8 3,3 0 0 1 8,11 3,3 0 0 1 5,8 3,3 0 0 1 8,5 Z"
       style="opacity:1;fill:#b4b4b4;fill-opacity:1;stroke:none;stroke-width:0.5;stroke-linecap:round;stroke-linejoin:round;stroke-miterlimit:4;stroke-dasharray:none;stroke-opacity:1"
       inkscape:connector-curvature="0" />
  </g>
  <path
     inkscape:connector-curvature="0"
     style="opacity:1;fill:#dadada;fill-opacity:1;stroke:none;stroke-width:0.5;stroke-linecap:round;stroke-linejoin:round;stroke-miterlimit:4;stroke-dasharray:none;stroke-opacity:1"
     d="m 24,11.049999 a 13,13 0 0 0 -13,13 13,13 0 0 0 13,13 13,13 0 0 0 13,-13 13,13 0 0 0 -13,-13 z m 0,7 a 6,6 0 0 1 6,6 6,6 0 0 1 -6,6 6,6 0 0 1 -6,-6 6,6 0 0 1 6,-6 z"
     id="path4146" />
</svg>
