<?xml version="1.0" encoding="UTF-8" standalone="no"?>
<svg
   xmlns:dc="http://purl.org/dc/elements/1.1/"
   xmlns:cc="http://creativecommons.org/ns#"
   xmlns:rdf="http://www.w3.org/1999/02/22-rdf-syntax-ns#"
   xmlns:svg="http://www.w3.org/2000/svg"
   xmlns="http://www.w3.org/2000/svg"
   xmlns:sodipodi="http://sodipodi.sourceforge.net/DTD/sodipodi-0.dtd"
   xmlns:inkscape="http://www.inkscape.org/namespaces/inkscape"
   viewBox="0 0 24 24"
   id="svg2"
   version="1.1"
   inkscape:version="0.91 r13725"
   sodipodi:docname="show-menu.svg">
  <metadata
     id="metadata12">
    <rdf:RDF>
      <cc:Work
         rdf:about="">
        <dc:format>image/svg+xml</dc:format>
        <dc:type
           rdf:resource="http://purl.org/dc/dcmitype/StillImage" />
      </cc:Work>
    </rdf:RDF>
  </metadata>
  <sodipodi:namedview
     pagecolor="#ffffff"
     bordercolor="#666666"
     borderopacity="1"
     objecttolerance="10"
     gridtolerance="10"
     guidetolerance="10"
     inkscape:pageopacity="0"
     inkscape:pageshadow="2"
     inkscape:window-width="1916"
     inkscape:window-height="1019"
     id="namedview10"
     showgrid="false"
     inkscape:zoom="32.496094"
     inkscape:cx="12"
     inkscape:cy="12"
     inkscape:window-x="0"
     inkscape:window-y="13"
     inkscape:window-maximized="1"
     inkscape:current-layer="svg2" />
  <defs
     id="defs3051">
    <style
       type="text/css"
       id="current-color-scheme">
      .ColorScheme-Text {
        color:#4d4d4d;
      }
      </style>
  </defs>
  <a
     transform="translate(1,1)"
     id="a6"
     style="fill:#aaaaaa;fill-opacity:1">
    <path
       style="fill:#aaaaaa;fill-opacity:1;stroke:none"
       d="M 3,3 3,6 6,6 6,3 Z m 4,0 0,1 9,0 1,-1 z m 0,2 0,1 4,0 1,0 1.169922,0 1,-1 z m -4,5 0,1 0,1 0,1 3,0 0,-1 0,-1 0,-1 z m 4,0 0,1 2,0 1,-1 z m 7,0 -1,1 4,0 0,-1 z m -2,2 -1,1 2,0 0,-1 z m -3.1699219,3 -1,1 L 17,16 l 0,-1 -6,0 -1,0 z M 7,17 l -1,1 8,0 0,-1 z m 10,1 0,1 2,0 0,-1 z"
       class="ColorScheme-Text"
       id="path8" />
  </a>
</svg>
