<?xml version="1.0" encoding="UTF-8" standalone="no"?>
<svg
   xmlns:dc="http://purl.org/dc/elements/1.1/"
   xmlns:cc="http://creativecommons.org/ns#"
   xmlns:rdf="http://www.w3.org/1999/02/22-rdf-syntax-ns#"
   xmlns:svg="http://www.w3.org/2000/svg"
   xmlns="http://www.w3.org/2000/svg"
   xmlns:sodipodi="http://sodipodi.sourceforge.net/DTD/sodipodi-0.dtd"
   xmlns:inkscape="http://www.inkscape.org/namespaces/inkscape"
   width="48"
   height="48"
   viewBox="0 0 48 48"
   id="svg2"
   version="1.1"
   inkscape:version="0.91 r13725"
   sodipodi:docname="zoom-best-fit.svg">
  <metadata
     id="metadata16">
    <rdf:RDF>
      <cc:Work
         rdf:about="">
        <dc:format>image/svg+xml</dc:format>
        <dc:type
           rdf:resource="http://purl.org/dc/dcmitype/StillImage" />
      </cc:Work>
    </rdf:RDF>
  </metadata>
  <defs
     id="defs14" />
  <sodipodi:namedview
     pagecolor="#ffffff"
     bordercolor="#666666"
     borderopacity="1"
     objecttolerance="10"
     gridtolerance="10"
     guidetolerance="10"
     inkscape:pageopacity="0"
     inkscape:pageshadow="2"
     inkscape:window-width="1916"
     inkscape:window-height="1019"
     id="namedview12"
     showgrid="false"
     inkscape:zoom="2.4356203"
     inkscape:cx="-112.44478"
     inkscape:cy="-4.0141084"
     inkscape:window-x="0"
     inkscape:window-y="13"
     inkscape:window-maximized="1"
     inkscape:current-layer="svg2" />
  <g
     style="fill-opacity:1;fill:#aaaaaa"
     id="g6">
    <path
       d="M 8 8 L 8 22 L 12 22 L 12 12 L 22 12 L 22 8 Z M 26 8 L 26 12 L 36 12 L 36 22 L 40 22 L 40 8 Z M 8 26 L 8 40 L 22 40 L 22 36 L 12 36 L 12 26 Z M 36 26 L 36 36 L 26 36 L 26 40 L 40 40 L 40 26 Z "
       id="path8"
       style="fill:#aaaaaa;fill-opacity:1" />
    <path
       d="M 16 16 L 16 32 L 32 32 L 32 16 Z M 20 20 L 28 20 L 28 28 L 20 28 Z "
       id="path10"
       style="fill:#aaaaaa;fill-opacity:1" />
  </g>
</svg>
