<?xml version="1.0" encoding="UTF-8" standalone="no"?>
<svg
   xmlns:dc="http://purl.org/dc/elements/1.1/"
   xmlns:cc="http://creativecommons.org/ns#"
   xmlns:rdf="http://www.w3.org/1999/02/22-rdf-syntax-ns#"
   xmlns:svg="http://www.w3.org/2000/svg"
   xmlns="http://www.w3.org/2000/svg"
   xmlns:sodipodi="http://sodipodi.sourceforge.net/DTD/sodipodi-0.dtd"
   xmlns:inkscape="http://www.inkscape.org/namespaces/inkscape"
   viewBox="0 0 24 24"
   id="svg2"
   version="1.1"
   inkscape:version="0.91 r13725"
   sodipodi:docname="pamac-cleanup.svg">
  <metadata
     id="metadata12">
    <rdf:RDF>
      <cc:Work
         rdf:about="">
        <dc:format>image/svg+xml</dc:format>
        <dc:type
           rdf:resource="http://purl.org/dc/dcmitype/StillImage" />
      </cc:Work>
    </rdf:RDF>
  </metadata>
  <defs
     id="defs10" />
  <sodipodi:namedview
     pagecolor="#ffffff"
     bordercolor="#666666"
     borderopacity="1"
     objecttolerance="10"
     gridtolerance="10"
     guidetolerance="10"
     inkscape:pageopacity="0"
     inkscape:pageshadow="2"
     inkscape:window-width="753"
     inkscape:window-height="480"
     id="namedview8"
     showgrid="false"
     inkscape:zoom="9.8333333"
     inkscape:cx="12"
     inkscape:cy="12"
     inkscape:window-x="0"
     inkscape:window-y="0"
     inkscape:window-maximized="0"
     inkscape:current-layer="svg2" />
  <path
     d="m 8 4 -4 4 7 0 0 -4 -3 0 z m 5 0 0 4 7 0 -4 -4 -3 0 z m -9 6 0 10 9.758 0 1 -1 -1.416 -1.414 4.244 -4.242 l 1.414 1.414 l 1 -1 0 -3.758 -16 0 z"
     style="fill:#aaaaaa;fill-opacity:1"
     id="path4" />
  <path
     d="m 20.414 16.17 -1.414 1.414 -1.414 -1.414 -1.415 1.414 1.414 1.414 -1.414 1.414 1.414 1.414 1.414 -1.414 1.414 1.414 1.415 -1.414 -1.414 -1.414 1.414 -1.414 z"
     style="fill:#ee545b;fill-opacity:1"
     id="path6" />
</svg>
