<?xml version="1.0" encoding="UTF-8" standalone="no"?>
<svg
   xmlns:dc="http://purl.org/dc/elements/1.1/"
   xmlns:cc="http://creativecommons.org/ns#"
   xmlns:rdf="http://www.w3.org/1999/02/22-rdf-syntax-ns#"
   xmlns:svg="http://www.w3.org/2000/svg"
   xmlns="http://www.w3.org/2000/svg"
   xmlns:sodipodi="http://sodipodi.sourceforge.net/DTD/sodipodi-0.dtd"
   xmlns:inkscape="http://www.inkscape.org/namespaces/inkscape"
   viewBox="0 0 24 24"
   id="svg2"
   version="1.1"
   inkscape:version="0.91 r13725"
   sodipodi:docname="pamac-delete.svg">
  <metadata
     id="metadata14">
    <rdf:RDF>
      <cc:Work
         rdf:about="">
        <dc:format>image/svg+xml</dc:format>
        <dc:type
           rdf:resource="http://purl.org/dc/dcmitype/StillImage" />
      </cc:Work>
    </rdf:RDF>
  </metadata>
  <defs
     id="defs12" />
  <sodipodi:namedview
     pagecolor="#ffffff"
     bordercolor="#666666"
     borderopacity="1"
     objecttolerance="10"
     gridtolerance="10"
     guidetolerance="10"
     inkscape:pageopacity="0"
     inkscape:pageshadow="2"
     inkscape:window-width="753"
     inkscape:window-height="480"
     id="namedview10"
     showgrid="false"
     inkscape:zoom="9.8333333"
     inkscape:cx="12"
     inkscape:cy="12"
     inkscape:window-x="0"
     inkscape:window-y="0"
     inkscape:window-maximized="0"
     inkscape:current-layer="svg2" />
  <path
     d="m 8 4 -4 4 7 0 0 -4 -3 0 z m 5 0 0 4 7 0 -4 -4 -3 0 z m -9 6 0 10 9.604 0 c -0.313 -1.723 0.189 -3.57 1.508 -4.889 1.065 -1.066 2.484 -1.611 3.889 -1.611 c 0.334 0 0.669 0.032 1 0.094 l 0 -3.594 -16 0"
     style="fill:#aaaaaa;fill-opacity:1"
     id="path4" />
  <g
     transform="matrix(0.175,0,0,0.175,14.799982,14.8)"
     style="fill:#ee545b;fill-opacity:1"
     id="g6">
    <path
       d="m 24.5 21 c -1.152 0 -2.303 0.439 -3.182 1.318 -1.758 1.757 -1.758 4.606 0 6.363 1.757 1.758 4.606 1.758 6.363 0 1.758 -1.757 1.758 -4.606 0 -6.363 c -0.878 -0.879 -2.03 -1.318 -3.182 -1.318 m 0 1.35 c 0.592 0 1.181 0.169 1.697 0.5 l -4.348 4.348 c -0.783 -1.219 -0.643 -2.858 0.424 -3.924 0.615 -0.615 1.42 -0.924 2.227 -0.924 m 2.65 1.453 c 0.783 1.219 0.643 2.858 -0.424 3.924 -1.066 1.067 -2.705 1.206 -3.924 0.424 l 4.348 -4.348 z"
       transform="matrix(4.4444444,0,0,4.4444444,-84.888889,-89.333333)"
       id="path8" />
  </g>
</svg>
