<?xml version="1.0" encoding="UTF-8" standalone="no"?>
<svg
   xmlns:dc="http://purl.org/dc/elements/1.1/"
   xmlns:cc="http://creativecommons.org/ns#"
   xmlns:rdf="http://www.w3.org/1999/02/22-rdf-syntax-ns#"
   xmlns:svg="http://www.w3.org/2000/svg"
   xmlns="http://www.w3.org/2000/svg"
   xmlns:sodipodi="http://sodipodi.sourceforge.net/DTD/sodipodi-0.dtd"
   xmlns:inkscape="http://www.inkscape.org/namespaces/inkscape"
   viewBox="0 0 24 24"
   id="svg2"
   version="1.1"
   inkscape:version="0.91 r13725"
   sodipodi:docname="aptdaemon-update-cache.svg">
  <metadata
     id="metadata30">
    <rdf:RDF>
      <cc:Work
         rdf:about="">
        <dc:format>image/svg+xml</dc:format>
        <dc:type
           rdf:resource="http://purl.org/dc/dcmitype/StillImage" />
      </cc:Work>
    </rdf:RDF>
  </metadata>
  <defs
     id="defs28" />
  <sodipodi:namedview
     pagecolor="#ffffff"
     bordercolor="#666666"
     borderopacity="1"
     objecttolerance="10"
     gridtolerance="10"
     guidetolerance="10"
     inkscape:pageopacity="0"
     inkscape:pageshadow="2"
     inkscape:window-width="1916"
     inkscape:window-height="1019"
     id="namedview26"
     showgrid="false"
     inkscape:zoom="32.496094"
     inkscape:cx="12"
     inkscape:cy="12"
     inkscape:window-x="0"
     inkscape:window-y="13"
     inkscape:window-maximized="1"
     inkscape:current-layer="svg2" />
  <path
     d="m 8 4 -4 4 7 0 0 -4 -3 0 z m 5 0 0 4 7 0 -4 -4 -3 0 z m -9 6 l 0 10 8.832 0 0.305 -1.025 -0.285 -0.111 0.756 -1.881 c 0.06 -0.149 0.168 -0.263 0.24 -0.404 l 0.297 -1 0.227 0.123 c 1.059 -1.369 2.71 -2.199 4.492 -2.199 0.387 0 0.768 0.04 1.137 0.117 l 0 -3.617 -16 0"
     style="fill:#aaaaaa;fill-opacity:1"
     id="path4" />
  <g
     transform="matrix(0.63636363,0,0,0.63636363,11.863636,12)"
     style="fill:#4db147;fill-opacity:1"
     id="g6">
    <g
       transform="matrix(0.34782609,0,0,0.34782609,2.6435901,2.6456559)"
       id="g8">
      <path
         transform="matrix(2.875,0,0,2.875,97.067647,-33.481261)"
         d="m -25.406 14.5 c 2.304 0 4.367 1.303 5.281 3.313 l 1.219 -0.469 -1 3.469 -3.313 -1.844 1.281 -0.5 c -0.621 -1.31 -1.954 -2.125 -3.469 -2.125 -1.573 0 -2.996 0.94 -3.563 2.344 l -1.781 -0.688 c 0.845 -2.104 2.985 -3.5 5.344 -3.5 z m -5.5 4.719 3.313 1.781 -1.281 0.5 c 0.613 1.305 1.964 2.156 3.469 2.156 1.576 0 2.979 -0.91 3.563 -2.313 l 1.781 0.688 c -0.877 2.103 -2.979 3.469 -5.344 3.469 -2.292 0 -4.387 -1.339 -5.281 -3.344 l -1.219 0.438 z"
         id="path10" />
    </g>
    <g
       transform="matrix(0.49988464,0,0,0.49988464,-37.411065,7.9950011)"
       id="g12">
      <!-- color: #004794 -->
    </g>
  </g>
  <g
     transform="matrix(1.3636364,0,0,1.3636364,-74.661508,-2.3574952)"
     style="stroke-dasharray:none;stroke-opacity:1;fill:#4db147;stroke-miterlimit:4;fill-opacity:1;stroke:#000;stroke-width:4.4"
     id="g14">
    <g
       transform="matrix(0.49988464,0,0,0.49988464,-37.411065,7.9950011)"
       style="stroke:#000;stroke-width:8.802"
       id="g16">
      <!-- color: #004794 -->
    </g>
  </g>
  <g
     transform="matrix(0.9090909,0,0,0.9090909,-32.874999,12.250001)"
     style="stroke-dasharray:none;stroke-opacity:1;fill:#4db147;stroke-miterlimit:4;fill-opacity:1;stroke:#000;stroke-width:4.4"
     id="g18">
    <g
       transform="matrix(0.49988464,0,0,0.49988464,-37.411065,7.9950011)"
       style="stroke:#000;stroke-width:8.802"
       id="g20">
      <!-- color: #004794 -->
    </g>
  </g>
  <g
     transform="matrix(0.63636363,0,0,0.63636363,10.863636,13)"
     style="stroke-dasharray:none;stroke-opacity:1;fill:#4db147;stroke-miterlimit:4;fill-opacity:1;stroke:#000;stroke-width:6.286"
     id="g22">
    <g
       transform="matrix(0.49988464,0,0,0.49988464,-37.411065,7.9950011)"
       style="stroke:#000;stroke-width:12.574"
       id="g24">
      <!-- color: #004794 -->
    </g>
  </g>
</svg>
